<svg xmlns="http://www.w3.org/2000/svg">
<defs>
<font id="PermianSerifTypeface-Italic" horiz-adv-x="500" >
  <font-face 
    font-family="PermianSerifTypeface"
    font-weight="400"
    font-style="italic"
    font-stretch="normal"
    units-per-em="1000"
    panose-1="2 0 0 0 0 0 0 0 0 0"
    ascent="750"
    descent="-250"
    x-height="500"
    cap-height="700"
    bbox="-221 -307 1320 1123"
    underline-thickness="50"
    underline-position="-50"
    slope="-10"
    unicode-range="U+0020-U+FFFD"
  />
<missing-glyph horiz-adv-x="634" 
d="M47 0l-23 22v489l23 22h490l22 -22v-490l-22 -21h-490zM55 51l21 -20h432l19 19v432l-19 20h-432l-21 -20v-431zM183 323v89l-1 14l13 1v-7q7 7 21 7q29 0 29 -32q0 -18 -9.5 -28.5t-25.5 -10.5q-5 0 -15 4v-25l1 -12h-13zM143 357v7q-12 -8 -23 -8q-21 0 -21 23v36
l-1 11h14v-43q0 -16 13 -16q10 0 17 5v54h13v-54l1 -14zM496 331l-4 -8q-39 15 -39 69q0 53 39 70l4 -9q-31 -15 -31 -60q0 -47 31 -62zM261 359l1 11q4 0 11 -1.5t11 -1.5q13 0 13 8q0 6 -16 12q-19 6 -19 21q0 19 22 19q5 0 11.5 -1t9.5 -1l-1 -11q-5 0 -11 1.5t-10 1.5
q-10 0 -10 -8q0 -7 17 -12q18 -7 18 -21q0 -20 -24 -20q-5 0 -13.5 1.5t-9.5 1.5zM195 412v-41q10 -5 16 -5q21 0 21 25t-19 25q-11 0 -18 -4zM298 102v-1q-1 -1 -1 -2q0 -2 3 -2l7 -1q11 0 11 -9q0 -11 -15 -11t-15 9q0 6 6 8q-2 2 -2 4l3 6q-6 1 -6 9q0 13 14 13q3 0 7 -2
q3 3 10 3v-5q-5 0 -8 -1q4 -2 4 -7q0 -12 -14 -12q-3 0 -4 1zM378 77v40l-1 7h6v-3q6 4 10 4q13 0 13 -15q0 -18 -16 -18q-5 0 -7 2v-12l1 -5h-6zM212 192v11l-1 6l6 1v-41l1 -7h-6v3q-4 -4 -9 -4q-14 0 -14 16q0 17 15 17q4 0 8 -2zM238 246q0 18 16 18q15 0 15 -15
q0 -18 -16 -18q-15 0 -15 15zM228 176q0 18 16 18q14 0 14 -15q0 -18 -16 -18q-14 0 -14 15zM130 181l-7 -19h-6l-5 19l-1 7h-1q0 -4 -1 -7l-5 -19h-6l-8 25l-2 7h6l5 -19l2 -8l5 20l2 7h6l5 -18l2 -9q1 4 2 9l3 8l2 10h5q0 -6 -3 -13zM427 168v-5q-2 -2 -5 -2q-5 0 -5 4

<glyph glyph-name="f_f" unicode="ff" horiz-adv-x="716" 
d="M164 500l6 30q21 101 80 163.5t128 62.5q34 0 73.5 -9t47.5 -10l-19 -81q-28 6 -60 30.5t-52 24.5q-39 0 -61.5 -38.5t-37.5 -113.5q-4 -22 -12 -59h239l3 14q20 100 80 171t139 71q29 0 71 -8.5t58 -10.5l-19 -81q-29 4 -68 29.5t-60 25.5q-40 0 -63 -42.5t-42 -139.5
l-6 -29h132v-45h-141l-84 -413l110 -11v-31h-283v31l80 11l84 413h-239l-84 -413l80 -11v-31h-253v31l80 11l84 413h-85v45h94z" />
    <glyph glyph-name="fi" unicode="fi" horiz-adv-x="678" 
d="M164 500l6 30q21 101 80 163.5t128 62.5q34 0 73.5 -9t47.5 -10l-19 -81q-28 6 -60 30.5t-52 24.5q-39 0 -61.5 -38.5t-37.5 -113.5q-4 -22 -12 -59h206l110 10l20 -5l-97 -456l123 83v-49l-87 -58q-47 -32 -78 -32q-25 0 -41 20t-8 55l84 387h-241l-84 -413l110 -11v-31
h-283v31l80 11l84 413h-85v45h94zM561 601q-24 0 -39.5 16t-15.5 42t16.5 45.5t47.5 19.5q25 0 38 -14.5t13 -36.5q0 -31 -16.5 -51.5t-43.5 -20.5z" />
    <glyph glyph-name="fl" unicode="fl" horiz-adv-x="671" 
d="M-9 0v31l80 11l84 413h-85v45h94l3 14q20 100 80 171t139 71q31 0 69.5 -9.5t59.5 -9.5q61 0 121 31l20 -5l-150 -701l121 80v-59l-87 -58q-47 -32 -78 -32q-25 0 -41 20t-8 55l129 602q-22 -12 -49 -12q-30 0 -65 26.5t-60 26.5q-40 0 -63 -42.5t-42 -139.5l-6 -29h132
v-45h-141l-84 -413l110 -11v-31h-283z" />
    <glyph glyph-name="f_f_i" unicode="ffi" horiz-adv-x="989" 
d="M164 500l6 30q21 101 80 163.5t128 62.5q34 0 73.5 -9t47.5 -10l-19 -81q-28 6 -60 30.5t-52 24.5q-39 0 -61.5 -38.5t-37.5 -113.5q-4 -22 -12 -59h218l6 30q21 101 80 163.5t128 62.5q34 0 73.5 -9t47.5 -10l-19 -81q-28 6 -60 30.5t-52 24.5q-39 0 -61.5 -38.5
t-37.5 -113.5q-4 -22 -12 -59h206l110 10l20 -5l-97 -456l123 83v-49l-87 -58q-47 -32 -78 -32q-25 0 -41 20t-8 55l84 387h-241l-84 -413l110 -11v-31h-283v31l80 11l84 413h-218l-84 -413l80 -11v-31h-253v31l80 11l84 413h-85v45h94zM872 601q-24 0 -39.5 16t-15.5 42
t16.5 45.5t47.5 19.5q25 0 38 -14.5t13 -36.5q0 -31 -16.5 -51.5t-43.5 -20.5z" />
    <glyph glyph-name="f_f_l" unicode="ffl" horiz-adv-x="981" 
d="M164 500l6 30q21 101 80 163.5t128 62.5q34 0 73.5 -9t47.5 -10l-19 -81q-28 6 -60 30.5t-52 24.5q-39 0 -61.5 -38.5t-37.5 -113.5q-4 -22 -12 -59h219l3 14q20 100 80 171t139 71q31 0 69.5 -9.5t59.5 -9.5q61 0 121 31l20 -5l-153 -713l124 82v-49l-87 -58
q-47 -32 -78 -32q-25 0 -41 20t-8 55l129 602q-22 -12 -49 -12q-30 0 -65 26.5t-60 26.5q-40 0 -63 -42.5t-42 -139.5l-6 -29h132v-45h-141l-84 -413l110 -11v-31h-283v31l80 11l84 413h-219l-84 -413l80 -11v-31h-253v31l80 11l84 413h-85v45h94z" />
    <glyph glyph-name="f_b" unicode="fb" horiz-adv-x="910" 
d="M-9 0v31l80 11l84 413h-85v45h94l3 14q20 100 80 171t139 71q31 0 69.5 -9.5t59.5 -9.5q61 0 121 31l20 -5l-76 -353l70 52q62 47 113 47q42 0 70.5 -36.5t28.5 -108.5q0 -150 -82 -260t-193 -110q-74 0 -123 43l-46 -47h-21l145 680q-22 -12 -49 -12q-30 0 -65 26.5
t-60 26.5q-40 0 -63 -42.5t-42 -139.5l-6 -29h132v-45h-141l-84 -413l110 -11v-31h-283zM761 349q0 91 -42 91q-24 0 -55 -22l-97 -70l-54 -249q25 -63 76 -63q70 0 121 100t51 213z" />
    <glyph glyph-name="f_h" unicode="fh" horiz-adv-x="933" 
d="M772 51l124 81v-49l-87 -58q-47 -32 -78 -32q-25 0 -40.5 19.5t-7.5 54.5l65 306q9 43 -11.5 59.5t-62.5 -9.5l-105 -68l-76 -355h-94l143 670q-22 -12 -49 -12q-30 0 -65 26.5t-60 26.5q-40 0 -63 -42.5t-42 -139.5l-6 -29h132v-45h-141l-84 -413l110 -11v-31h-283v31
l80 11l84 413h-85v45h94l3 14q20 100 80 171t139 71q31 0 69.5 -9.5t59.5 -9.5q61 0 121 31l20 -5l-75 -350l105 71q37 26 72 26q54 0 74 -41t7 -105z" />
    <glyph glyph-name="f_k" unicode="fk" horiz-adv-x="890" 
d="M-9 0v31l80 11l84 413h-85v45h94l3 14q20 100 80 171t139 71q31 0 69.5 -9.5t59.5 -9.5q61 0 121 31l20 -5l-163 -763h-94l143 670q-22 -12 -49 -12q-30 0 -65 26.5t-60 26.5q-40 0 -63 -42.5t-42 -139.5l-6 -29h132v-45h-141l-84 -413l110 -11v-31h-283zM665 20
l-111 230v4q115 154 170 203.5t119 49.5l-26 -100q-39 0 -77.5 -23.5t-104.5 -96.5l108 -227l111 72v-51l-73 -48q-36 -23 -50 -30t-29 -7q-25 0 -37 24z" />
    <glyph glyph-name="f_f_b" unicode="ffb" horiz-adv-x="1222" 
d="M164 500l6 30q21 101 80 163.5t128 62.5q34 0 73.5 -9t47.5 -10l-19 -81q-28 6 -60 30.5t-52 24.5q-39 0 -61.5 -38.5t-37.5 -113.5q-4 -22 -12 -59h219l3 14q20 100 80 171t139 71q31 0 69.5 -9.5t59.5 -9.5q61 0 121 31l20 -5l-76 -353l70 52q62 47 113 47
q42 0 70.5 -36.5t28.5 -108.5q0 -150 -82 -260t-193 -110q-74 0 -123 43l-46 -47h-21l145 680q-22 -12 -49 -12q-30 0 -65 26.5t-60 26.5q-40 0 -63 -42.5t-42 -139.5l-6 -29h132v-45h-141l-84 -413l110 -11v-31h-283v31l80 11l84 413h-219l-84 -413l80 -11v-31h-253v31
l80 11l84 413h-85v45h94zM1073 349q0 91 -42 91q-24 0 -55 -22l-97 -70l-54 -249q26 -63 76 -63q70 0 121 100t51 213z" />
    <glyph glyph-name="f_f_h" unicode="ffh" horiz-adv-x="1245" 
d="M164 500l6 30q21 101 80 163.5t128 62.5q34 0 73.5 -9t47.5 -10l-19 -81q-28 6 -60 30.5t-52 24.5q-39 0 -61.5 -38.5t-37.5 -113.5q-4 -22 -12 -59h219l3 14q20 100 80 171t139 71q31 0 69.5 -9.5t59.5 -9.5q61 0 121 31l20 -5l-75 -350l105 71q37 26 72 26q54 0 74 -41
t7 -105l-67 -313l124 81v-49l-87 -58q-47 -32 -78 -32q-25 0 -40.5 19.5t-7.5 54.5l65 306q9 43 -11.5 59.5t-62.5 -9.5l-105 -68l-76 -355h-94l143 670q-22 -12 -49 -12q-30 0 -65 26.5t-60 26.5q-40 0 -63 -42.5t-42 -139.5l-6 -29h132v-45h-141l-84 -413l110 -11v-31
h-283v31l80 11l84 413h-219l-84 -413l80 -11v-31h-253v31l80 11l84 413h-85v45h94z" />
    <glyph glyph-name="f_f_j" unicode="ffj" horiz-adv-x="984" 
d="M164 500l6 30q21 101 80 163.5t128 62.5q34 0 73.5 -9t47.5 -10l-19 -81q-28 6 -60 30.5t-52 24.5q-39 0 -61.5 -38.5t-37.5 -113.5q-4 -22 -12 -59h239l6 30q21 101 80 163.5t128 62.5q34 0 73.5 -9t47.5 -10l-19 -81q-28 6 -60 30.5t-52 24.5q-39 0 -61.5 -38.5
t-37.5 -113.5q-4 -22 -12 -59h226l110 10l20 -5l-109 -505q-23 -107 -81 -182t-144 -75q-29 0 -71 8.5t-58 10.5l20 81q29 -4 67.5 -28.5t59.5 -24.5q42 0 65 42.5t42 129.5l105 493h-261l-84 -413l110 -11v-31h-283v31l80 11l84 413h-239l-84 -413l80 -11v-31h-253v31
l80 11l84 413h-85v45h94zM913 601q-24 0 -39.5 16t-15.5 42t16.5 45.5t47.5 19.5q25 0 38 -14.5t13 -36.5q0 -31 -16.5 -51.5t-43.5 -20.5z" />
    <glyph glyph-name="f_f_k" unicode="ffk" horiz-adv-x="1202" 
d="M164 500l6 30q21 101 80 163.5t128 62.5q34 0 73.5 -9t47.5 -10l-19 -81q-28 6 -60 30.5t-52 24.5q-39 0 -61.5 -38.5t-37.5 -113.5q-4 -22 -12 -59h219l3 14q20 100 80 171t139 71q31 0 69.5 -9.5t59.5 -9.5q61 0 121 31l20 -5l-163 -763h-94l143 670q-22 -12 -49 -12
q-30 0 -65 26.5t-60 26.5q-40 0 -63 -42.5t-42 -139.5l-6 -29h132v-45h-141l-84 -413l110 -11v-31h-283v31l80 11l84 413h-219l-84 -413l80 -11v-31h-253v31l80 11l84 413h-85v45h94zM977 20l-111 230v4q115 154 170 203.5t119 49.5l-26 -100q-39 0 -77.5 -23.5
t-104.5 -96.5l108 -227l111 72v-51l-73 -48q-36 -23 -50 -30t-29 -7q-25 0 -37 24z" />
    <glyph glyph-name="f_j" unicode="fj" horiz-adv-x="652" 
d="M164 500l6 30q21 101 80 163.5t128 62.5q34 0 73.5 -9t47.5 -10l-19 -81q-28 6 -60 30.5t-52 24.5q-39 0 -61.5 -38.5t-37.5 -113.5q-4 -22 -12 -59h226l110 10l20 -5l-109 -505q-23 -107 -81 -182t-144 -75q-29 0 -71 8.5t-58 10.5l20 81q29 -4 67.5 -28.5t59.5 -24.5
q42 0 65 42.5t42 129.5l105 493h-261l-84 -413l110 -11v-31h-283v31l80 11l84 413h-85v45h94zM581 601q-24 0 -39.5 16t-15.5 42t16.5 45.5t47.5 19.5q25 0 38 -14.5t13 -36.5q0 -31 -16.5 -51.5t-43.5 -20.5z" />
    <glyph glyph-name=".notdef" horiz-adv-x="634" 
d="M47 0l-23 22v489l23 22h490l22 -22v-490l-22 -21h-490zM55 51l21 -20h432l19 19v432l-19 20h-432l-21 -20v-431zM183 323v89l-1 14l13 1v-7q7 7 21 7q29 0 29 -32q0 -18 -9.5 -28.5t-25.5 -10.5q-5 0 -15 4v-25l1 -12h-13zM143 357v7q-12 -8 -23 -8q-21 0 -21 23v36
l-1 11h14v-43q0 -16 13 -16q10 0 17 5v54h13v-54l1 -14zM496 331l-4 -8q-39 15 -39 69q0 53 39 70l4 -9q-31 -15 -31 -60q0 -47 31 -62zM261 359l1 11q4 0 11 -1.5t11 -1.5q13 0 13 8q0 6 -16 12q-19 6 -19 21q0 19 22 19q5 0 11.5 -1t9.5 -1l-1 -11q-5 0 -11 1.5t-10 1.5
q-10 0 -10 -8q0 -7 17 -12q18 -7 18 -21q0 -20 -24 -20q-5 0 -13.5 1.5t-9.5 1.5zM195 412v-41q10 -5 16 -5q21 0 21 25t-19 25q-11 0 -18 -4zM298 102v-1q-1 -1 -1 -2q0 -2 3 -2l7 -1q11 0 11 -9q0 -11 -15 -11t-15 9q0 6 6 8q-2 2 -2 4l3 6q-6 1 -6 9q0 13 14 13q3 0 7 -2
q3 3 10 3v-5q-5 0 -8 -1q4 -2 4 -7q0 -12 -14 -12q-3 0 -4 1zM378 77v40l-1 7h6v-3q6 4 10 4q13 0 13 -15q0 -18 -16 -18q-5 0 -7 2v-12l1 -5h-6zM212 192v11l-1 6l6 1v-41l1 -7h-6v3q-4 -4 -9 -4q-14 0 -14 16q0 17 15 17q4 0 8 -2zM238 246q0 18 16 18q15 0 15 -15
q0 -18 -16 -18q-15 0 -15 15zM228 176q0 18 16 18q14 0 14 -15q0 -18 -16 -18q-14 0 -14 15zM130 181l-7 -19h-6l-5 19l-1 7h-1q0 -4 -1 -7l-5 -19h-6l-8 25l-2 7h6l5 -19l2 -8l5 20l2 7h6l5 -18l2 -9q1 4 2 9l3 8l2 10h5q0 -6 -3 -13zM427 168v-5q-2 -2 -5 -2q-5 0 -5 4
q-6 -4 -10 -4q-9 0 -9 9q0 8 10 9q3 1 9 1v2q0 7 -8 7l-9 -1v4q4 2 10 2q13 0 13 -11q0 -2 -0.5 -7.5t-0.5 -7.5t2 -2zM167 178h-22q0 -12 11 -12l9 2v-4q-4 -3 -11 -3q-15 0 -15 16q0 17 15 17t13 -16zM265 114v-16l1 -6h-7v20q0 7 -6 7t-8 -2v-25h-6v48h6v-19q6 4 11 4
q9 0 9 -11zM492 178h-22q2 -12 12 -12l8 2v-4q-4 -3 -10 -3q-16 0 -16 16q0 17 16 17q14 0 12 -16zM389 184v-22h-6v20q0 7 -6 7q-4 0 -8 -2v-25h-6v47l6 1v-20q4 4 11 4q9 0 9 -10zM442 114v-16l1 -6h-6v20q0 7 -7 7q-6 0 -8 -2v-19l1 -6h-7v48h6v-19q6 4 11 4q9 0 9 -11z
M190 92v3q-4 -3 -10 -3q-10 0 -10 10v17l-1 5h7v-20q0 -7 6 -7q4 0 8 2v25h6v-32h-6zM294 184v-17l1 -5h-7v20q0 7 -6 7q-4 0 -8 -2v-25h-6v32h6v-4q4 4 10 4q10 0 10 -10zM353 76l-6 1q1 4 5 14l1 1l-9 25l-3 7h7l6 -18l2 -8q1 4 3 8l2 6l3 12h5q0 -1 -3 -13l-8 -19z
M341 216h-5q0 4 5 14v2l-9 25l-3 6l7 1l6 -19l2 -8q1 4 3 9l2 6q3 9 3 11h6q0 -1 -1 -3.5t-1.5 -4.5t-1.5 -4l-8 -20zM393 385v10h40v-10h-40zM244 249q0 -13 10 -13q9 0 9 10q0 14 -10 14q-9 0 -9 -11zM234 179q0 -13 10 -13q8 0 8 11q0 13 -9 13t-9 -11zM212 168v19
q-3 3 -7 3q-10 0 -10 -12t9 -12q4 0 8 2zM208 232l1 6q6 -2 10 -2q6 0 6 4t-7 5q-9 3 -9 10q0 9 10 9q2 0 5 -0.5t5 -0.5l-1 -5q-2 0 -5 0.5t-4 0.5q-5 0 -5 -4q0 -2 8 -5t8 -10q0 -9 -11 -9q-2 0 -5.5 0.5t-5.5 0.5zM139 93v5q2 0 5.5 -0.5t4.5 -0.5q7 0 7 3t-8 6
q-9 3 -9 10q0 9 10 9q3 0 6 -1t4 -1l-1 -5q-2 0 -4.5 1t-4.5 1q-5 0 -5 -4q0 -3 8 -6q9 -4 9 -9q0 -9 -12 -9q-2 0 -5.5 0.5t-4.5 0.5zM383 117v-18q3 -3 8 -3q9 0 9 12q0 11 -9 11q-6 0 -8 -2zM456 183l-8 -21h-6l-9 25l-3 7h7l6 -19l2 -8h1q0 4 2 8l3 10q2 6 2 9h6z
M212 109q0 -12 10 -12l8 1v-4q-4 -2 -9 -2q-15 0 -15 15q0 18 15 18q1 0 4 -1t5 -1l-1 -5q-1 0 -4 1t-5 1q-8 0 -8 -11zM323 189h-4v4l4 1l3 7h2v-7h12v-5h-12v-17q0 -6 6 -6l6 1v-4q-3 -2 -7 -2q-10 0 -10 11v17zM285 232h-7v31l6 1v-5q5 5 8 5q2 0 4.5 -1.5t3.5 -1.5
l-2 -5q-1 0 -3.5 1.5t-3.5 1.5q-3 0 -7 -4v-18zM313 232h-7v31l6 1v-5q5 5 8 5q2 0 4.5 -1.5t3.5 -1.5l-3 -5l-6 3q-3 0 -7 -4v-18zM357 412q0 9 10 9q8 0 8 -8q0 -9 -9 -9t-9 8zM357 364q0 9 10 9q8 0 8 -9q0 -8 -9 -8t-9 8zM328 92v41l-1 7h6v-42l1 -6h-6zM296 92
q-2 -4 -2 -5q0 -7 10 -7q9 0 9 6q0 5 -6 5h-7q-1 0 -2 1h-2zM295 113q0 -7 8 -7q7 0 7 7t-8 7q-7 0 -7 -7zM416 169q0 1 0.5 3.5t0.5 4.5q-5 0 -7 -1q-6 -1 -6 -6q0 -4 5 -4q4 0 7 3zM145 182h16q0 8 -7 8t-9 -8zM470 182h16q0 8 -7 8t-9 -8zM367 220l-2 2q4 4 4 9
q-4 0 -4 4t4 4t4 -5q0 -10 -6 -14zM306 188l-2 2q4 6 4 9q-4 0 -4 4t4 4t4 -5q0 -8 -6 -14z" />
    <glyph glyph-name=".null" horiz-adv-x="0" 
 />
    <glyph glyph-name="nonmarkingreturn" horiz-adv-x="333" 
 />
    <glyph glyph-name="space" unicode=" " horiz-adv-x="235" 
 />
    <glyph glyph-name="exclam" unicode="!" horiz-adv-x="277" 
d="M90 200l72 501l105 5l-124 -506h-53zM86 -15q-24 0 -39.5 16t-15.5 42t16.5 45.5t47.5 19.5q24 0 39.5 -16t15.5 -42t-16.5 -45.5t-47.5 -19.5z" />
    <glyph glyph-name="quotedbl" unicode="&#x22;" horiz-adv-x="370" 
d="M107 463l16 238l105 5l-68 -243h-53zM267 463l16 238l105 5l-68 -243h-53z" />
    <glyph glyph-name="numbersign" unicode="#" horiz-adv-x="748" 
d="M115 383v74h186l76 135h82l-76 -135h159l76 135h82l-76 -135h92v-74h-133l-92 -166h143v-74h-185l-80 -143h-83l81 143h-159l-80 -143h-83l81 143h-93v74h134l93 166h-145zM342 383l-92 -166h158l93 166h-159z" />
    <glyph glyph-name="dollar" unicode="$" horiz-adv-x="512" 
d="M165 -14q-50 0 -91.5 9.5t-57.5 18.5l-17 10l31 156h30v-126q51 -16 115 -16q74 0 124 34.5t50 98.5q0 39 -26.5 69t-64 50.5l-75.5 41.5t-64.5 55t-26.5 79q0 81 60.5 137t157.5 67l20 145q41 14 78 0l-34 -144q40 -2 74.5 -11.5t49.5 -17.5l14 -9l-38 -159h-38l9 124
q-47 22 -112 22q-63 0 -103.5 -31.5t-40.5 -90.5q0 -36 26.5 -64t64.5 -48.5l76 -42.5t64.5 -57t26.5 -80q0 -85 -60 -142.5t-158 -72.5l-19 -144q-39 -14 -78 0z" />
    <glyph glyph-name="percent" unicode="%" horiz-adv-x="951" 
d="M254 394q52 0 82.5 47t30.5 113q0 44 -19.5 75.5t-58.5 31.5q-55 0 -84 -46t-29 -119q0 -43 19 -72.5t59 -29.5zM245 341q-73 0 -118.5 39.5t-45.5 116.5q0 86 58.5 151.5t161.5 65.5q79 0 121 -44t42 -115q0 -91 -61 -152.5t-158 -61.5zM280 0h-98l502 700h97zM680 43
q52 0 82.5 47t30.5 113q0 44 -19.5 75.5t-58.5 31.5q-55 0 -84 -46t-29 -119q0 -43 19 -72.5t59 -29.5zM671 -10q-73 0 -118.5 39.5t-45.5 116.5q0 86 58.5 151.5t161.5 65.5q79 0 121 -44t42 -115q0 -91 -61 -152.5t-158 -61.5z" />
    <glyph glyph-name="ampersand" unicode="&#x26;" horiz-adv-x="711" 
d="M609 32h20v-32h-49q-97 0 -172 70q-100 -80 -207 -80q-78 0 -126 41.5t-48 111.5q0 65 41.5 116t127.5 97q-60 91 -60 164q0 81 58.5 137.5t148.5 56.5q82 0 122.5 -36t40.5 -95q0 -61 -47 -108t-155 -114l43 -63q62 -93 96 -136q72 81 126 211l-94 14v31h218v-31
l-72 -14q-59 -144 -151 -245q81 -96 139 -96zM227 47q76 0 150 54q-19 21 -36 44.5l-44 64l-33 49.5l-47 68l-3 3q-44 -32 -68 -77t-24 -89q0 -57 28.5 -87t76.5 -30zM230 542q0 -72 54 -152q130 92 130 182q0 43 -20.5 67.5t-56.5 24.5q-49 0 -78 -36t-29 -86z" />
    <glyph glyph-name="quotesingle" unicode="'" horiz-adv-x="210" 
d="M107 463l16 238l105 5l-68 -243h-53z" />
    <glyph glyph-name="parenleft" unicode="(" horiz-adv-x="321" 
d="M252 -225l-17 -25q-102 63 -156 163.5t-54 224.5q0 199 100 370t293 254l13 -25q-106 -58 -179 -158t-104 -207.5t-31 -220.5q0 -241 135 -376z" />
    <glyph glyph-name="parenright" unicode=")" horiz-adv-x="323" 
d="M58 737l17 25q102 -63 156 -163.5t54 -224.5q0 -199 -100 -370t-293 -254l-13 25q106 58 179 158t104 207.5t31 220.5q0 241 -135 376z" />
    <glyph glyph-name="asterisk" unicode="*" horiz-adv-x="538" 
d="M111 707q9 23 30 28.5t48 -10.5l96 -64l31 19v131q0 26 15 43.5t41 17.5t34 -19t-3 -42l-55 -129l22 -21l120 65q29 15 48.5 9.5t25.5 -28.5q6 -22 -10.5 -38.5t-47.5 -19.5l-129 -17l-19 -35l70 -80q19 -24 15.5 -44t-24.5 -32q-22 -12 -41 -1.5t-26 40.5l-24 97h-38
l-72 -111q-17 -26 -40.5 -32t-35.5 7q-15 9 -13.5 33.5t28.5 44.5l113 80l-4 34l-113 17q-27 4 -38.5 20t-3.5 37z" />
    <glyph glyph-name="plus" unicode="+" horiz-adv-x="507" 
d="M46 253v64h176l33 174h70l-33 -174h165v-64h-178l-33 -173h-70l33 173h-163z" />
    <glyph glyph-name="comma" unicode="," horiz-adv-x="243" 
d="M0 -176l-22 27q81 61 106 137q-26 -5 -44.5 10t-18.5 47q0 27 17.5 45t46.5 18q23 0 39 -16t16 -44q0 -63 -39.5 -122t-100.5 -102z" />
    <glyph glyph-name="hyphen" unicode="-" horiz-adv-x="447" 
d="M77 252v69l291 10v-69z" />
    <glyph glyph-name="period" unicode="." horiz-adv-x="240" 
d="M75 -15q-24 0 -39.5 16t-15.5 42t16.5 45.5t47.5 19.5q24 0 39.5 -16t15.5 -42t-16.5 -45.5t-47.5 -19.5z" />
    <glyph glyph-name="slash" unicode="/" horiz-adv-x="402" 
d="M15 -174h-83l431 874h82z" />
    <glyph glyph-name="zero" unicode="0" horiz-adv-x="598" 
d="M253 40q83 0 143.5 129t60.5 299q0 97 -21 144.5t-74 47.5q-56 0 -103.5 -62t-73.5 -161t-26 -209q0 -98 20 -143t74 -45zM239 -10q-95 0 -138.5 66.5t-43.5 174.5q0 73 20 153t57.5 154.5t101.5 123t142 48.5q96 0 139.5 -66.5t43.5 -175.5q0 -57 -12 -120.5
t-38.5 -127.5t-63 -115t-91 -83t-117.5 -32z" />
    <glyph glyph-name="one" unicode="1" horiz-adv-x="369" 
d="M68 618l249 88h26l-137 -706h-98l120 618l-150 -30z" />
    <glyph glyph-name="two" unicode="2" horiz-adv-x="493" 
d="M-14 30q213 212 286 319.5t73 197.5q0 45 -29.5 70.5t-80.5 25.5q-40 0 -75.5 -8.5t-51.5 -17.5l-16 -9v37q10 7 27 18t66 29t93 18q78 0 124 -41.5t46 -111.5q0 -57 -20.5 -110t-72 -115.5t-107.5 -117l-158 -146.5l328 21l-5 -89h-427v30z" />
    <glyph glyph-name="three" unicode="3" horiz-adv-x="508" 
d="M157 353l10 39q96 4 151 47t55 109q0 95 -118 95q-35 0 -67.5 -9t-47.5 -18l-15 -9v38q9 7 25 18t65 29t96 18q76 0 119.5 -38t43.5 -103q0 -67 -51 -120t-140 -72q72 -10 112 -50t40 -107q0 -91 -73 -160.5t-185 -69.5q-56 0 -101.5 16.5t-63.5 33.5l-17 16l14 32
q62 -33 132 -33q91 0 143 46.5t52 121.5q0 130 -179 130z" />
    <glyph glyph-name="four" unicode="4" horiz-adv-x="546" 
d="M258 -24l35 183h-279l-18 46l419 515l78 -16l-92 -477l93 2l-7 -70h-100l-17 -90l-13 -93h-99zM322 517l-236 -295l220 4l55 282l23 96h-3q-21 -40 -59 -87z" />
    <glyph glyph-name="five" unicode="5" horiz-adv-x="511" 
d="M503 700l-9 -89l-276 18l-44 -189q268 -10 268 -212q0 -102 -68.5 -170t-190.5 -68q-62 0 -110.5 22t-71.5 48l12 24q53 -30 142 -30q86 0 135.5 40.5t49.5 113.5q0 163 -242 163l76 329h329z" />
    <glyph glyph-name="six" unicode="6" horiz-adv-x="539" 
d="M527 668q-285 -17 -355 -288q49 49 132 49q80 0 129 -51t45 -142q-5 -102 -70.5 -174t-176.5 -72q-89 0 -137 67t-43 172q5 100 34.5 183t85.5 148.5t146.5 104t209.5 43.5v-40zM268 367q-65 0 -107 -39q-7 -45 -9 -93q-4 -78 19 -136t78 -58t90 54.5t38 129.5
q3 66 -25.5 104t-83.5 38z" />
    <glyph glyph-name="seven" unicode="7" horiz-adv-x="436" 
d="M86 616l6 84h399v-26q-178 -270 -366 -691l-90 24q73 158 174 332t196 299z" />
    <glyph glyph-name="eight" unicode="8" horiz-adv-x="545" 
d="M38 159q0 127 172 207q-44 35 -68 72t-24 89q0 84 61.5 133.5t156.5 49.5q81 0 128.5 -38.5t47.5 -104.5q0 -59 -46.5 -107t-112.5 -79q35 -26 57 -48.5t40 -59.5t18 -81q0 -85 -65.5 -144t-167.5 -59q-91 0 -144 45t-53 125zM371 176q0 27 -9 50t-32 45.5t-36.5 33
t-48.5 35.5q-61 -33 -86 -74t-25 -94q0 -62 27.5 -96.5t79.5 -34.5q56 0 93 36.5t37 98.5zM216 553q0 -45 25.5 -77t75.5 -69q50 32 73.5 65.5t23.5 81.5q0 106 -98 106q-47 0 -73.5 -29t-26.5 -78z" />
    <glyph glyph-name="nine" unicode="9" horiz-adv-x="539" 
d="M31 30q284 16 354 288q-49 -49 -131 -49q-80 0 -129 51t-45 142q5 102 70.5 174t176.5 72q89 0 137 -67t43 -172q-5 -100 -34.5 -183t-85.5 -148.5t-146.5 -104t-209.5 -43.5v40zM290 331q65 0 106 38q7 42 10 94q4 78 -19 136t-78 58t-90 -54.5t-38 -129.5
q-3 -66 25.5 -104t83.5 -38z" />
    <glyph glyph-name="colon" unicode=":" horiz-adv-x="268" 
d="M86 -15q-24 0 -39.5 16t-15.5 42t16.5 45.5t47.5 19.5q24 0 39.5 -16t15.5 -42t-16.5 -45.5t-47.5 -19.5zM157 383q-24 0 -39.5 16t-15.5 42t16.5 45.5t47.5 19.5q24 0 39.5 -16t15.5 -42t-16.5 -45.5t-47.5 -19.5z" />
    <glyph glyph-name="semicolon" unicode=";" horiz-adv-x="289" 
d="M178 383q-24 0 -39.5 16t-15.5 42t16.5 45.5t47.5 19.5q24 0 39.5 -16t15.5 -42t-16.5 -45.5t-47.5 -19.5zM9 -176l-22 27q81 61 106 137q-26 -5 -44.5 10t-18.5 47q0 27 17.5 45t46.5 18q23 0 39 -16t16 -44q0 -63 -39.5 -122t-100.5 -102z" />
    <glyph glyph-name="less" unicode="&#x3c;" horiz-adv-x="435" 
d="M40 300l272 200h104l-287 -212l187 -237h-85l-191 240v9z" />
    <glyph glyph-name="equal" unicode="=" horiz-adv-x="610" 
d="M96 342v69h411v-69h-411zM96 152v69h411v-69h-411z" />
    <glyph glyph-name="greater" unicode="&#x3e;" horiz-adv-x="432" 
d="M385 250l-272 -200h-104l287 212l-187 237h85l191 -240v-9z" />
    <glyph glyph-name="question" unicode="?" horiz-adv-x="431" 
d="M224 655q-30 0 -58.5 -6t-41.5 -12l-14 -6v40q7 5 19.5 12t55.5 19t90 12q76 0 114 -37.5t38 -95.5q0 -43 -23.5 -80t-56.5 -63.5l-66 -50.5t-56.5 -50.5t-23.5 -53.5q0 -23 18 -29t41 10l20 -30q-53 -38 -97 -38q-34 0 -55.5 20t-21.5 55q0 39 22.5 72t55 57.5l65 48.5
t55 55.5t22.5 67.5q0 83 -102 83zM160 -12q-24 0 -39.5 16t-15.5 42t16.5 45.5t47.5 19.5q24 0 39.5 -16t15.5 -42t-16.5 -45.5t-47.5 -19.5z" />
    <glyph glyph-name="at" unicode="@" horiz-adv-x="878" 
d="M581 -10q-75 0 -95 63q-5 -7 -14 -17.5t-41.5 -28t-69.5 -17.5q-64 0 -100.5 47t-36.5 128q0 60 23.5 119t75 102.5t120.5 43.5q30 0 55 -9t36 -19l10 -9l79 42h11l-60 -348q-4 -16 2.5 -29.5t23.5 -13.5q52 0 86 76.5t34 173.5q0 126 -62.5 197t-172.5 71
q-112 0 -196 -66.5t-124 -164.5t-40 -208q0 -117 52.5 -184.5t164.5 -67.5q29 0 56 4l-4 -46q-43 -7 -87 -7q-139 0 -210.5 73t-71.5 205q0 105 34.5 199t97.5 165.5t158.5 114t209.5 42.5q128 0 211 -77.5t83 -226.5q0 -117 -73 -222t-165 -105zM483 100l41 237
q-20 32 -68 32q-62 0 -98 -57t-36 -146q0 -50 19.5 -81.5t52.5 -31.5q25 0 47 11.5t32 23.5z" />
    <glyph glyph-name="A" unicode="A" horiz-adv-x="631" 
d="M99 44l83 -13v-31h-231v31l73 13l321 657l83 6l95 -663l71 -13v-31h-243v31l70 13l-22 164h-233l-24 -53q-24 -52 -43 -111zM392 258l-34 256l-9 89h-4q-12 -39 -34 -86l-121 -259h202z" />
    <glyph glyph-name="B" unicode="B" horiz-adv-x="612" 
d="M182 50h80q84 0 136 44.5t52 119.5q0 59 -33 92.5t-98 33.5h-86zM458 536q0 114 -131 114h-39l-46 -260h112q49 19 76.5 57.5t27.5 88.5zM255 0h-253v31l80 13l110 612l-79 13v31h230q108 0 163 -39.5t55 -110.5q0 -66 -44.5 -115.5t-104.5 -63.5l-1 -3q61 -9 100 -48.5
t39 -95.5q0 -107 -85 -165.5t-210 -58.5z" />
    <glyph glyph-name="C" unicode="C" horiz-adv-x="592" 
d="M435 667q-110 0 -192 -118t-82 -288q0 -100 50 -163.5t139 -63.5q27 0 70 13l50 126h42l-32 -148q-58 -39 -151 -39q-129 0 -201.5 77.5t-72.5 194.5q0 79 27.5 159.5t76.5 147t124 108t162 41.5q46 0 86.5 -10t58.5 -20l18 -10l-31 -144h-39l2 108q-42 29 -105 29z" />
    <glyph glyph-name="D" unicode="D" horiz-adv-x="692" 
d="M330 650h-42l-106 -600h70q126 0 213 105.5t87 263.5q0 110 -55.5 170.5t-166.5 60.5zM235 0h-233v31l80 13l110 612l-79 13v31h242q146 0 224 -73t78 -194q0 -185 -120.5 -309t-301.5 -124z" />
    <glyph glyph-name="E" unicode="E" horiz-adv-x="561" 
d="M232 333l-50 -283l220 4l53 119h41l-39 -173h-454l-1 31l80 13l110 612l-79 13v31h458l-30 -170h-41l1 114l-213 6l-47 -267h195l-11 -61z" />
    <glyph glyph-name="F" unicode="F" horiz-adv-x="534" 
d="M501 644l-213 6l-51 -287h196l-11 -61l-194 10l-48 -268l90 -13v-31h-267l-1 31l80 13l110 612l-79 13v31h458l-30 -170h-41z" />
    <glyph glyph-name="G" unicode="G" horiz-adv-x="659" 
d="M334 -14q-72 0 -127.5 24t-87.5 64.5t-47.5 87t-15.5 96.5q0 88 28.5 169.5t79.5 145.5t130.5 102.5t173.5 38.5q44 0 84 -10t58 -20l19 -10l-31 -144h-36v107q-52 30 -106 30q-72 0 -130.5 -38t-92.5 -97t-52.5 -124t-18.5 -126q0 -117 50 -182.5t126 -65.5q44 0 81 11
l41 215l-98 14v31h268v-31l-72 -14l-45 -242q-92 -32 -179 -32z" />
    <glyph glyph-name="H" unicode="H" horiz-adv-x="755" 
d="M582 44l79 -13l-1 -31h-258l1 31l81 13l52 291h-304l-52 -291l79 -13l-1 -31h-256v31l80 13l110 612l-79 13l1 31h258l-1 -31l-81 -13l-49 -271h304l49 271l-79 13l1 31h258l-1 -31l-81 -13z" />
    <glyph glyph-name="I" unicode="I" horiz-adv-x="353" 
d="M290 656l-110 -612l79 -13v-31h-257v31l80 13l110 612l-79 13v31h258v-31z" />
    <glyph glyph-name="J" unicode="J" horiz-adv-x="338" 
d="M285 656l-94 -525q-13 -73 -38 -118q-6 -12 -13 -23t-16 -22.5l-15.5 -20t-18.5 -21l-17.5 -18.5t-20.5 -19.5t-19.5 -18t-22 -20.5t-21.5 -19l-26 28l51 58q33 37 46 69.5t24 92.5l103 577l-79 13v31h258v-31z" />
    <glyph glyph-name="K" unicode="K" horiz-adv-x="643" 
d="M233 339l-53 -295l79 -13l-1 -31h-256v31l80 13l110 612l-79 13v31h253v-31l-76 -13l-48 -267h74l208 267l-62 13v31h214v-31l-75 -13l-233 -272l188 -345l47 -8v-31h-135l-182 339h-53z" />
    <glyph glyph-name="L" unicode="L" horiz-adv-x="538" 
d="M290 656l-108 -606l221 4l53 119h41l-39 -173h-456v31l80 13l110 612l-79 13v31h258v-31z" />
    <glyph glyph-name="M" unicode="M" horiz-adv-x="878" 
d="M224 512l-83 -464l78 -17v-31h-216v31l80 17l109 608l-79 13v31h198l101 -400l12 -69h3q14 30 36 66l249 403h184v-31l-81 -13l-109 -610l78 -15v-31h-252v31l82 15l83 469l23 111h-3q-29 -60 -54 -100l-267 -426h-20l-110 428l-23 102h-3q-2 -40 -16 -118z" />
    <glyph glyph-name="N" unicode="N" horiz-adv-x="739" 
d="M552 241l73 410l-77 18v31h218v-31l-83 -18l-115 -651l-40 -7l-265 498l-38 79l-3 -1q-3 -44 -12 -90l-76 -432l78 -16v-31h-216v31l80 16l105 592l-20 36v25l89 4l251 -473l35 -78l4 1q4 46 12 87z" />
    <glyph glyph-name="O" unicode="O" horiz-adv-x="698" 
d="M315 33q65 0 121.5 61t88 154.5t31.5 190.5q0 102 -38.5 165t-115.5 63q-65 0 -121.5 -61t-88 -154t-31.5 -191q0 -102 38.5 -165t115.5 -63zM306 -14q-118 0 -184.5 70t-66.5 188q0 77 23.5 158t66 151.5t112.5 115.5t154 45q118 0 184.5 -70t66.5 -188
q0 -77 -23.5 -158t-66 -151.5t-112.5 -115.5t-154 -45z" />
    <glyph glyph-name="P" unicode="P" horiz-adv-x="589" 
d="M222 277l-42 -233l100 -13v-31h-278v31l80 13l110 612l-79 13v31h246q111 0 171 -44t60 -129q0 -113 -84.5 -181.5t-211.5 -68.5h-72zM231 327h72q78 0 131.5 49.5t53.5 136.5q0 137 -152 137h-48z" />
    <glyph glyph-name="Q" unicode="Q" horiz-adv-x="698" 
d="M306 -14q-118 0 -184.5 70t-66.5 188q0 77 23.5 158t66 151.5t112.5 115.5t154 45q118 0 184.5 -70t66.5 -188q0 -85 -26 -172t-82 -163t-131 -110q28 -23 41 -44l55 -84q23 -36 44 -47t53 -11v-31h-60q-52 0 -83.5 14t-60.5 60l-75 120q-20 -2 -31 -2zM315 33
q65 0 121.5 61t88 154.5t31.5 190.5q0 102 -38.5 165t-115.5 63q-65 0 -121.5 -61t-88 -154t-31.5 -191q0 -102 38.5 -165t115.5 -63z" />
    <glyph glyph-name="R" unicode="R" horiz-adv-x="636" 
d="M225 295l-44 -251l99 -13v-31h-282v31l85 13l109 612l-78 13v31h246q231 0 231 -180q0 -82 -57 -135.5t-141 -72.5l165 -277l35 -6v-29h-124l-169 295h-75zM234 345h72q81 0 132.5 47t51.5 126q0 132 -153 132h-48z" />
    <glyph glyph-name="S" unicode="S" horiz-adv-x="513" 
d="M209 38q63 0 103.5 33.5t40.5 91.5t-26 91t-91 77q-72 50 -94 73q-48 50 -48 117q0 79 66 136t175 57q52 0 93 -11t56 -21l16 -11l-37 -141h-39v108q-46 24 -97 24q-64 0 -103.5 -33t-39.5 -87q0 -46 26 -75.5t95 -76.5q28 -19 41 -29t36 -30.5t33.5 -39t19.5 -46.5
t9 -60q0 -88 -62.5 -143.5t-180.5 -55.5q-51 0 -95.5 10t-63.5 20l-20 9l37 148h38v-120q46 -15 112 -15z" />
    <glyph glyph-name="T" unicode="T" horiz-adv-x="592" 
d="M95 700h544l-29 -170h-46v112l-157 9l-108 -607l79 -13l-1 -31h-258l1 31l81 13l108 607l-159 -9l-47 -112h-37z" />
    <glyph glyph-name="U" unicode="U" horiz-adv-x="698" 
d="M652 655l-66 -371q-9 -48 -19.5 -85t-32 -79.5t-50 -69.5t-74 -45.5t-104.5 -18.5q-125 0 -174 72.5t-26 204.5l71 393l-78 13v31h258v-31l-82 -14l-72 -404q-18 -100 9.5 -156t106.5 -56q88 0 131.5 56.5t62.5 165.5l71 394l-83 14v31h233v-31z" />
    <glyph glyph-name="V" unicode="V" horiz-adv-x="636" 
d="M227 656l71 -464l10 -89h4q11 39 33 86l170 356q12 26 22.5 53.5t14.5 42.5l5 15l-83 13v31h231v-31l-73 -13l-322 -657l-79 -6l-106 663l-71 13v31h243v-31z" />
    <glyph glyph-name="W" unicode="W" horiz-adv-x="920" 
d="M987 669l-67 -13q-60 -118 -96 -201l-197 -455l-91 -6l-36 461l-4 112h-4q-16 -58 -36 -110l-174 -457l-89 -6l-62 662l-75 13v31h259v-31l-85 -13l36 -434l4 -121h4q12 52 37 117l184 482l80 5l38 -492q2 -29 2.5 -58t0.5 -43l-1 -15h4q14 49 42 115l141 335
q11 26 20.5 53.5t13.5 41.5l4 14l-79 13v31h226v-31z" />
    <glyph glyph-name="X" unicode="X" horiz-adv-x="658" 
d="M435 44l-121 260q-17 -29 -51 -69l-92 -108q-15 -18 -28.5 -38t-19.5 -31l-6 -11l77 -16v-31h-232v31l69 16l260 296l-146 312l-69 14v31h265v-31l-88 -13l110 -251l53 68l81 100q15 19 27.5 38.5t17.5 29.5l5 10l-74 18v31h234v-31l-71 -15l-250 -289l153 -321l70 -13
v-31h-264v31z" />
    <glyph glyph-name="Y" unicode="Y" horiz-adv-x="609" 
d="M362 299l-46 -255l79 -13l-1 -31h-258l1 31l81 13l46 255l-146 357l-67 13v31h241v-31l-77 -13l89 -223l30 -88h4l58 90l95 141q12 18 22.5 37t14.5 29l4 10l-66 17v31h211v-31l-67 -15z" />
    <glyph glyph-name="Z" unicode="Z" horiz-adv-x="532" 
d="M188 640l-41 -109h-41l29 169h399v-25l-422 -624l267 9l48 113h38l-36 -173h-435v25l420 623z" />
    <glyph glyph-name="bracketleft" unicode="[" horiz-adv-x="299" 
d="M-2 -239l173 984h178l-9 -51h-100l-155 -882h100l-9 -51h-178z" />
    <glyph glyph-name="backslash" unicode="\" horiz-adv-x="447" 
d="M422 -174h-83l-261 874h82z" />
    <glyph glyph-name="bracketright" unicode="]" horiz-adv-x="300" 
d="M287 745l-173 -984h-177l9 51h99l155 882h-100l9 51h178z" />
    <glyph glyph-name="asciicircum" unicode="^" horiz-adv-x="467" 
d="M353 533l-120 139l-120 -139h-93l205 227h17l205 -227h-94z" />
    <glyph glyph-name="underscore" unicode="_" horiz-adv-x="506" 
d="M-54 -173v63h460v-63h-460z" />
    <glyph glyph-name="grave" unicode="`" horiz-adv-x="312" 
d="M241 610l-34 -23l-148 179l74 49z" />
    <glyph glyph-name="a" unicode="a" horiz-adv-x="562" 
d="M396 50l124 82v-49l-87 -58q-47 -32 -78 -32q-25 0 -41 20t-8 55l5 23l-66 -49q-62 -47 -113 -47q-42 0 -70.5 36.5t-28.5 108.5q0 150 82 260t193 110q68 0 114 -37l51 33l20 -5zM134 155q0 -91 42 -91q24 0 55 22l93 67l55 256q-24 59 -73 59q-70 0 -121 -100t-51 -213
z" />
    <glyph glyph-name="b" unicode="b" horiz-adv-x="536" 
d="M44 -10h-21l155 724l-81 8v31l165 15l20 -5l-76 -353l70 52q62 47 113 47q42 0 70.5 -36.5t28.5 -108.5q0 -150 -82 -260t-193 -110q-74 0 -123 43zM387 349q0 91 -42 91q-24 0 -55 -22l-97 -70l-54 -249q25 -63 76 -63q70 0 121 100t51 213z" />
    <glyph glyph-name="c" unicode="c" horiz-adv-x="432" 
d="M282 510q36 0 76 -10.5t50 -11.5l-26 -80q-27 7 -56 32t-52 25q-39 0 -71 -44.5t-48.5 -107t-16.5 -124.5q0 -139 71 -139q43 0 90 36l61 47v-51l-46 -35q-73 -57 -131 -57q-69 0 -107 51.5t-38 143.5q0 78 30.5 152t87.5 123.5t126 49.5z" />
    <glyph glyph-name="d" unicode="d" horiz-adv-x="573" 
d="M551 764l-152 -711l123 80v-49l-87 -58q-47 -32 -78 -32q-25 0 -41 20t-8 55l5 24l-68 -51q-62 -47 -113 -47q-42 0 -70.5 36.5t-28.5 108.5q0 150 82 260t193 110q48 0 90 -21l49 226l-81 8v31l165 15zM134 155q0 -91 42 -91q24 0 55 22l95 69l54 252q-24 61 -74 61
q-70 0 -121 -100t-51 -213z" />
    <glyph glyph-name="e" unicode="e" horiz-adv-x="461" 
d="M188 -10q-70 0 -110.5 50t-40.5 134q0 141 80.5 238.5t188.5 97.5q61 0 94.5 -29t33.5 -70q0 -96 -149 -147l-147 -50q-1 -10 -1 -28q0 -67 21.5 -101.5t55.5 -34.5q43 0 90 36l61 47v-51l-46 -35q-75 -58 -131 -57zM281 464q-50 0 -87 -59.5t-51 -143.5l73 28
q61 23 88 51.5t27 69.5q0 25 -14.5 39.5t-35.5 14.5z" />
    <glyph glyph-name="f" unicode="f" horiz-adv-x="384" 
d="M-9 0v31l80 11l84 413h-85v45h94l3 14q20 100 80 171t139 71q29 0 71 -8.5t58 -10.5l-19 -81q-29 4 -68 29.5t-60 25.5q-40 0 -63 -42.5t-42 -139.5l-6 -29h132v-45h-141l-84 -413l110 -11v-31h-283z" />
    <glyph glyph-name="g" unicode="g" horiz-adv-x="535" 
d="M160 -213q42 0 74.5 42.5t50.5 126.5l29 137l-69 -51q-62 -47 -113 -47q-42 0 -70.5 36.5t-28.5 108.5q0 150 82 260t193 110q70 0 119 -41l48 35l20 -5l-109 -504q-25 -114 -83 -184t-148 -70q-28 0 -56.5 5t-46.5 11l-50 17t-51 17l33 84q32 -12 88.5 -50t87.5 -38z
M134 155q0 -91 42 -91q24 0 55 22l96 69l53 252q-24 61 -74 61q-70 0 -121 -100t-51 -213z" />
    <glyph glyph-name="h" unicode="h" horiz-adv-x="559" 
d="M398 51l124 81v-49l-87 -58q-47 -32 -78 -32q-25 0 -40.5 19.5t-7.5 54.5l65 306q9 43 -11.5 59.5t-62.5 -9.5l-105 -68l-76 -355h-94l153 714l-81 8v31l165 15l20 -5l-75 -350l105 71q37 26 72 26q54 0 74 -41t7 -105z" />
    <glyph glyph-name="i" unicode="i" horiz-adv-x="326" 
d="M144 49l123 83v-49l-87 -58q-47 -32 -78 -32q-25 0 -41 20t-8 55l84 388l-81 8v31l165 15l20 -5zM209 601q-24 0 -39.5 16t-15.5 42t16.5 45.5t47.5 19.5q24 0 39.5 -16t15.5 -42t-16.5 -45.5t-47.5 -19.5z" />
    <glyph glyph-name="j" unicode="j" horiz-adv-x="281" 
d="M138 456l-81 8v31l165 15l20 -5l-109 -505q-23 -107 -81 -182t-144 -75q-29 0 -71 8.5t-58 10.5l20 81q29 -4 67.5 -28.5t59.5 -24.5q42 0 65 42.5t42 129.5zM210 601q-24 0 -39.5 16t-15.5 42t16.5 45.5t47.5 19.5q24 0 39.5 -16t15.5 -42t-16.5 -45.5t-47.5 -19.5z" />
    <glyph glyph-name="k" unicode="k" horiz-adv-x="516" 
d="M282 763l-163 -763h-94l153 714l-81 8v31l165 15zM291 20l-111 230v4q115 154 170 203.5t119 49.5l-26 -100q-39 0 -77.5 -23.5t-104.5 -96.5l108 -227l111 72v-51l-73 -48q-36 -23 -50 -30t-29 -7q-25 0 -37 24z" />
    <glyph glyph-name="l" unicode="l" horiz-adv-x="296" 
d="M130 50l124 82v-49l-87 -58q-47 -32 -78 -32q-25 0 -41 20t-8 55l139 646l-81 8v31l165 15l20 -5z" />
    <glyph glyph-name="m" unicode="m" horiz-adv-x="822" 
d="M661 52l123 80v-49l-87 -58q-47 -32 -78 -32q-25 0 -40.5 19.5t-7.5 54.5l61 289q12 59 -0.5 76.5t-57.5 -9.5l-106 -68l-74 -355h-93l75 356q12 59 -0.5 76.5t-57.5 -9.5l-108 -70l-75 -353h-94l97 456l-80 8v31l165 15l20 -5l-20 -92l105 71q37 26 72 26q80 0 76 -99
l108 73q37 26 72 26q37 0 56 -22t19.5 -56t-6.5 -75z" />
    <glyph glyph-name="n" unicode="n" horiz-adv-x="576" 
d="M414 51l124 81v-49l-87 -58q-47 -32 -78 -32q-25 0 -40.5 19.5t-7.5 54.5l65 306q10 47 -15.5 60.5t-58.5 -10.5l-105 -68l-76 -355h-94l97 456l-80 8v31l165 15l20 -5l-20 -92l105 71q37 26 72 26q53 0 74 -39.5t7 -106.5z" />
    <glyph glyph-name="o" unicode="o" horiz-adv-x="514" 
d="M289 468q-42 0 -73.5 -32.5t-47.5 -83t-24 -98.5t-8 -91q0 -131 76 -131q44 0 76.5 38t48 93.5t22 101t6.5 76.5q0 127 -76 127zM463 336q0 -58 -17 -117t-48.5 -111t-85 -85t-118.5 -33q-74 0 -116 46t-42 131q0 79 28.5 155.5t92 132t148.5 55.5q74 0 116 -46t42 -128z
" />
    <glyph glyph-name="p" unicode="p" horiz-adv-x="550" 
d="M-84 -250v31l79 11l144 664l-80 8v31l165 15l20 -5l-21 -94l107 72q39 27 74 27q99 0 99 -145q0 -150 -82.5 -262.5t-193.5 -112.5q-48 0 -90 22l-48 -220l110 -11v-31h-283zM402 360q0 81 -37 81q-16 0 -45 -18l-109 -70l-56 -255q13 -31 36 -48.5t48 -17.5
q43 0 81.5 52.5t60 128t21.5 147.5z" />
    <glyph glyph-name="q" unicode="q" horiz-adv-x="535" 
d="M139 -250v31l110 11l64 301l-68 -51q-62 -47 -113 -47q-42 0 -70.5 36.5t-28.5 108.5q0 150 82 260t193 110q70 0 119 -41l48 35l20 -5l-153 -707l80 -11v-31h-283zM134 155q0 -91 42 -91q24 0 55 22l96 69l53 252q-24 61 -74 61q-70 0 -121 -100t-51 -213z" />
    <glyph glyph-name="r" unicode="r" horiz-adv-x="427" 
d="M223 510l20 -5l-27 -127l52 71q45 61 83 61q17 0 30 -5.5t30 -17t33 -18.5l-42 -81q-24 9 -45.5 27t-31.5 18t-18 -6.5t-25 -28.5l-87 -117l-60 -281h-94l97 456l-80 8v31z" />
    <glyph glyph-name="s" unicode="s" horiz-adv-x="394" 
d="M216 466q-52 0 -52 -66q0 -30 24 -61.5t52 -56t52 -63.5t24 -82q0 -67 -44 -105.5t-118 -38.5q-36 0 -90 10.5t-66 11.5l20 81q27 -4 77.5 -29t78.5 -25q51 0 51 60q0 32 -15.5 60t-37.5 50.5l-44 45t-37.5 53t-15.5 65.5q0 55 44 94.5t114 39.5q34 0 74.5 -10t57.5 -11
l-19 -79q-28 4 -66 30t-64 26z" />
    <glyph glyph-name="t" unicode="t" horiz-adv-x="381" 
d="M238 500h131v-45h-141l-67 -320q-11 -51 10.5 -68t71.5 14l83 54v-52l-70 -48q-63 -43 -107 -43q-57 0 -75 43.5t-4 109.5l64 310h-84v45h93l19 90l76 42h28z" />
    <glyph glyph-name="u" unicode="u" horiz-adv-x="572" 
d="M215 510l20 -5l-81 -379q-8 -41 13 -56t66 12l100 64l77 354h94l-98 -448l123 80v-49l-87 -58q-47 -32 -78 -32q-25 0 -40.5 19.5t-7.5 54.5l4 21l-103 -70q-37 -26 -75 -26q-50 0 -71 39t-8 99l67 326l-80 8v31z" />
    <glyph glyph-name="v" unicode="v" horiz-adv-x="485" 
d="M326 495l128 13l21 -5q-37 -310 -261 -477l-35 -26h-40l-20 455l-82 9v31l152 15l20 -5l17 -414q142 147 170 365l-70 8v31z" />
    <glyph glyph-name="w" unicode="w" horiz-adv-x="735" 
d="M701 508l21 -5q-13 -154 -80.5 -277t-180.5 -201l-37 -25h-35l-7 300q-31 -77 -82.5 -153.5t-107.5 -124.5l-26 -22h-37l-10 455l-82 9v31l150 15l20 -5l9 -407q49 63 96.5 158.5t67.5 167.5l-1 31l-67 9v31l133 15l20 -5l10 -418q70 66 115 167t54 202l-71 8v31z" />
    <glyph glyph-name="x" unicode="x" horiz-adv-x="528" 
d="M185 510l20 -5l78 -193q66 104 114.5 149.5t100.5 45.5l-21 -102q-70 0 -175 -140l88 -218l82 -9v-31l-139 -15l-20 5l-83 204q-72 -114 -122.5 -162.5t-103.5 -48.5l21 102q74 0 186 155l-84 208l-82 9v31z" />
    <glyph glyph-name="y" unicode="y" horiz-adv-x="513" 
d="M183 510l20 -5l77 -451q52 88 88.5 200.5t40.5 200.5l-79 9v31l128 13l21 -5q0 -123 -58.5 -268t-132.5 -246q-41 -56 -76.5 -96t-87 -90t-67.5 -67l-56 64q34 35 106.5 83.5t99.5 73.5l-91 498l-82 9v31z" />
    <glyph glyph-name="z" unicode="z" horiz-adv-x="432" 
d="M104 366h-38l29 134h318v-21l-313 -406l194 7l22 55h38l-29 -135h-328v21l314 406l-185 -7z" />
    <glyph glyph-name="braceleft" unicode="{" horiz-adv-x="319" 
d="M143 412l36 185q15 74 51.5 111t101.5 37h54v-31h-29q-77 0 -100 -117l-34 -175q-19 -99 -108 -152q30 -14 45.5 -53.5t5.5 -91.5l-42 -216q-23 -117 54 -117h23l-1 -31h-59q-65 0 -87.5 37t-7.5 111l40 209q21 106 -3 137q-38 -13 -74 -16v35q59 12 90 41t44 97z" />
    <glyph glyph-name="bar" unicode="|" horiz-adv-x="261" 
d="M-7 -259l181 1024h78l-181 -1024h-78z" />
    <glyph glyph-name="braceright" unicode="}" horiz-adv-x="323" 
d="M165 94l-36 -185q-15 -74 -51.5 -111t-101.5 -37h-54v31h29q77 0 100 117l34 175q19 99 108 152q-30 14 -45.5 53.5t-5.5 91.5l42 216q23 117 -54 117h-23l1 31h59q65 0 87.5 -37t7.5 -111l-40 -209q-21 -106 3 -137q38 13 74 16v-35q-59 -12 -90 -41t-44 -97z" />
    <glyph glyph-name="asciitilde" unicode="~" horiz-adv-x="542" 
d="M370 307q26 0 48 17.5t35 49.5l30 -11q0 -55 -31.5 -93.5t-78.5 -38.5q-39 0 -96.5 32.5t-97.5 32.5q-60 0 -86 -67l-30 11q0 56 31.5 94t80.5 38q44 0 98.5 -32.5t96.5 -32.5z" />
    <glyph glyph-name="uni00A0" unicode="&#xa0;" horiz-adv-x="235" 
 />
    <glyph glyph-name="exclamdown" unicode="&#xa1;" horiz-adv-x="263" 
d="M162 292l-72 -501l-105 -5l124 506h53zM166 507q24 0 39.5 -16t15.5 -42t-16.5 -45.5t-47.5 -19.5q-24 0 -39.5 16t-15.5 42t16.5 45.5t47.5 19.5z" />
    <glyph glyph-name="cent" unicode="&#xa2;" horiz-adv-x="441" 
d="M342 620l-23 -113q17 -2 43.5 -9.5t43.5 -9.5l-26 -80q-27 7 -56 32t-52 25q-39 0 -71 -44.5t-48.5 -107t-16.5 -124.5q0 -139 71 -139q43 0 90 36l61 47v-51l-46 -35q-56 -45 -102 -54l-22 -107h-58l22 107q-56 10 -86 60t-30 132q0 116 64.5 214.5t160.5 108.5l23 112
h58z" />
    <glyph glyph-name="sterling" unicode="&#xa3;" horiz-adv-x="570" 
d="M241 479l-7 -133h179v-50h-181q-4 -93 -29 -150t-89 -90l300 16l36 108h42l-33 -180h-441v34q56 26 84 75.5t32 144.5l2 42h-80v50h82l6 111q7 128 81 193t195 65q31 0 65 -5t53 -10l18 -5l-31 -180h-39v128q-35 8 -87 8q-81 0 -117.5 -45t-40.5 -127z" />
    <glyph glyph-name="yen" unicode="&#xa5;" horiz-adv-x="703" 
d="M381 123l-14 -79l79 -13l-1 -31h-258l1 31l81 13l14 79h-118v60h129l14 81h-143v60h140l-136 332l-67 13v31h241v-31l-77 -13l89 -223l30 -88h4l58 90l95 141q12 18 22.5 37t14.5 29l4 10l-66 17v31h211v-31l-67 -15l-231 -330h106v-60h-130l-14 -81h144v-60h-155z" />
    <glyph glyph-name="brokenbar" unicode="&#xa6;" horiz-adv-x="252" 
d="M180 373h-78l76 392h78zM57 143h78l-78 -402h-77z" />
    <glyph glyph-name="section" unicode="&#xa7;" horiz-adv-x="497" 
d="M454 355q0 -40 -26 -71t-81 -69q23 -30 23 -70q0 -67 -57 -111t-155 -44q-42 0 -78.5 5t-51.5 10l-16 5l20 77q79 -43 157 -43q52 0 78.5 17.5t26.5 46.5t-23.5 52.5t-57.5 41.5l-68 37t-57.5 47.5t-23.5 63.5q0 40 26 71t80 68q-22 32 -22 71q0 67 57 111t155 44
q42 0 78.5 -5t51.5 -10l16 -5l-20 -77q-79 43 -157 43q-52 0 -78.5 -17.5t-26.5 -46.5t23.5 -52.5t57.5 -41.5l68 -37t57.5 -47.5t23.5 -63.5zM367 318q0 35 -29 59t-77.5 47t-70.5 43q-39 -33 -39 -80q0 -36 28.5 -59.5t77 -47t71.5 -43.5q39 33 39 81z" />
    <glyph glyph-name="dieresis" unicode="&#xa8;" horiz-adv-x="502" 
d="M149 621q-24 0 -39.5 16t-15.5 42t16.5 45.5t47.5 19.5q24 0 39.5 -16t15.5 -42t-16.5 -45.5t-47.5 -19.5zM342 621q-24 0 -39.5 16t-15.5 42t16.5 45.5t47.5 19.5q24 0 39.5 -16t15.5 -42t-16.5 -45.5t-47.5 -19.5z" />
    <glyph glyph-name="copyright" unicode="&#xa9;" horiz-adv-x="820" 
d="M350 -8q-140 0 -217.5 76.5t-77.5 212.5q0 117 54.5 216.5t155.5 159.5t226 60q140 0 217.5 -76.5t77.5 -212.5q0 -117 -54.5 -216.5t-155.5 -159.5t-226 -60zM359 38q141 0 240.5 111.5t99.5 278.5q0 106 -59.5 174.5t-157.5 68.5q-141 0 -240.5 -111.5t-99.5 -278.5
q0 -106 59.5 -174.5t157.5 -68.5zM502 513q-74 0 -118.5 -55t-44.5 -136q0 -52 24 -83.5t73 -31.5q24 0 49.5 5t38.5 10l14 5l-9 -43q-47 -25 -122 -25q-71 0 -111.5 40t-40.5 111q0 107 75 179t167 72q28 0 51.5 -4t33.5 -8l9 -4l-28 -130h-36v95q-24 3 -25 3z" />
    <glyph glyph-name="guillemotleft" unicode="&#xab;" horiz-adv-x="513" 
d="M19 240l6 29l57.5 47l51 41l37 30t36.5 31l28 26t31 31l20 -18q-33 -54 -71.5 -97.5t-102.5 -105.5q65 -88 108 -223l-28 -15q-71 115 -173 224zM229 240l6 29q99 80 138.5 114.5t84.5 81.5l21 -18q-65 -104 -157 -193q74 -101 104 -203l-26 -15q-28 45 -59 81.5
t-112 122.5z" />
    <glyph glyph-name="logicalnot" unicode="&#xac;" horiz-adv-x="611" 
d="M84 269v64h427v-195h-62v131h-365z" />
    <glyph glyph-name="registered" unicode="&#xae;" horiz-adv-x="501" 
d="M253 338q-77 0 -122.5 42.5t-45.5 109.5q0 94 67 159.5t174 65.5q77 0 122.5 -42.5t45.5 -109.5q0 -94 -67 -159.5t-174 -65.5zM259 373q68 0 120 50t52 139q0 59 -29.5 89t-81.5 30q-67 0 -119.5 -51t-52.5 -139q0 -59 29.5 -88.5t81.5 -29.5zM206 456l27 141l-32 6v20
h113q68 0 68 -51q0 -43 -48 -59l23 -58l21 -5v-17h-65l-24 64h-27l-13 -64h-68v19zM299 597h-18l-14 -75h20q44 0 44 42q0 33 -32 33z" />
    <glyph glyph-name="macron" unicode="&#xaf;" horiz-adv-x="364" 
d="M25 554v59h234v-59h-234z" />
    <glyph glyph-name="degree" unicode="&#xb0;" horiz-adv-x="410" 
d="M241 505q50 0 78.5 35t28.5 83q0 40 -18.5 62.5t-53.5 22.5q-50 0 -78.5 -35.5t-28.5 -83.5q0 -40 18.5 -62t53.5 -22zM226 452q-61 0 -94 34t-33 90q0 84 53 134t139 50q61 0 94 -34t33 -90q0 -84 -53 -134t-139 -50z" />
    <glyph glyph-name="plusminus" unicode="&#xb1;" horiz-adv-x="557" 
d="M86 313v64h176l28 144h70l-28 -144h165v-64h-178l-28 -143h-70l28 143h-163zM37 65v63h411v-63h-411z" />
    <glyph glyph-name="acute" unicode="&#xb4;" horiz-adv-x="294" 
d="M71 590l-23 34l173 153l52 -72z" />
    <glyph glyph-name="mu" unicode="&#xb5;" horiz-adv-x="536" 
d="M392 0l-99 -3l19 89l-104 -70q-37 -26 -72 -26q-22 0 -43 12q2 -120 -12 -185l-4 -19h-94l71 336l6 28l53 250l14 88h98l-78 -369q-10 -48 10.5 -61.5t63.5 14.5l105 68l75 348h94l-90 -423z" />
    <glyph glyph-name="paragraph" unicode="&#xb6;" horiz-adv-x="696" 
d="M40 181q0 144 99 231.5t261 87.5h241l-145 -751h-78l135 695h-88l-135 -695h-78l48 251h-26q-115 0 -174.5 47t-59.5 134zM313 64l73 379h-14q-108 0 -170.5 -70.5t-62.5 -175.5q0 -133 158 -133h16z" />
    <glyph glyph-name="periodcentered" unicode="&#xb7;" horiz-adv-x="258" 
d="M121 215q-24 0 -39.5 16t-15.5 42t16.5 45.5t47.5 19.5q24 0 39.5 -16t15.5 -42t-16.5 -45.5t-47.5 -19.5z" />
    <glyph glyph-name="cedilla" unicode="&#xb8;" horiz-adv-x="240" 
d="M133 -220q-32 0 -58 9.5t-37 18.5l-10 10l10 20q27 -15 64 -15q28 0 42 13t14 32q0 13 -14 20.5t-35 7.5q-19 0 -39 -6l-12 13l73 81h41l-51 -53q39 6 73 -8t34 -50q0 -45 -30 -69t-65 -24z" />
    <glyph glyph-name="guillemotright" unicode="&#xbb;" horiz-adv-x="514" 
d="M478 250l-6 -29l-57.5 -47l-51 -41l-37 -30t-36.5 -31l-28 -26t-31 -31l-20 18q33 54 71.5 97.5t102.5 105.5q-65 88 -108 223l28 15q71 -115 173 -224zM268 250l-6 -29q-99 -80 -138.5 -114.5t-84.5 -81.5l-21 18q65 104 157 193q-74 101 -104 203l26 15
q28 -45 59 -81.5t112 -122.5z" />
    <glyph glyph-name="onequarter" unicode="&#xbc;" horiz-adv-x="745" 
d="M672 129l-6 -42h-78l-9 -45l-8 -52h-69l18 97h-159v30l227 272l57 -8l-49 -253zM102 0l-49 40l568 669l50 -38zM104 661l147 45h18l-74 -382h-69l62 321l-79 -7zM525 251l-106 -123h109l22 115l15 61h-2q-19 -30 -38 -53z" />
    <glyph glyph-name="onehalf" unicode="&#xbd;" horiz-adv-x="765" 
d="M102 0l-49 40l568 669l50 -38zM408 0v26q120 93 165 150t45 108q0 58 -69 58q-19 0 -40 -5t-32 -11l-11 -5v26q4 5 13 12t38 19t61 12q48 0 77.5 -25t29.5 -66q0 -59 -42 -114.5t-150 -137.5l183 11l-3 -58h-265zM104 661l147 45h18l-74 -382h-69l62 321l-79 -7z" />
    <glyph glyph-name="threequarters" unicode="&#xbe;" horiz-adv-x="791" 
d="M719 129l-6 -42h-78l-9 -45l-8 -52h-69l18 97h-159v30l227 272l57 -8l-49 -253zM159 0l-49 40l568 669l50 -38zM151 513v28q50 0 81 21.5t31 53.5q0 51 -58 51q-20 0 -38.5 -3.5t-26.5 -7.5l-9 -3v25q41 32 107 32q48 0 73.5 -21.5t25.5 -54.5q0 -37 -27.5 -65.5
t-73.5 -38.5q35 -5 57.5 -25.5t22.5 -52.5q0 -58 -42.5 -95.5t-107.5 -37.5q-31 0 -58.5 9t-39.5 18l-12 9l10 21q33 -16 83 -16q41 0 68 25.5t27 66.5q0 32 -22.5 46.5t-70.5 14.5zM572 251l-106 -123h109l22 115l15 61h-2q-19 -30 -38 -53z" />
    <glyph glyph-name="questiondown" unicode="&#xbf;" horiz-adv-x="423" 
d="M195 -158q30 0 58.5 6t42.5 12l13 6v-40q-7 -5 -19.5 -12t-55.5 -19t-90 -12q-76 0 -114 37.5t-38 95.5q0 43 23.5 80t56.5 63.5l66 50.5t56.5 50.5t23.5 53.5q0 23 -18 29t-41 -10l-20 30q53 38 97 38q34 0 55.5 -20t21.5 -55q0 -39 -22.5 -72t-55 -57.5l-65 -48.5
t-55 -55.5t-22.5 -67.5q0 -83 102 -83zM259 509q24 0 39.5 -16t15.5 -42t-16.5 -45.5t-47.5 -19.5q-24 0 -39.5 16t-15.5 42t16.5 45.5t47.5 19.5z" />
    <glyph glyph-name="Agrave" unicode="&#xc0;" horiz-adv-x="631" 
d="M99 44l83 -13v-31h-231v31l73 13l321 657l83 6l95 -663l71 -13v-31h-243v31l70 13l-22 164h-233l-24 -53q-24 -52 -43 -111zM392 258l-34 256l-9 89h-4q-12 -39 -34 -86l-121 -259h202zM400 807l-34 -23l-148 179l74 49z" />
    <glyph glyph-name="Aacute" unicode="&#xc1;" horiz-adv-x="631" 
d="M99 44l83 -13v-31h-231v31l73 13l321 657l83 6l95 -663l71 -13v-31h-243v31l70 13l-22 164h-233l-24 -53q-24 -52 -43 -111zM392 258l-34 256l-9 89h-4q-12 -39 -34 -86l-121 -259h202zM356 777l-23 34l173 153l52 -72z" />
    <glyph glyph-name="Acircumflex" unicode="&#xc2;" horiz-adv-x="631" 
d="M99 44l83 -13v-31h-231v31l73 13l321 657l83 6l95 -663l71 -13v-31h-243v31l70 13l-22 164h-233l-24 -53q-24 -52 -43 -111zM392 258l-34 256l-9 89h-4q-12 -39 -34 -86l-121 -259h202zM261 778l-17 30l159 119h29l105 -124l-25 -24l-103 69z" />
    <glyph glyph-name="Atilde" unicode="&#xc3;" horiz-adv-x="631" 
d="M99 44l83 -13v-31h-231v31l73 13l321 657l83 6l95 -663l71 -13v-31h-243v31l70 13l-22 164h-233l-24 -53q-24 -52 -43 -111zM392 258l-34 256l-9 89h-4q-12 -39 -34 -86l-121 -259h202zM460 784q-38 0 -76 23t-61 23q-24 0 -39.5 -9.5t-36.5 -33.5l-36 10q39 104 113 104
q36 0 77.5 -23.5t64.5 -23.5q30 0 63 46l35 -13q-18 -49 -42 -76t-62 -27z" />
    <glyph glyph-name="Adieresis" unicode="&#xc4;" horiz-adv-x="631" 
d="M99 44l83 -13v-31h-231v31l73 13l321 657l83 6l95 -663l71 -13v-31h-243v31l70 13l-22 164h-233l-24 -53q-24 -52 -43 -111zM392 258l-34 256l-9 89h-4q-12 -39 -34 -86l-121 -259h202zM296 778q-24 0 -39.5 16t-15.5 42t16.5 45.5t47.5 19.5q24 0 39.5 -16t15.5 -42
t-16.5 -45.5t-47.5 -19.5zM489 778q-24 0 -39.5 16t-15.5 42t16.5 45.5t47.5 19.5q24 0 39.5 -16t15.5 -42t-16.5 -45.5t-47.5 -19.5z" />
    <glyph glyph-name="Aring" unicode="&#xc5;" horiz-adv-x="631" 
d="M99 44l83 -13v-31h-231v31l73 13l321 657l83 6l95 -663l71 -13v-31h-243v31l70 13l-22 164h-233l-24 -53q-24 -52 -43 -111zM392 258l-34 256l-9 89h-4q-12 -39 -34 -86l-121 -259h202zM385 764q-40 0 -65.5 20.5t-25.5 58.5q0 47 34 73t78 26q40 0 65.5 -20.5
t25.5 -58.5q0 -47 -34 -73t-78 -26zM389 800q24 0 41 16.5t17 41.5q0 22 -12 35t-33 13q-24 0 -41 -16.5t-17 -41.5q0 -22 12 -35t33 -13z" />
    <glyph glyph-name="AE" unicode="&#xc6;" horiz-adv-x="876" 
d="M547 333l-50 -283l220 4l53 119h41l-39 -173h-454l-1 31l80 13l28 159h-233l-34 -48q-64 -89 -71 -111l81 -13l-5 -31h-233l5 31l77 13l452 614l-63 11v31h485l-30 -170h-41l1 114l-213 6l-47 -267h195l-11 -61zM444 549l-216 -296h206l71 391q-35 -59 -61 -95z" />
    <glyph glyph-name="Ccedilla" unicode="&#xc7;" horiz-adv-x="592" 
d="M293 -207q-32 0 -58 9.5t-37 19.5l-10 9l10 20q27 -15 64 -15q28 0 42 13t14 32q0 13 -14 20.5t-35 7.5q-19 0 -39 -6l-12 13l65 73q-108 14 -168 88.5t-60 180.5q0 79 27.5 159.5t76.5 147t124 108t162 41.5q46 0 86.5 -10t58.5 -20l18 -10l-31 -144h-39l2 108
q-42 29 -105 29q-110 0 -192 -118t-82 -288q0 -100 50 -163.5t139 -63.5q27 0 70 13l50 126h42l-32 -148q-58 -39 -151 -39h-8l-40 -42q39 6 73 -8t34 -50q0 -45 -30 -69t-65 -24z" />
    <glyph glyph-name="Egrave" unicode="&#xc8;" horiz-adv-x="561" 
d="M232 333l-50 -283l220 4l53 119h41l-39 -173h-454l-1 31l80 13l110 612l-79 13v31h458l-30 -170h-41l1 114l-213 6l-47 -267h195l-11 -61zM420 801l-34 -23l-148 179l74 49z" />
    <glyph glyph-name="Eacute" unicode="&#xc9;" horiz-adv-x="561" 
d="M232 333l-50 -283l220 4l53 119h41l-39 -173h-454l-1 31l80 13l110 612l-79 13v31h458l-30 -170h-41l1 114l-213 6l-47 -267h195l-11 -61zM350 788l-23 34l173 153l52 -72z" />
    <glyph glyph-name="Ecircumflex" unicode="&#xca;" horiz-adv-x="561" 
d="M232 333l-50 -283l220 4l53 119h41l-39 -173h-454l-1 31l80 13l110 612l-79 13v31h458l-30 -170h-41l1 114l-213 6l-47 -267h195l-11 -61zM251 777l-17 30l159 119h29l105 -124l-25 -24l-103 69z" />
    <glyph glyph-name="Edieresis" unicode="&#xcb;" horiz-adv-x="561" 
d="M232 333l-50 -283l220 4l53 119h41l-39 -173h-454l-1 31l80 13l110 612l-79 13v31h458l-30 -170h-41l1 114l-213 6l-47 -267h195l-11 -61zM291 777q-24 0 -39.5 16t-15.5 42t16.5 45.5t47.5 19.5q24 0 39.5 -16t15.5 -42t-16.5 -45.5t-47.5 -19.5zM484 777
q-24 0 -39.5 16t-15.5 42t16.5 45.5t47.5 19.5q24 0 39.5 -16t15.5 -42t-16.5 -45.5t-47.5 -19.5z" />
    <glyph glyph-name="Igrave" unicode="&#xcc;" horiz-adv-x="353" 
d="M290 656l-110 -612l79 -13v-31h-257v31l80 13l110 612l-79 13v31h258v-31zM307 800l-34 -23l-148 179l74 49z" />
    <glyph glyph-name="Iacute" unicode="&#xcd;" horiz-adv-x="353" 
d="M290 656l-110 -612l79 -13v-31h-257v31l80 13l110 612l-79 13v31h258v-31zM253 778l-23 34l173 153l52 -72z" />
    <glyph glyph-name="Icircumflex" unicode="&#xce;" horiz-adv-x="353" 
d="M290 656l-110 -612l79 -13v-31h-257v31l80 13l110 612l-79 13v31h258v-31zM126 778l-17 30l159 119h29l105 -124l-25 -24l-103 69z" />
    <glyph glyph-name="Idieresis" unicode="&#xcf;" horiz-adv-x="353" 
d="M290 656l-110 -612l79 -13v-31h-257v31l80 13l110 612l-79 13v31h258v-31zM162 777q-24 0 -39.5 16t-15.5 42t16.5 45.5t47.5 19.5q24 0 39.5 -16t15.5 -42t-16.5 -45.5t-47.5 -19.5zM355 777q-24 0 -39.5 16t-15.5 42t16.5 45.5t47.5 19.5q24 0 39.5 -16t15.5 -42
t-16.5 -45.5t-47.5 -19.5z" />
    <glyph glyph-name="Eth" unicode="&#xd0;" horiz-adv-x="696" 
d="M35 306v54h107l54 296l-79 13v31h242q146 0 224 -73t78 -194q0 -185 -120.5 -309t-301.5 -124h-233v31l80 13l47 262h-98zM334 650h-42l-52 -290h129v-54h-138l-45 -256h70q126 0 213 105.5t87 263.5q0 110 -55.5 170.5t-166.5 60.5z" />
    <glyph glyph-name="Ntilde" unicode="&#xd1;" horiz-adv-x="739" 
d="M552 241l73 410l-77 18v31h218v-31l-83 -18l-115 -651l-40 -7l-265 498l-38 79l-3 -1q-3 -44 -12 -90l-76 -432l78 -16v-31h-216v31l80 16l105 592l-20 36v25l89 4l251 -473l35 -78l4 1q4 46 12 87zM537 785q-37 0 -76 23t-61 23q-24 0 -39.5 -9.5t-36.5 -33.5l-36 10
q39 104 113 104q36 0 77.5 -23.5t64.5 -23.5q30 0 63 46l35 -13q-18 -49 -42 -76t-62 -27z" />
    <glyph glyph-name="Ograve" unicode="&#xd2;" horiz-adv-x="698" 
d="M315 33q65 0 121.5 61t88 154.5t31.5 190.5q0 102 -38.5 165t-115.5 63q-65 0 -121.5 -61t-88 -154t-31.5 -191q0 -102 38.5 -165t115.5 -63zM306 -14q-118 0 -184.5 70t-66.5 188q0 77 23.5 158t66 151.5t112.5 115.5t154 45q118 0 184.5 -70t66.5 -188
q0 -77 -23.5 -158t-66 -151.5t-112.5 -115.5t-154 -45zM483 801l-34 -23l-148 179l74 49z" />
    <glyph glyph-name="Oacute" unicode="&#xd3;" horiz-adv-x="698" 
d="M315 33q65 0 121.5 61t88 154.5t31.5 190.5q0 102 -38.5 165t-115.5 63q-65 0 -121.5 -61t-88 -154t-31.5 -191q0 -102 38.5 -165t115.5 -63zM306 -14q-118 0 -184.5 70t-66.5 188q0 77 23.5 158t66 151.5t112.5 115.5t154 45q118 0 184.5 -70t66.5 -188
q0 -77 -23.5 -158t-66 -151.5t-112.5 -115.5t-154 -45zM434 778l-23 34l173 153l52 -72z" />
    <glyph glyph-name="Ocircumflex" unicode="&#xd4;" horiz-adv-x="698" 
d="M315 33q65 0 121.5 61t88 154.5t31.5 190.5q0 102 -38.5 165t-115.5 63q-65 0 -121.5 -61t-88 -154t-31.5 -191q0 -102 38.5 -165t115.5 -63zM306 -14q-118 0 -184.5 70t-66.5 188q0 77 23.5 158t66 151.5t112.5 115.5t154 45q118 0 184.5 -70t66.5 -188
q0 -77 -23.5 -158t-66 -151.5t-112.5 -115.5t-154 -45zM300 778l-17 30l159 119h29l105 -124l-25 -24l-103 69z" />
    <glyph glyph-name="Otilde" unicode="&#xd5;" horiz-adv-x="698" 
d="M315 33q65 0 121.5 61t88 154.5t31.5 190.5q0 102 -38.5 165t-115.5 63q-65 0 -121.5 -61t-88 -154t-31.5 -191q0 -102 38.5 -165t115.5 -63zM306 -14q-118 0 -184.5 70t-66.5 188q0 77 23.5 158t66 151.5t112.5 115.5t154 45q118 0 184.5 -70t66.5 -188
q0 -77 -23.5 -158t-66 -151.5t-112.5 -115.5t-154 -45zM513 789q-38 0 -76.5 23t-60.5 23q-24 0 -39.5 -9.5t-36.5 -33.5l-36 10q39 104 113 104q36 0 77.5 -23.5t64.5 -23.5q30 0 63 46l35 -13q-18 -49 -42 -76t-62 -27z" />
    <glyph glyph-name="Odieresis" unicode="&#xd6;" horiz-adv-x="698" 
d="M315 33q65 0 121.5 61t88 154.5t31.5 190.5q0 102 -38.5 165t-115.5 63q-65 0 -121.5 -61t-88 -154t-31.5 -191q0 -102 38.5 -165t115.5 -63zM306 -14q-118 0 -184.5 70t-66.5 188q0 77 23.5 158t66 151.5t112.5 115.5t154 45q118 0 184.5 -70t66.5 -188
q0 -77 -23.5 -158t-66 -151.5t-112.5 -115.5t-154 -45zM336 777q-24 0 -39.5 16t-15.5 42t16.5 45.5t47.5 19.5q24 0 39.5 -16t15.5 -42t-16.5 -45.5t-47.5 -19.5zM529 777q-24 0 -39.5 16t-15.5 42t16.5 45.5t47.5 19.5q24 0 39.5 -16t15.5 -42t-16.5 -45.5t-47.5 -19.5z
" />
    <glyph glyph-name="multiply" unicode="&#xd7;" 
d="M65 87l-39 49l178 153l-108 153l53 43l106 -152l176 152l41 -51l-180 -153l108 -152l-52 -41l-107 149z" />
    <glyph glyph-name="Oslash" unicode="&#xd8;" horiz-adv-x="698" 
d="M115 -58l-50 32l57 81q-67 69 -67 189q0 77 23.5 158t66 151.5t112.5 115.5t154 45q85 0 146 -39l53 75l50 -33l-57 -81q59 -70 59 -180q0 -77 -23.5 -158t-66 -151.5t-112.5 -115.5t-154 -45q-79 0 -137 33zM161 261q0 -70 18 -124l333 474q-40 56 -110 56
q-65 0 -121.5 -61t-88 -154t-31.5 -191zM315 33q65 0 121.5 61t88 154.5t31.5 190.5q0 59 -14 110l-331 -470q40 -46 104 -46z" />
    <glyph glyph-name="Ugrave" unicode="&#xd9;" horiz-adv-x="698" 
d="M652 655l-66 -371q-9 -48 -19.5 -85t-32 -79.5t-50 -69.5t-74 -45.5t-104.5 -18.5q-125 0 -174 72.5t-26 204.5l71 393l-78 13v31h258v-31l-82 -14l-72 -404q-18 -100 9.5 -156t106.5 -56q88 0 131.5 56.5t62.5 165.5l71 394l-83 14v31h233v-31zM455 801l-34 -23
l-148 179l74 49z" />
    <glyph glyph-name="Uacute" unicode="&#xda;" horiz-adv-x="698" 
d="M652 655l-66 -371q-9 -48 -19.5 -85t-32 -79.5t-50 -69.5t-74 -45.5t-104.5 -18.5q-125 0 -174 72.5t-26 204.5l71 393l-78 13v31h258v-31l-82 -14l-72 -404q-18 -100 9.5 -156t106.5 -56q88 0 131.5 56.5t62.5 165.5l71 394l-83 14v31h233v-31zM421 778l-23 34l173 153
l52 -72z" />
    <glyph glyph-name="Ucircumflex" unicode="&#xdb;" horiz-adv-x="698" 
d="M652 655l-66 -371q-9 -48 -19.5 -85t-32 -79.5t-50 -69.5t-74 -45.5t-104.5 -18.5q-125 0 -174 72.5t-26 204.5l71 393l-78 13v31h258v-31l-82 -14l-72 -404q-18 -100 9.5 -156t106.5 -56q88 0 131.5 56.5t62.5 165.5l71 394l-83 14v31h233v-31zM319 778l-17 30l159 119
h29l105 -124l-25 -24l-103 69z" />
    <glyph glyph-name="Udieresis" unicode="&#xdc;" horiz-adv-x="698" 
d="M652 655l-66 -371q-9 -48 -19.5 -85t-32 -79.5t-50 -69.5t-74 -45.5t-104.5 -18.5q-125 0 -174 72.5t-26 204.5l71 393l-78 13v31h258v-31l-82 -14l-72 -404q-18 -100 9.5 -156t106.5 -56q88 0 131.5 56.5t62.5 165.5l71 394l-83 14v31h233v-31zM347 778q-24 0 -39.5 16
t-15.5 42t16.5 45.5t47.5 19.5q24 0 39.5 -16t15.5 -42t-16.5 -45.5t-47.5 -19.5zM540 778q-24 0 -39.5 16t-15.5 42t16.5 45.5t47.5 19.5q24 0 39.5 -16t15.5 -42t-16.5 -45.5t-47.5 -19.5z" />
    <glyph glyph-name="Yacute" unicode="&#xdd;" horiz-adv-x="609" 
d="M362 299l-46 -255l79 -13l-1 -31h-258l1 31l81 13l46 255l-146 357l-67 13v31h241v-31l-77 -13l89 -223l30 -88h4l58 90l95 141q12 18 22.5 37t14.5 29l4 10l-66 17v31h211v-31l-67 -15zM381 786l-23 34l173 153l52 -72z" />
    <glyph glyph-name="Thorn" unicode="&#xde;" horiz-adv-x="587" 
d="M198 146l-18 -102l100 -13v-31h-278v31l80 13l110 612l-79 13v31h268v-31l-92 -13l-16 -87h61q110 0 170.5 -45.5t60.5 -127.5q0 -113 -84.5 -181.5t-211.5 -68.5h-71zM207 196h71q78 0 131.5 49.5t53.5 136.5q0 137 -152 137h-47z" />
    <glyph glyph-name="germandbls" unicode="&#xdf;" horiz-adv-x="652" 
d="M409 -10q-35 0 -87 9.5t-71 11.5l23 72q23 -2 75 -18t78 -16q39 0 62.5 19.5t23.5 50.5q0 23 -19 42t-46.5 34t-54.5 31.5t-46 44t-19 62.5q0 39 19.5 70t48 52l56.5 42t47.5 51t19.5 68q0 44 -27 69.5t-78 25.5q-68 0 -102.5 -37t-51.5 -115l-118 -559h-152v31l68 11
l87 414h-67v44h78l10 47q22 101 91 157t174 56q79 0 132.5 -38.5t53.5 -101.5q0 -38 -20.5 -70t-50 -53l-59 -41t-50 -45t-20.5 -53q0 -21 18.5 -38.5t44.5 -32t52 -32t44.5 -45.5t18.5 -65q0 -64 -57 -109.5t-129 -45.5z" />
    <glyph glyph-name="agrave" unicode="&#xe0;" horiz-adv-x="562" 
d="M396 50l124 82v-49l-87 -58q-47 -32 -78 -32q-25 0 -41 20t-8 55l5 23l-66 -49q-62 -47 -113 -47q-42 0 -70.5 36.5t-28.5 108.5q0 150 82 260t193 110q68 0 114 -37l51 33l20 -5zM134 155q0 -91 42 -91q24 0 55 22l93 67l55 256q-24 59 -73 59q-70 0 -121 -100t-51 -213
zM388 612l-34 -23l-148 179l74 49z" />
    <glyph glyph-name="aacute" unicode="&#xe1;" horiz-adv-x="562" 
d="M396 50l124 82v-49l-87 -58q-47 -32 -78 -32q-25 0 -41 20t-8 55l5 23l-66 -49q-62 -47 -113 -47q-42 0 -70.5 36.5t-28.5 108.5q0 150 82 260t193 110q68 0 114 -37l51 33l20 -5zM134 155q0 -91 42 -91q24 0 55 22l93 67l55 256q-24 59 -73 59q-70 0 -121 -100t-51 -213
zM311 590l-23 34l173 153l52 -72z" />
    <glyph glyph-name="acircumflex" unicode="&#xe2;" horiz-adv-x="562" 
d="M396 50l124 82v-49l-87 -58q-47 -32 -78 -32q-25 0 -41 20t-8 55l5 23l-66 -49q-62 -47 -113 -47q-42 0 -70.5 36.5t-28.5 108.5q0 150 82 260t193 110q68 0 114 -37l51 33l20 -5zM134 155q0 -91 42 -91q24 0 55 22l93 67l55 256q-24 59 -73 59q-70 0 -121 -100t-51 -213
zM218 590l-17 30l159 119h29l105 -124l-25 -24l-103 69z" />
    <glyph glyph-name="atilde" unicode="&#xe3;" horiz-adv-x="562" 
d="M396 50l124 82v-49l-87 -58q-47 -32 -78 -32q-25 0 -41 20t-8 55l5 23l-66 -49q-62 -47 -113 -47q-42 0 -70.5 36.5t-28.5 108.5q0 150 82 260t193 110q68 0 114 -37l51 33l20 -5zM134 155q0 -91 42 -91q24 0 55 22l93 67l55 256q-24 59 -73 59q-70 0 -121 -100t-51 -213
zM425 589q-37 0 -76 23t-61 23q-24 0 -39.5 -9.5t-36.5 -33.5l-36 10q39 104 113 104q36 0 77.5 -23.5t64.5 -23.5q30 0 63 46l35 -13q-18 -49 -42 -76t-62 -27z" />
    <glyph glyph-name="adieresis" unicode="&#xe4;" horiz-adv-x="562" 
d="M396 50l124 82v-49l-87 -58q-47 -32 -78 -32q-25 0 -41 20t-8 55l5 23l-66 -49q-62 -47 -113 -47q-42 0 -70.5 36.5t-28.5 108.5q0 150 82 260t193 110q68 0 114 -37l51 33l20 -5zM134 155q0 -91 42 -91q24 0 55 22l93 67l55 256q-24 59 -73 59q-70 0 -121 -100t-51 -213
zM264 584q-24 0 -39.5 16t-15.5 42t16.5 45.5t47.5 19.5q24 0 39.5 -16t15.5 -42t-16.5 -45.5t-47.5 -19.5zM457 584q-24 0 -39.5 16t-15.5 42t16.5 45.5t47.5 19.5q24 0 39.5 -16t15.5 -42t-16.5 -45.5t-47.5 -19.5z" />
    <glyph glyph-name="aring" unicode="&#xe5;" horiz-adv-x="562" 
d="M396 50l124 82v-49l-87 -58q-47 -32 -78 -32q-25 0 -41 20t-8 55l5 23l-66 -49q-62 -47 -113 -47q-42 0 -70.5 36.5t-28.5 108.5q0 150 82 260t193 110q68 0 114 -37l51 33l20 -5zM134 155q0 -91 42 -91q24 0 55 22l93 67l55 256q-24 59 -73 59q-70 0 -121 -100t-51 -213
zM344 589q-40 0 -65.5 20.5t-25.5 58.5q0 47 34 73t78 26q40 0 65.5 -20.5t25.5 -58.5q0 -47 -34 -73t-78 -26zM348 625q24 0 41 16.5t17 41.5q0 22 -12 35t-33 13q-24 0 -41 -16.5t-17 -41.5q0 -22 12 -35t33 -13z" />
    <glyph glyph-name="ae" unicode="&#xe6;" horiz-adv-x="762" 
d="M675 76l-67 -44q-64 -42 -114 -42q-60 0 -95.5 34t-45.5 93l-151 -100q-39 -27 -74 -27q-96 0 -96 145q0 98 37 185t100 138.5t136 51.5q60 0 107 -33l39 33l20 -5l-6 -44q55 49 119 49q68 0 105.5 -30.5t37.5 -76.5q0 -57 -76 -94l-216 -106v-22q0 -63 24 -95t62 -32
q29 0 63 21l91 58v-57zM130 150q0 -81 37 -81q16 0 45 18l110 70l52 239q-14 29 -36 45.5t-45 16.5q-44 0 -82 -47.5t-59.5 -118t-21.5 -142.5zM564 458q-47 0 -79.5 -57t-44.5 -141l131 65q50 24 50 78q0 24 -16 39.5t-41 15.5z" />
    <glyph glyph-name="ccedilla" unicode="&#xe7;" horiz-adv-x="434" 
d="M183 -200q-32 0 -58 9.5t-37 18.5l-10 10l10 20q27 -15 64 -15q28 0 42 13t14 32q0 13 -14 20.5t-35 7.5q-19 0 -39 -6l-12 13l61 68q-62 5 -96 56t-34 138q0 78 30.5 152t87.5 123.5t126 49.5q36 0 76 -10.5t50 -11.5l-26 -80q-27 7 -56 32t-52 25q-39 0 -71 -44.5
t-48.5 -107t-16.5 -124.5q0 -139 71 -139q43 0 90 36l61 47v-51l-46 -35q-60 -46 -104 -54l-40 -42q39 6 73 -8t34 -50q0 -45 -30 -69t-65 -24z" />
    <glyph glyph-name="egrave" unicode="&#xe8;" horiz-adv-x="461" 
d="M188 -10q-70 0 -110.5 50t-40.5 134q0 141 80.5 238.5t188.5 97.5q61 0 94.5 -29t33.5 -70q0 -96 -149 -147l-147 -50q-1 -10 -1 -28q0 -67 21.5 -101.5t55.5 -34.5q43 0 90 36l61 47v-51l-46 -35q-75 -58 -131 -57zM281 464q-50 0 -87 -59.5t-51 -143.5l73 28
q61 23 88 51.5t27 69.5q0 25 -14.5 39.5t-35.5 14.5zM329 612l-34 -23l-148 179l74 49z" />
    <glyph glyph-name="eacute" unicode="&#xe9;" horiz-adv-x="461" 
d="M188 -10q-70 0 -110.5 50t-40.5 134q0 141 80.5 238.5t188.5 97.5q61 0 94.5 -29t33.5 -70q0 -96 -149 -147l-147 -50q-1 -10 -1 -28q0 -67 21.5 -101.5t55.5 -34.5q43 0 90 36l61 47v-51l-46 -35q-75 -58 -131 -57zM281 464q-50 0 -87 -59.5t-51 -143.5l73 28
q61 23 88 51.5t27 69.5q0 25 -14.5 39.5t-35.5 14.5zM244 589l-23 34l173 153l52 -72z" />
    <glyph glyph-name="ecircumflex" unicode="&#xea;" horiz-adv-x="461" 
d="M188 -10q-70 0 -110.5 50t-40.5 134q0 141 80.5 238.5t188.5 97.5q61 0 94.5 -29t33.5 -70q0 -96 -149 -147l-147 -50q-1 -10 -1 -28q0 -67 21.5 -101.5t55.5 -34.5q43 0 90 36l61 47v-51l-46 -35q-75 -58 -131 -57zM281 464q-50 0 -87 -59.5t-51 -143.5l73 28
q61 23 88 51.5t27 69.5q0 25 -14.5 39.5t-35.5 14.5zM150 590l-17 30l159 119h29l105 -124l-25 -24l-103 69z" />
    <glyph glyph-name="edieresis" unicode="&#xeb;" horiz-adv-x="461" 
d="M188 -10q-70 0 -110.5 50t-40.5 134q0 141 80.5 238.5t188.5 97.5q61 0 94.5 -29t33.5 -70q0 -96 -149 -147l-147 -50q-1 -10 -1 -28q0 -67 21.5 -101.5t55.5 -34.5q43 0 90 36l61 47v-51l-46 -35q-75 -58 -131 -57zM281 464q-50 0 -87 -59.5t-51 -143.5l73 28
q61 23 88 51.5t27 69.5q0 25 -14.5 39.5t-35.5 14.5zM183 590q-24 0 -39.5 16t-15.5 42t16.5 45.5t47.5 19.5q24 0 39.5 -16t15.5 -42t-16.5 -45.5t-47.5 -19.5zM376 590q-24 0 -39.5 16t-15.5 42t16.5 45.5t47.5 19.5q24 0 39.5 -16t15.5 -42t-16.5 -45.5t-47.5 -19.5z" />
    <glyph glyph-name="igrave" unicode="&#xec;" horiz-adv-x="326" 
d="M144 51l123 81v-49l-87 -58q-47 -32 -78 -32q-25 0 -41 20t-8 55l84 388l-81 8v31l165 15l20 -5zM238 613l-34 -23l-148 179l74 49z" />
    <glyph glyph-name="iacute" unicode="&#xed;" horiz-adv-x="326" 
d="M144 51l123 81v-49l-87 -58q-47 -32 -78 -32q-25 0 -41 20t-8 55l84 388l-81 8v31l165 15l20 -5zM151 590l-23 34l173 153l52 -72z" />
    <glyph glyph-name="icircumflex" unicode="&#xee;" horiz-adv-x="326" 
d="M144 51l123 81v-49l-87 -58q-47 -32 -78 -32q-25 0 -41 20t-8 55l84 388l-81 8v31l165 15l20 -5zM55 589l-17 30l159 119h29l105 -124l-25 -24l-103 69z" />
    <glyph glyph-name="idieresis" unicode="&#xef;" horiz-adv-x="326" 
d="M144 51l123 81v-49l-87 -58q-47 -32 -78 -32q-25 0 -41 20t-8 55l84 388l-81 8v31l165 15l20 -5zM85 590q-24 0 -39.5 16t-15.5 42t16.5 45.5t47.5 19.5q24 0 39.5 -16t15.5 -42t-16.5 -45.5t-47.5 -19.5zM278 590q-24 0 -39.5 16t-15.5 42t16.5 45.5t47.5 19.5
q24 0 39.5 -16t15.5 -42t-16.5 -45.5t-47.5 -19.5z" />
    <glyph glyph-name="eth" unicode="&#xf0;" horiz-adv-x="526" 
d="M216 546l-31 38l111 85q-35 43 -86 71l12 22q64 -19 112 -64l102 78l29 -39l-97 -74q47 -58 72 -134.5t25 -154.5q0 -76 -15.5 -143t-47 -122t-84.5 -87t-122 -32q-76 0 -117 47.5t-41 137.5q0 77 27 148t82 119t127 48q66 0 102 -54q-10 117 -52 193zM365 299
q0 69 -24 106t-68 37q-33 0 -60.5 -28t-43.5 -71t-24.5 -88.5t-8.5 -86.5q0 -136 74 -136t114.5 78.5t40.5 188.5z" />
    <glyph glyph-name="ntilde" unicode="&#xf1;" horiz-adv-x="576" 
d="M414 51l124 81v-49l-87 -58q-47 -32 -78 -32q-25 0 -40.5 19.5t-7.5 54.5l65 306q10 47 -15.5 60.5t-58.5 -10.5l-105 -68l-76 -355h-94l97 456l-80 8v31l165 15l20 -5l-20 -92l105 71q37 26 72 26q53 0 74 -39.5t7 -106.5zM411 590q-37 0 -76 23t-61 23
q-24 0 -39.5 -9.5t-36.5 -33.5l-36 10q39 104 113 104q36 0 77.5 -23.5t64.5 -23.5q30 0 63 46l35 -13q-18 -49 -42 -76t-62 -27z" />
    <glyph glyph-name="ograve" unicode="&#xf2;" horiz-adv-x="514" 
d="M289 468q-42 0 -73.5 -32.5t-47.5 -83t-24 -98.5t-8 -91q0 -131 76 -131q44 0 76.5 38t48 93.5t22 101t6.5 76.5q0 127 -76 127zM463 336q0 -58 -17 -117t-48.5 -111t-85 -85t-118.5 -33q-74 0 -116 46t-42 131q0 79 28.5 155.5t92 132t148.5 55.5q74 0 116 -46t42 -128z
M353 612l-34 -23l-148 179l74 49z" />
    <glyph glyph-name="oacute" unicode="&#xf3;" horiz-adv-x="514" 
d="M289 468q-42 0 -73.5 -32.5t-47.5 -83t-24 -98.5t-8 -91q0 -131 76 -131q44 0 76.5 38t48 93.5t22 101t6.5 76.5q0 127 -76 127zM463 336q0 -58 -17 -117t-48.5 -111t-85 -85t-118.5 -33q-74 0 -116 46t-42 131q0 79 28.5 155.5t92 132t148.5 55.5q74 0 116 -46t42 -128z
M274 590l-23 34l173 153l52 -72z" />
    <glyph glyph-name="ocircumflex" unicode="&#xf4;" horiz-adv-x="514" 
d="M289 468q-42 0 -73.5 -32.5t-47.5 -83t-24 -98.5t-8 -91q0 -131 76 -131q44 0 76.5 38t48 93.5t22 101t6.5 76.5q0 127 -76 127zM463 336q0 -58 -17 -117t-48.5 -111t-85 -85t-118.5 -33q-74 0 -116 46t-42 131q0 79 28.5 155.5t92 132t148.5 55.5q74 0 116 -46t42 -128z
M172 589l-17 30l159 119h29l105 -124l-25 -24l-103 69z" />
    <glyph glyph-name="otilde" unicode="&#xf5;" horiz-adv-x="514" 
d="M289 468q-42 0 -73.5 -32.5t-47.5 -83t-24 -98.5t-8 -91q0 -131 76 -131q44 0 76.5 38t48 93.5t22 101t6.5 76.5q0 127 -76 127zM463 336q0 -58 -17 -117t-48.5 -111t-85 -85t-118.5 -33q-74 0 -116 46t-42 131q0 79 28.5 155.5t92 132t148.5 55.5q74 0 116 -46t42 -128z
M382 590q-38 0 -76 23t-61 23q-24 0 -39.5 -9.5t-36.5 -33.5l-36 10q39 104 113 104q36 0 77.5 -23.5t64.5 -23.5q30 0 63 46l35 -13q-18 -49 -42 -76t-62 -27z" />
    <glyph glyph-name="odieresis" unicode="&#xf6;" horiz-adv-x="514" 
d="M289 468q-42 0 -73.5 -32.5t-47.5 -83t-24 -98.5t-8 -91q0 -131 76 -131q44 0 76.5 38t48 93.5t22 101t6.5 76.5q0 127 -76 127zM463 336q0 -58 -17 -117t-48.5 -111t-85 -85t-118.5 -33q-74 0 -116 46t-42 131q0 79 28.5 155.5t92 132t148.5 55.5q74 0 116 -46t42 -128z
M201 584q-24 0 -39.5 16t-15.5 42t16.5 45.5t47.5 19.5q24 0 39.5 -16t15.5 -42t-16.5 -45.5t-47.5 -19.5zM394 584q-24 0 -39.5 16t-15.5 42t16.5 45.5t47.5 19.5q24 0 39.5 -16t15.5 -42t-16.5 -45.5t-47.5 -19.5z" />
    <glyph glyph-name="divide" unicode="&#xf7;" horiz-adv-x="547" 
d="M60 253v64h421v-64h-421zM228 48q-24 0 -39.5 16t-15.5 42t16.5 45.5t47.5 19.5q24 0 39.5 -16t15.5 -42t-16.5 -45.5t-47.5 -19.5zM290 402q-24 0 -39.5 16t-15.5 42t16.5 45.5t47.5 19.5q24 0 39.5 -16t15.5 -42t-16.5 -45.5t-47.5 -19.5z" />
    <glyph glyph-name="oslash" unicode="&#xf8;" horiz-adv-x="514" 
d="M62 -60l-50 32l56 77q-32 44 -32 118q0 79 28.5 155.5t92 132t148.5 55.5q47 0 82 -20l49 67l50 -33l-54 -74q31 -45 31 -114q0 -58 -17 -117t-48.5 -111t-85 -85t-118.5 -33q-46 0 -82 19zM289 468q-42 0 -73.5 -32.5t-47.5 -83t-24 -98.5t-8 -91v-20l211 291
q-21 34 -58 34zM365 341v16l-211 -290q18 -35 58 -35q44 0 76.5 38t48 93.5t22 101t6.5 76.5z" />
    <glyph glyph-name="ugrave" unicode="&#xf9;" horiz-adv-x="572" 
d="M215 510l20 -5l-81 -379q-8 -41 13 -56t66 12l100 64l77 354h94l-98 -448l123 80v-49l-87 -58q-47 -32 -78 -32q-25 0 -40.5 19.5t-7.5 54.5l4 21l-103 -70q-37 -26 -75 -26q-50 0 -71 39t-8 99l67 326l-80 8v31zM352 612l-34 -23l-148 179l74 49z" />
    <glyph glyph-name="uacute" unicode="&#xfa;" horiz-adv-x="572" 
d="M215 510l20 -5l-81 -379q-8 -41 13 -56t66 12l100 64l77 354h94l-98 -448l123 80v-49l-87 -58q-47 -32 -78 -32q-25 0 -40.5 19.5t-7.5 54.5l4 21l-103 -70q-37 -26 -75 -26q-50 0 -71 39t-8 99l67 326l-80 8v31zM311 589l-23 34l173 153l52 -72z" />
    <glyph glyph-name="ucircumflex" unicode="&#xfb;" horiz-adv-x="572" 
d="M215 510l20 -5l-81 -379q-8 -41 13 -56t66 12l100 64l77 354h94l-98 -448l123 80v-49l-87 -58q-47 -32 -78 -32q-25 0 -40.5 19.5t-7.5 54.5l4 21l-103 -70q-37 -26 -75 -26q-50 0 -71 39t-8 99l67 326l-80 8v31zM182 589l-17 30l159 119h29l105 -124l-25 -24l-103 69z
" />
    <glyph glyph-name="udieresis" unicode="&#xfc;" horiz-adv-x="572" 
d="M215 510l20 -5l-81 -379q-8 -41 13 -56t66 12l100 64l77 354h94l-98 -448l123 80v-49l-87 -58q-47 -32 -78 -32q-25 0 -40.5 19.5t-7.5 54.5l4 21l-103 -70q-37 -26 -75 -26q-50 0 -71 39t-8 99l67 326l-80 8v31zM223 590q-24 0 -39.5 16t-15.5 42t16.5 45.5t47.5 19.5
q24 0 39.5 -16t15.5 -42t-16.5 -45.5t-47.5 -19.5zM416 590q-24 0 -39.5 16t-15.5 42t16.5 45.5t47.5 19.5q24 0 39.5 -16t15.5 -42t-16.5 -45.5t-47.5 -19.5z" />
    <glyph glyph-name="yacute" unicode="&#xfd;" horiz-adv-x="513" 
d="M183 510l20 -5l77 -451q52 88 88.5 200.5t40.5 200.5l-79 9v31l128 13l21 -5q0 -123 -58.5 -268t-132.5 -246q-41 -56 -76.5 -96t-87 -90t-67.5 -67l-56 64q34 35 106.5 83.5t99.5 73.5l-91 498l-82 9v31zM286 590l-23 34l173 153l52 -72z" />
    <glyph glyph-name="thorn" unicode="&#xfe;" horiz-adv-x="534" 
d="M-100 -250v31l79 11l198 912l-80 8v31l165 15l20 -5l-75 -342l107 72q39 27 74 27q99 0 99 -145q0 -150 -82.5 -262.5t-193.5 -112.5q-48 0 -90 22l-48 -220l110 -11v-31h-283zM386 360q0 81 -37 81q-16 0 -45 -18l-109 -70l-56 -255q13 -31 36 -48.5t48 -17.5
q43 0 81.5 52.5t60 128t21.5 147.5z" />
    <glyph glyph-name="ydieresis" unicode="&#xff;" horiz-adv-x="513" 
d="M183 510l20 -5l77 -451q52 88 88.5 200.5t40.5 200.5l-79 9v31l128 13l21 -5q0 -123 -58.5 -268t-132.5 -246q-41 -56 -76.5 -96t-87 -90t-67.5 -67l-56 64q34 35 106.5 83.5t99.5 73.5l-91 498l-82 9v31zM191 589q-24 0 -39.5 16t-15.5 42t16.5 45.5t47.5 19.5
q24 0 39.5 -16t15.5 -42t-16.5 -45.5t-47.5 -19.5zM384 589q-24 0 -39.5 16t-15.5 42t16.5 45.5t47.5 19.5q24 0 39.5 -16t15.5 -42t-16.5 -45.5t-47.5 -19.5z" />
    <glyph glyph-name="Amacron" unicode="&#x100;" horiz-adv-x="631" 
d="M99 44l83 -13v-31h-231v31l73 13l321 657l83 6l95 -663l71 -13v-31h-243v31l70 13l-22 164h-233l-24 -53q-24 -52 -43 -111zM392 258l-34 256l-9 89h-4q-12 -39 -34 -86l-121 -259h202zM266 801v59h234v-59h-234z" />
    <glyph glyph-name="amacron" unicode="&#x101;" horiz-adv-x="562" 
d="M396 50l124 82v-49l-87 -58q-47 -32 -78 -32q-25 0 -41 20t-8 55l5 23l-66 -49q-62 -47 -113 -47q-42 0 -70.5 36.5t-28.5 108.5q0 150 82 260t193 110q68 0 114 -37l51 33l20 -5zM134 155q0 -91 42 -91q24 0 55 22l93 67l55 256q-24 59 -73 59q-70 0 -121 -100t-51 -213
zM230 602v59h234v-59h-234z" />
    <glyph glyph-name="Abreve" unicode="&#x102;" horiz-adv-x="631" 
d="M99 44l83 -13v-31h-231v31l73 13l321 657l83 6l95 -663l71 -13v-31h-243v31l70 13l-22 164h-233l-24 -53q-24 -52 -43 -111zM392 258l-34 256l-9 89h-4q-12 -39 -34 -86l-121 -259h202zM383 788q-57 0 -87 37.5t-21 108.5l26 6q6 -39 31.5 -61t65.5 -22q38 0 74.5 22.5
t58.5 60.5l22 -6q-20 -67 -64.5 -106.5t-105.5 -39.5z" />
    <glyph glyph-name="abreve" unicode="&#x103;" horiz-adv-x="562" 
d="M396 50l124 82v-49l-87 -58q-47 -32 -78 -32q-25 0 -41 20t-8 55l5 23l-66 -49q-62 -47 -113 -47q-42 0 -70.5 36.5t-28.5 108.5q0 150 82 260t193 110q68 0 114 -37l51 33l20 -5zM134 155q0 -91 42 -91q24 0 55 22l93 67l55 256q-24 59 -73 59q-70 0 -121 -100t-51 -213
zM334 589q-57 0 -87 37.5t-21 108.5l26 6q6 -39 31.5 -61t65.5 -22q38 0 74.5 22.5t58.5 60.5l22 -6q-20 -67 -64.5 -106.5t-105.5 -39.5z" />
    <glyph glyph-name="Aogonek" unicode="&#x104;" horiz-adv-x="631" 
d="M438 -193q-38 0 -64.5 17.5t-26.5 52.5q0 52 57 94q25 19 63 29h-116v31l70 13l-22 164h-233l-24 -53q-24 -52 -43 -111l83 -13v-31h-231v31l73 13l321 657l83 6l95 -663l71 -13v-31h-75q-44 -22 -59 -36q-34 -27 -34 -62q0 -51 57 -51q16 0 34.5 4t29.5 8l11 4v-26
q-61 -34 -120 -34zM392 258l-34 256l-9 89h-4q-12 -39 -34 -86l-121 -259h202z" />
    <glyph glyph-name="aogonek" unicode="&#x105;" horiz-adv-x="562" 
d="M327 -183q-38 0 -64.5 17.5t-26.5 52.5q0 52 57 94q19 14 35 19q-33 20 -22 68l5 23l-66 -49q-62 -47 -113 -47q-42 0 -70.5 36.5t-28.5 108.5q0 150 82 260t193 110q68 0 114 -37l51 33l20 -5l-97 -451l124 82v-49l-87 -58q-31 -22 -48 -27q-26 -14 -36 -24
q-34 -27 -34 -62q0 -51 57 -51q16 0 35 4t29 8l11 4v-26q-61 -34 -120 -34zM134 155q0 -91 42 -91q24 0 55 22l93 67l55 256q-24 59 -73 59q-70 0 -121 -100t-51 -213z" />
    <glyph glyph-name="Cacute" unicode="&#x106;" horiz-adv-x="592" 
d="M435 667q-110 0 -192 -118t-82 -288q0 -100 50 -163.5t139 -63.5q27 0 70 13l50 126h42l-32 -148q-58 -39 -151 -39q-129 0 -201.5 77.5t-72.5 194.5q0 79 27.5 159.5t76.5 147t124 108t162 41.5q46 0 86.5 -10t58.5 -20l18 -10l-31 -144h-39l2 108q-42 29 -105 29z
M418 785l-23 34l173 153l52 -72z" />
    <glyph glyph-name="cacute" unicode="&#x107;" horiz-adv-x="432" 
d="M282 510q36 0 76 -10.5t50 -11.5l-26 -80q-27 7 -56 32t-52 25q-39 0 -71 -44.5t-48.5 -107t-16.5 -124.5q0 -139 71 -139q43 0 90 36l61 47v-51l-46 -35q-73 -57 -131 -57q-69 0 -107 51.5t-38 143.5q0 78 30.5 152t87.5 123.5t126 49.5zM254 589l-23 34l173 153l52 -72
z" />
    <glyph glyph-name="Ccircumflex" unicode="&#x108;" horiz-adv-x="592" 
d="M435 667q-110 0 -192 -118t-82 -288q0 -100 50 -163.5t139 -63.5q27 0 70 13l50 126h42l-32 -148q-58 -39 -151 -39q-129 0 -201.5 77.5t-72.5 194.5q0 79 27.5 159.5t76.5 147t124 108t162 41.5q46 0 86.5 -10t58.5 -20l18 -10l-31 -144h-39l2 108q-42 29 -105 29z
M317 778l-17 30l159 119h29l105 -124l-25 -24l-103 69z" />
    <glyph glyph-name="ccircumflex" unicode="&#x109;" horiz-adv-x="432" 
d="M282 510q36 0 76 -10.5t50 -11.5l-26 -80q-27 7 -56 32t-52 25q-39 0 -71 -44.5t-48.5 -107t-16.5 -124.5q0 -139 71 -139q43 0 90 36l61 47v-51l-46 -35q-73 -57 -131 -57q-69 0 -107 51.5t-38 143.5q0 78 30.5 152t87.5 123.5t126 49.5zM172 589l-17 30l159 119h29
l105 -124l-25 -24l-103 69z" />
    <glyph glyph-name="Cdotaccent" unicode="&#x10a;" horiz-adv-x="592" 
d="M435 667q-110 0 -192 -118t-82 -288q0 -100 50 -163.5t139 -63.5q27 0 70 13l50 126h42l-32 -148q-58 -39 -151 -39q-129 0 -201.5 77.5t-72.5 194.5q0 79 27.5 159.5t76.5 147t124 108t162 41.5q46 0 86.5 -10t58.5 -20l18 -10l-31 -144h-39l2 108q-42 29 -105 29z
M438 777q-24 0 -39.5 16t-15.5 42t16.5 45.5t47.5 19.5q24 0 39.5 -16t15.5 -42t-16.5 -45.5t-47.5 -19.5z" />
    <glyph glyph-name="cdotaccent" unicode="&#x10b;" horiz-adv-x="432" 
d="M282 510q36 0 76 -10.5t50 -11.5l-26 -80q-27 7 -56 32t-52 25q-39 0 -71 -44.5t-48.5 -107t-16.5 -124.5q0 -139 71 -139q43 0 90 36l61 47v-51l-46 -35q-73 -57 -131 -57q-69 0 -107 51.5t-38 143.5q0 78 30.5 152t87.5 123.5t126 49.5zM315 589q-24 0 -39.5 16
t-15.5 42t16.5 45.5t47.5 19.5q24 0 39.5 -16t15.5 -42t-16.5 -45.5t-47.5 -19.5z" />
    <glyph glyph-name="Ccaron" unicode="&#x10c;" horiz-adv-x="592" 
d="M435 667q-110 0 -192 -118t-82 -288q0 -100 50 -163.5t139 -63.5q27 0 70 13l50 126h42l-32 -148q-58 -39 -151 -39q-129 0 -201.5 77.5t-72.5 194.5q0 79 27.5 159.5t76.5 147t124 108t162 41.5q46 0 86.5 -10t58.5 -20l18 -10l-31 -144h-39l2 108q-42 29 -105 29z
M599 935l17 -30l-159 -119h-29l-105 124l25 24l103 -70z" />
    <glyph glyph-name="ccaron" unicode="&#x10d;" horiz-adv-x="432" 
d="M282 510q36 0 76 -10.5t50 -11.5l-26 -80q-27 7 -56 32t-52 25q-39 0 -71 -44.5t-48.5 -107t-16.5 -124.5q0 -139 71 -139q43 0 90 36l61 47v-51l-46 -35q-73 -57 -131 -57q-69 0 -107 51.5t-38 143.5q0 78 30.5 152t87.5 123.5t126 49.5zM444 738l17 -30l-159 -119h-29
l-105 124l25 24l103 -70z" />
    <glyph glyph-name="Dcaron" unicode="&#x10e;" horiz-adv-x="692" 
d="M330 650h-42l-106 -600h70q126 0 213 105.5t87 263.5q0 110 -55.5 170.5t-166.5 60.5zM235 0h-233v31l80 13l110 612l-79 13v31h242q146 0 224 -73t78 -194q0 -185 -120.5 -309t-301.5 -124zM525 934l17 -30l-159 -119h-29l-105 124l25 24l103 -70z" />
    <glyph glyph-name="dcaron" unicode="&#x10f;" horiz-adv-x="582" 
d="M551 764l-152 -711l123 80v-49l-87 -58q-47 -32 -78 -32q-25 0 -41 20t-8 55l5 24l-68 -51q-62 -47 -113 -47q-42 0 -70.5 36.5t-28.5 108.5q0 150 82 260t193 110q48 0 90 -21l49 226l-81 8v31l165 15zM134 155q0 -91 42 -91q24 0 55 22l95 69l54 252q-24 61 -74 61
q-70 0 -121 -100t-51 -213zM590 513l-19 31q78 43 103 108q-13 -4 -26 -4q-20 0 -32.5 13.5t-12.5 35.5q0 31 21 50.5t53 19.5q26 0 41 -16t15 -47q0 -54 -41.5 -107.5t-101.5 -83.5z" />
    <glyph glyph-name="Dcroat" unicode="&#x110;" horiz-adv-x="696" 
d="M35 306v54h107l54 296l-79 13v31h242q146 0 224 -73t78 -194q0 -185 -120.5 -309t-301.5 -124h-233v31l80 13l47 262h-98zM334 650h-42l-52 -290h129v-54h-138l-45 -256h70q126 0 213 105.5t87 263.5q0 110 -55.5 170.5t-166.5 60.5z" />
    <glyph glyph-name="dcroat" unicode="&#x111;" horiz-adv-x="573" 
d="M511 579l-112 -526l123 80v-49l-87 -58q-47 -32 -78 -32q-25 0 -41 20t-8 55l5 24l-68 -51q-62 -47 -113 -47q-42 0 -70.5 36.5t-28.5 108.5q0 150 82 260t193 110q48 0 90 -21l19 90h-168v54h180l18 82l-81 8v31l165 15l20 -5l-28 -131h60v-54h-72zM134 155
q0 -91 42 -91q24 0 55 22l95 69l54 252q-24 61 -74 61q-70 0 -121 -100t-51 -213z" />
    <glyph glyph-name="Emacron" unicode="&#x112;" horiz-adv-x="561" 
d="M232 333l-50 -283l220 4l53 119h41l-39 -173h-454l-1 31l80 13l110 612l-79 13v31h458l-30 -170h-41l1 114l-213 6l-47 -267h195l-11 -61zM269 800v59h234v-59h-234z" />
    <glyph glyph-name="emacron" unicode="&#x113;" horiz-adv-x="461" 
d="M188 -10q-70 0 -110.5 50t-40.5 134q0 141 80.5 238.5t188.5 97.5q61 0 94.5 -29t33.5 -70q0 -96 -149 -147l-147 -50q-1 -10 -1 -28q0 -67 21.5 -101.5t55.5 -34.5q43 0 90 36l61 47v-51l-46 -35q-75 -58 -131 -57zM281 464q-50 0 -87 -59.5t-51 -143.5l73 28
q61 23 88 51.5t27 69.5q0 25 -14.5 39.5t-35.5 14.5zM172 603v59h234v-59h-234z" />
    <glyph glyph-name="Ebreve" unicode="&#x114;" horiz-adv-x="561" 
d="M232 333l-50 -283l220 4l53 119h41l-39 -173h-454l-1 31l80 13l110 612l-79 13v31h458l-30 -170h-41l1 114l-213 6l-47 -267h195l-11 -61zM362 778q-57 0 -87 37.5t-21 108.5l26 6q6 -39 31.5 -61t65.5 -22q38 0 74.5 22.5t58.5 60.5l22 -6q-20 -67 -64.5 -106.5
t-105.5 -39.5z" />
    <glyph glyph-name="ebreve" unicode="&#x115;" horiz-adv-x="461" 
d="M188 -10q-70 0 -110.5 50t-40.5 134q0 141 80.5 238.5t188.5 97.5q61 0 94.5 -29t33.5 -70q0 -96 -149 -147l-147 -50q-1 -10 -1 -28q0 -67 21.5 -101.5t55.5 -34.5q43 0 90 36l61 47v-51l-46 -35q-75 -58 -131 -57zM281 464q-50 0 -87 -59.5t-51 -143.5l73 28
q61 23 88 51.5t27 69.5q0 25 -14.5 39.5t-35.5 14.5zM275 589q-57 0 -87 37.5t-21 108.5l26 6q6 -39 31.5 -61t65.5 -22q38 0 74.5 22.5t58.5 60.5l22 -6q-20 -67 -64.5 -106.5t-105.5 -39.5z" />
    <glyph glyph-name="Edotaccent" unicode="&#x116;" horiz-adv-x="561" 
d="M232 333l-50 -283l220 4l53 119h41l-39 -173h-454l-1 31l80 13l110 612l-79 13v31h458l-30 -170h-41l1 114l-213 6l-47 -267h195l-11 -61zM396 777q-24 0 -39.5 16t-15.5 42t16.5 45.5t47.5 19.5q24 0 39.5 -16t15.5 -42t-16.5 -45.5t-47.5 -19.5z" />
    <glyph glyph-name="edotaccent" unicode="&#x117;" horiz-adv-x="461" 
d="M188 -10q-70 0 -110.5 50t-40.5 134q0 141 80.5 238.5t188.5 97.5q61 0 94.5 -29t33.5 -70q0 -96 -149 -147l-147 -50q-1 -10 -1 -28q0 -67 21.5 -101.5t55.5 -34.5q43 0 90 36l61 47v-51l-46 -35q-75 -58 -131 -57zM281 464q-50 0 -87 -59.5t-51 -143.5l73 28
q61 23 88 51.5t27 69.5q0 25 -14.5 39.5t-35.5 14.5zM302 589q-24 0 -39.5 16t-15.5 42t16.5 45.5t47.5 19.5q24 0 39.5 -16t15.5 -42t-16.5 -45.5t-47.5 -19.5z" />
    <glyph glyph-name="Eogonek" unicode="&#x118;" horiz-adv-x="561" 
d="M373 -194q-38 0 -64.5 17.5t-26.5 52.5q0 52 57 94q20 15 66 30h-402l-1 31l80 13l110 612l-79 13v31h458l-30 -170h-41l1 114l-213 6l-47 -267h195l-11 -61l-193 11l-50 -283l220 4l53 119h41l-39 -173h-2q-1 0 -9.5 -5t-17 -9.5t-18.5 -11t-15 -11.5q-34 -27 -34 -62
q0 -51 57 -51q16 0 35 4t29 8l11 4v-26q-61 -34 -120 -34z" />
    <glyph glyph-name="eogonek" unicode="&#x119;" horiz-adv-x="464" 
d="M155 -194q-81 0 -81 58q0 26 13.5 45t45.5 39l67 42h-4q-74 0 -115 52.5t-41 142.5q0 138 72.5 231.5t173.5 93.5q68 0 105.5 -30.5t37.5 -76.5q0 -57 -76 -94l-216 -106v-22q0 -63 24 -95t62 -32q29 0 63 21l91 58v-57l-67 -44q-10 -7 -28 -17l-78 -51q-51 -33 -51 -73
q0 -41 47 -41q16 0 32.5 4t24.5 8l8 4v-26q-51 -34 -110 -34zM266 458q-47 0 -79.5 -57t-44.5 -141l131 65q50 24 50 78q0 24 -16 39.5t-41 15.5z" />
    <glyph glyph-name="Ecaron" unicode="&#x11a;" horiz-adv-x="561" 
d="M232 333l-50 -283l220 4l53 119h41l-39 -173h-454l-1 31l80 13l110 612l-79 13v31h458l-30 -170h-41l1 114l-213 6l-47 -267h195l-11 -61zM528 933l17 -30l-159 -119h-29l-105 124l25 24l103 -70z" />
    <glyph glyph-name="ecaron" unicode="&#x11b;" horiz-adv-x="461" 
d="M188 -10q-70 0 -110.5 50t-40.5 134q0 141 80.5 238.5t188.5 97.5q61 0 94.5 -29t33.5 -70q0 -96 -149 -147l-147 -50q-1 -10 -1 -28q0 -67 21.5 -101.5t55.5 -34.5q43 0 90 36l61 47v-51l-46 -35q-75 -58 -131 -57zM281 464q-50 0 -87 -59.5t-51 -143.5l73 28
q61 23 88 51.5t27 69.5q0 25 -14.5 39.5t-35.5 14.5zM414 737l17 -30l-159 -119h-29l-105 124l25 24l103 -70z" />
    <glyph glyph-name="Gcircumflex" unicode="&#x11c;" horiz-adv-x="659" 
d="M334 -14q-72 0 -127.5 24t-87.5 64.5t-47.5 87t-15.5 96.5q0 88 28.5 169.5t79.5 145.5t130.5 102.5t173.5 38.5q44 0 84 -10t58 -20l19 -10l-31 -144h-36v107q-52 30 -106 30q-72 0 -130.5 -38t-92.5 -97t-52.5 -124t-18.5 -126q0 -117 50 -182.5t126 -65.5q44 0 81 11
l41 215l-98 14v31h268v-31l-72 -14l-45 -242q-92 -32 -179 -32zM314 778l-17 30l159 119h29l105 -124l-25 -24l-103 69z" />
    <glyph glyph-name="gcircumflex" unicode="&#x11d;" horiz-adv-x="535" 
d="M160 -213q42 0 74.5 42.5t50.5 126.5l29 137l-69 -51q-62 -47 -113 -47q-42 0 -70.5 36.5t-28.5 108.5q0 150 82 260t193 110q70 0 119 -41l48 35l20 -5l-109 -504q-25 -114 -83 -184t-148 -70q-28 0 -56.5 5t-46.5 11l-50 17t-51 17l33 84q32 -12 88.5 -50t87.5 -38z
M134 155q0 -91 42 -91q24 0 55 22l96 69l53 252q-24 61 -74 61q-70 0 -121 -100t-51 -213zM186 589l-17 30l159 119h29l105 -124l-25 -24l-103 69z" />
    <glyph glyph-name="Gbreve" unicode="&#x11e;" horiz-adv-x="659" 
d="M334 -14q-72 0 -127.5 24t-87.5 64.5t-47.5 87t-15.5 96.5q0 88 28.5 169.5t79.5 145.5t130.5 102.5t173.5 38.5q44 0 84 -10t58 -20l19 -10l-31 -144h-36v107q-52 30 -106 30q-72 0 -130.5 -38t-92.5 -97t-52.5 -124t-18.5 -126q0 -117 50 -182.5t126 -65.5q44 0 81 11
l41 215l-98 14v31h268v-31l-72 -14l-45 -242q-92 -32 -179 -32zM460 776q-57 0 -87 37.5t-21 108.5l26 6q6 -39 31.5 -61t65.5 -22q38 0 74.5 22.5t58.5 60.5l22 -6q-20 -67 -64.5 -106.5t-105.5 -39.5z" />
    <glyph glyph-name="gbreve" unicode="&#x11f;" horiz-adv-x="535" 
d="M160 -213q42 0 74.5 42.5t50.5 126.5l29 137l-69 -51q-62 -47 -113 -47q-42 0 -70.5 36.5t-28.5 108.5q0 150 82 260t193 110q70 0 119 -41l48 35l20 -5l-109 -504q-25 -114 -83 -184t-148 -70q-28 0 -56.5 5t-46.5 11l-50 17t-51 17l33 84q32 -12 88.5 -50t87.5 -38z
M134 155q0 -91 42 -91q24 0 55 22l96 69l53 252q-24 61 -74 61q-70 0 -121 -100t-51 -213zM305 589q-57 0 -87 37.5t-21 108.5l26 6q6 -39 31.5 -61t65.5 -22q38 0 74.5 22.5t58.5 60.5l22 -6q-20 -67 -64.5 -106.5t-105.5 -39.5z" />
    <glyph glyph-name="Gdotaccent" unicode="&#x120;" horiz-adv-x="659" 
d="M334 -14q-72 0 -127.5 24t-87.5 64.5t-47.5 87t-15.5 96.5q0 88 28.5 169.5t79.5 145.5t130.5 102.5t173.5 38.5q44 0 84 -10t58 -20l19 -10l-31 -144h-36v107q-52 30 -106 30q-72 0 -130.5 -38t-92.5 -97t-52.5 -124t-18.5 -126q0 -117 50 -182.5t126 -65.5q44 0 81 11
l41 215l-98 14v31h268v-31l-72 -14l-45 -242q-92 -32 -179 -32zM454 778q-24 0 -39.5 16t-15.5 42t16.5 45.5t47.5 19.5q24 0 39.5 -16t15.5 -42t-16.5 -45.5t-47.5 -19.5z" />
    <glyph glyph-name="gdotaccent" unicode="&#x121;" horiz-adv-x="535" 
d="M160 -213q42 0 74.5 42.5t50.5 126.5l29 137l-69 -51q-62 -47 -113 -47q-42 0 -70.5 36.5t-28.5 108.5q0 150 82 260t193 110q70 0 119 -41l48 35l20 -5l-109 -504q-25 -114 -83 -184t-148 -70q-28 0 -56.5 5t-46.5 11l-50 17t-51 17l33 84q32 -12 88.5 -50t87.5 -38z
M134 155q0 -91 42 -91q24 0 55 22l96 69l53 252q-24 61 -74 61q-70 0 -121 -100t-51 -213zM331 590q-24 0 -39.5 16t-15.5 42t16.5 45.5t47.5 19.5q24 0 39.5 -16t15.5 -42t-16.5 -45.5t-47.5 -19.5z" />
    <glyph glyph-name="Gcommaaccent" unicode="&#x122;" horiz-adv-x="658" 
d="M334 -14q-72 0 -127.5 24t-87.5 64.5t-47.5 87t-15.5 96.5q0 88 28.5 169.5t79.5 145.5t130.5 102.5t173.5 38.5q44 0 84 -10t58 -20l19 -10l-31 -144h-36v107q-52 30 -106 30q-72 0 -130.5 -38t-92.5 -97t-52.5 -124t-18.5 -126q0 -117 50 -182.5t126 -65.5q44 0 81 11
l41 215l-98 14v31h268v-31l-72 -14l-45 -242q-92 -32 -179 -32zM213 -306l-19 31q78 43 103 108q-13 -4 -26 -4q-20 0 -32.5 13.5t-12.5 35.5q0 31 21 50.5t53 19.5q26 0 41 -16t15 -47q0 -54 -41.5 -107.5t-101.5 -83.5z" />
    <glyph glyph-name="gcommaaccent" unicode="&#x123;" horiz-adv-x="535" 
d="M416 845l19 -31q-78 -43 -103 -108q13 4 26 4q20 0 32.5 -13.5t12.5 -35.5q0 -31 -21 -50.5t-53 -19.5q-26 0 -41 16t-15 47q0 54 41.5 107.5t101.5 83.5zM160 -213q42 0 74.5 42.5t50.5 126.5l29 137l-69 -51q-62 -47 -113 -47q-42 0 -70.5 36.5t-28.5 108.5
q0 150 82 260t193 110q70 0 119 -41l48 35l20 -5l-109 -504q-25 -114 -83 -184t-148 -70q-28 0 -56.5 5t-46.5 11l-50 17t-51 17l33 84q32 -12 88.5 -50t87.5 -38zM134 155q0 -91 42 -91q24 0 55 22l96 69l53 252q-24 61 -74 61q-70 0 -121 -100t-51 -213z" />
    <glyph glyph-name="Hcircumflex" unicode="&#x124;" horiz-adv-x="755" 
d="M582 44l79 -13l-1 -31h-258l1 31l81 13l52 291h-304l-52 -291l79 -13l-1 -31h-256v31l80 13l110 612l-79 13l1 31h258l-1 -31l-81 -13l-49 -271h304l49 271l-79 13l1 31h258l-1 -31l-81 -13zM329 778l-17 30l159 119h29l105 -124l-25 -24l-103 69z" />
    <glyph glyph-name="hcircumflex" unicode="&#x125;" horiz-adv-x="559" 
d="M398 51l124 81v-49l-87 -58q-47 -32 -78 -32q-25 0 -40.5 19.5t-7.5 54.5l65 306q9 43 -11.5 59.5t-62.5 -9.5l-105 -68l-76 -355h-94l153 714l-81 8v31l165 15l20 -5l-75 -350l105 71q37 26 72 26q54 0 74 -41t7 -105zM106 824l-17 30l159 119h29l105 -124l-25 -24
l-103 69z" />
    <glyph glyph-name="Hbar" unicode="&#x126;" horiz-adv-x="761" 
d="M586 44l79 -13l-1 -31h-258l1 31l81 13l52 291h-304l-52 -291l79 -13l-1 -31h-256v31l80 13l81 452h-105v51h114l20 109l-79 13l1 31h258l-1 -31l-81 -13l-20 -109h304l20 109l-79 13l1 31h258l-1 -31l-81 -13l-20 -109h103v-51h-112zM245 385h304l20 111h-304z" />
    <glyph glyph-name="hbar" unicode="&#x127;" horiz-adv-x="552" 
d="M391 62l121 80v-59l-87 -58q-47 -32 -78 -32q-25 0 -40.5 19.5t-7.5 54.5l59 279q12 59 -0.5 76.5t-57.5 -9.5l-108 -70l-73 -343h-94l124 579h-99v54h110l18 81l-81 8v31l165 15l20 -5l-28 -130h130v-54h-142l-35 -166l105 71q37 26 72 26q37 0 56 -22t19.5 -56
t-6.5 -75z" />
    <glyph glyph-name="Itilde" unicode="&#x128;" horiz-adv-x="353" 
d="M290 656l-110 -612l79 -13v-31h-257v31l80 13l110 612l-79 13v31h258v-31zM332 786q-38 0 -76 23t-61 23q-24 0 -39.5 -9.5t-36.5 -33.5l-36 10q39 104 113 104q36 0 77.5 -23.5t64.5 -23.5q30 0 63 46l35 -13q-18 -49 -42 -76t-62 -27z" />
    <glyph glyph-name="itilde" unicode="&#x129;" horiz-adv-x="326" 
d="M144 51l123 81v-49l-87 -58q-47 -32 -78 -32q-25 0 -41 20t-8 55l84 388l-81 8v31l165 15l20 -5zM254 590q-37 0 -75.5 23t-61.5 23q-24 0 -39.5 -9.5t-36.5 -33.5l-36 10q39 104 113 104q36 0 77.5 -23.5t64.5 -23.5q30 0 63 46l35 -13q-18 -49 -42 -76t-62 -27z" />
    <glyph glyph-name="Imacron" unicode="&#x12a;" horiz-adv-x="353" 
d="M290 656l-110 -612l79 -13v-31h-257v31l80 13l110 612l-79 13v31h258v-31zM135 797v59h234v-59h-234z" />
    <glyph glyph-name="imacron" unicode="&#x12b;" horiz-adv-x="326" 
d="M144 51l123 81v-49l-87 -58q-47 -32 -78 -32q-25 0 -41 20t-8 55l84 388l-81 8v31l165 15l20 -5zM70 604v59h234v-59h-234z" />
    <glyph glyph-name="Ibreve" unicode="&#x12c;" horiz-adv-x="353" 
d="M290 656l-110 -612l79 -13v-31h-257v31l80 13l110 612l-79 13v31h258v-31zM258 778q-57 0 -87 37.5t-21 108.5l26 6q6 -39 31.5 -61t65.5 -22q38 0 74.5 22.5t58.5 60.5l22 -6q-20 -67 -64.5 -106.5t-105.5 -39.5z" />
    <glyph glyph-name="ibreve" unicode="&#x12d;" horiz-adv-x="326" 
d="M144 51l123 81v-49l-87 -58q-47 -32 -78 -32q-25 0 -41 20t-8 55l84 388l-81 8v31l165 15l20 -5zM176 590q-57 0 -87 37.5t-21 108.5l26 6q6 -39 31.5 -61t65.5 -22q38 0 74.5 22.5t58.5 60.5l22 -6q-20 -67 -64.5 -106.5t-105.5 -39.5z" />
    <glyph glyph-name="Iogonek" unicode="&#x12e;" horiz-adv-x="353" 
d="M93 -194q-38 0 -64.5 17.5t-26.5 52.5q0 52 57 94q20 15 66 30h-123v31l80 13l110 612l-79 13v31h258v-31l-81 -13l-110 -612l79 -13v-31h-84q-1 0 -9.5 -5t-17 -9.5t-18.5 -11t-15 -11.5q-34 -27 -34 -62q0 -51 57 -51q16 0 35 4t29 8l11 4v-26q-61 -34 -120 -34z" />
    <glyph glyph-name="iogonek" unicode="&#x12f;" horiz-adv-x="327" 
d="M71 -186q-38 0 -64.5 17.5t-26.5 52.5q0 52 57 94q15 12 40 22q-34 19 -23 68l84 388l-81 8v31l165 15l20 -5l-97 -456l123 83v-49l-87 -58q-30 -20 -44 -25q-32 -17 -44 -29q-34 -27 -34 -62q0 -51 57 -51q16 0 35 4t29 8l11 4v-26q-61 -34 -120 -34zM210 601
q-24 0 -39.5 16t-15.5 42t16.5 45.5t47.5 19.5q24 0 39.5 -16t15.5 -42t-16.5 -45.5t-47.5 -19.5z" />
    <glyph glyph-name="Idotaccent" unicode="&#x130;" horiz-adv-x="353" 
d="M290 656l-110 -612l79 -13v-31h-257v31l80 13l110 612l-79 13v31h258v-31zM257 778q-24 0 -39.5 16t-15.5 42t16.5 45.5t47.5 19.5q24 0 39.5 -16t15.5 -42t-16.5 -45.5t-47.5 -19.5z" />
    <glyph glyph-name="dotlessi" unicode="&#x131;" horiz-adv-x="326" 
d="M144 51l123 81v-49l-87 -58q-47 -32 -78 -32q-25 0 -41 20t-8 55l84 388l-81 8v31l165 15l20 -5z" />
    <glyph glyph-name="IJ" unicode="&#x132;" horiz-adv-x="683" 
d="M290 656l-110 -612l79 -13v-31h-257v31l80 13l110 612l-79 13v31h258v-31zM630 656l-94 -525q-13 -73 -38 -118q-6 -12 -13 -23t-16 -22.5l-15.5 -20t-18.5 -21l-17.5 -18.5t-20.5 -19.5t-19.5 -18t-22 -20.5t-21.5 -19l-26 28l51 58q33 37 46 69.5t24 92.5l103 577
l-79 13v31h258v-31z" />
    <glyph glyph-name="ij" unicode="&#x133;" horiz-adv-x="584" 
d="M144 49l123 83v-49l-87 -58q-47 -32 -78 -32q-25 0 -41 20t-8 55l84 388l-81 8v31l165 15l20 -5zM209 601q-24 0 -39.5 16t-15.5 42t16.5 45.5t47.5 19.5q24 0 39.5 -16t15.5 -42t-16.5 -45.5t-47.5 -19.5zM441 456l-81 8v31l165 15l20 -5l-109 -505q-23 -107 -81 -182
t-144 -75q-29 0 -71 8.5t-58 10.5l20 81q29 -4 67.5 -28.5t59.5 -24.5q42 0 65 42.5t42 129.5zM513 601q-24 0 -39.5 16t-15.5 42t16.5 45.5t47.5 19.5q24 0 39.5 -16t15.5 -42t-16.5 -45.5t-47.5 -19.5z" />
    <glyph glyph-name="Jcircumflex" unicode="&#x134;" horiz-adv-x="338" 
d="M285 656l-94 -525q-13 -73 -38 -118q-6 -12 -13 -23t-16 -22.5l-15.5 -20t-18.5 -21l-17.5 -18.5t-20.5 -19.5t-19.5 -18t-22 -20.5t-21.5 -19l-26 28l51 58q33 37 46 69.5t24 92.5l103 577l-79 13v31h258v-31zM111 778l-17 30l159 119h29l105 -124l-25 -24l-103 69z" />
    <glyph glyph-name="jcircumflex" unicode="&#x135;" horiz-adv-x="282" 
d="M139 456l-81 8v31l165 15l20 -5l-112 -520q-21 -100 -82 -171t-140 -71q-29 0 -71 8.5t-58 10.5l20 81q29 -4 67.5 -26t59.5 -22q41 0 64.5 40t43.5 135zM47 590l-17 30l159 119h29l105 -124l-25 -24l-103 69z" />
    <glyph glyph-name="Kcommaaccent" unicode="&#x136;" horiz-adv-x="643" 
d="M233 339l-53 -295l79 -13l-1 -31h-256v31l80 13l110 612l-79 13v31h253v-31l-76 -13l-48 -267h74l208 267l-62 13v31h214v-31l-75 -13l-233 -272l188 -345l47 -8v-31h-135l-182 339h-53zM234 -305l-19 31q78 43 103 108q-13 -4 -26 -4q-20 0 -32.5 13.5t-12.5 35.5
q0 31 21 50.5t53 19.5q26 0 41 -16t15 -47q0 -54 -41.5 -107.5t-101.5 -83.5z" />
    <glyph glyph-name="kcommaaccent" unicode="&#x137;" horiz-adv-x="515" 
d="M282 763l-163 -763h-94l153 714l-81 8v31l165 15zM291 20l-111 230v4q115 154 170 203.5t119 49.5l-26 -100q-39 0 -77.5 -23.5t-104.5 -96.5l108 -227l111 72v-51l-73 -48q-36 -23 -50 -30t-29 -7q-25 0 -37 24zM118 -299l-19 31q78 43 103 108q-13 -4 -26 -4
q-20 0 -32.5 13.5t-12.5 35.5q0 31 21 50.5t53 19.5q26 0 41 -16t15 -47q0 -54 -41.5 -107.5t-101.5 -83.5z" />
    <glyph glyph-name="Lacute" unicode="&#x139;" horiz-adv-x="538" 
d="M290 656l-108 -606l221 4l53 119h41l-39 -173h-456v31l80 13l110 612l-79 13v31h258v-31zM221 778l-23 34l173 153l52 -72z" />
    <glyph glyph-name="lacute" unicode="&#x13a;" horiz-adv-x="296" 
d="M130 50l124 82v-49l-87 -58q-47 -32 -78 -32q-25 0 -41 20t-8 55l139 646l-81 8v31l165 15l20 -5zM168 798l-23 34l173 153l52 -72z" />
    <glyph glyph-name="Lcommaaccent" unicode="&#x13b;" horiz-adv-x="538" 
d="M290 656l-108 -606l221 4l53 119h41l-39 -173h-456v31l80 13l110 612l-79 13v31h258v-31zM169 -299l-19 31q78 43 103 108q-13 -4 -26 -4q-20 0 -32.5 13.5t-12.5 35.5q0 31 21 50.5t53 19.5q26 0 41 -16t15 -47q0 -54 -41.5 -107.5t-101.5 -83.5z" />
    <glyph glyph-name="lcommaaccent" unicode="&#x13c;" horiz-adv-x="296" 
d="M130 50l124 82v-49l-87 -58q-47 -32 -78 -32q-25 0 -41 20t-8 55l139 646l-81 8v31l165 15l20 -5zM2 -306l-19 31q78 43 103 108q-13 -4 -26 -4q-20 0 -32.5 13.5t-12.5 35.5q0 31 21 50.5t53 19.5q26 0 41 -16t15 -47q0 -54 -41.5 -107.5t-101.5 -83.5z" />
    <glyph glyph-name="Lcaron" unicode="&#x13d;" horiz-adv-x="538" 
d="M290 656l-108 -606l221 4l53 119h41l-39 -173h-456v31l80 13l110 612l-79 13v31h258v-31zM435 460l-19 31q78 43 103 108q-13 -4 -26 -4q-20 0 -32.5 13.5t-12.5 35.5q0 31 21 50.5t53 19.5q26 0 41 -16t15 -47q0 -54 -41.5 -107.5t-101.5 -83.5z" />
    <glyph glyph-name="lcaron" unicode="&#x13e;" horiz-adv-x="334" 
d="M130 50l124 82v-49l-87 -58q-47 -32 -78 -32q-25 0 -41 20t-8 55l139 646l-81 8v31l165 15l20 -5zM340 513l-19 31q78 43 103 108q-13 -4 -26 -4q-20 0 -32.5 13.5t-12.5 35.5q0 31 21 50.5t53 19.5q26 0 41 -16t15 -47q0 -54 -41.5 -107.5t-101.5 -83.5z" />
    <glyph glyph-name="Ldot" unicode="&#x13f;" horiz-adv-x="578" 
d="M512 320q-24 0 -39.5 16t-15.5 42t16.5 45.5t47.5 19.5q24 0 39.5 -16t15.5 -42t-16.5 -45.5t-47.5 -19.5zM290 656l-108 -606l221 4l53 119h41l-39 -173h-456v31l80 13l110 612l-79 13v31h258v-31z" />
    <glyph glyph-name="ldot" unicode="&#x140;" horiz-adv-x="450" 
d="M378 320q-24 0 -39.5 16t-15.5 42t16.5 45.5t47.5 19.5q25 0 38 -14.5t13 -36.5q0 -31 -16.5 -51.5t-43.5 -20.5zM130 50l124 82v-49l-87 -58q-47 -32 -78 -32q-25 0 -41 20t-8 55l139 646l-81 8v31l165 15l20 -5z" />
    <glyph glyph-name="Lslash" unicode="&#x141;" horiz-adv-x="543" 
d="M239 341l-52 -291l221 4l53 119h41l-39 -173h-456v31l80 13l42 236l-94 -53l-27 46l133 74l56 309l-79 13v31h258v-31l-81 -13l-44 -248l102 57l27 -45z" />
    <glyph glyph-name="lslash" unicode="&#x142;" horiz-adv-x="320" 
d="M153 50l124 82v-49l-87 -58q-47 -32 -78 -32q-25 0 -41 20t-8 55l45 211l-95 -54l-26 47l136 76l79 366l-81 8v31l165 15l20 -5l-76 -355l81 46l26 -46l-122 -69z" />
    <glyph glyph-name="Nacute" unicode="&#x143;" horiz-adv-x="739" 
d="M552 241l73 410l-77 18v31h218v-31l-83 -18l-115 -651l-40 -7l-265 498l-38 79l-3 -1q-3 -44 -12 -90l-76 -432l78 -16v-31h-216v31l80 16l105 592l-20 36v25l89 4l251 -473l35 -78l4 1q4 46 12 87zM432 778l-23 34l173 153l52 -72z" />
    <glyph glyph-name="nacute" unicode="&#x144;" horiz-adv-x="576" 
d="M414 51l124 81v-49l-87 -58q-47 -32 -78 -32q-25 0 -40.5 19.5t-7.5 54.5l65 306q10 47 -15.5 60.5t-58.5 -10.5l-105 -68l-76 -355h-94l97 456l-80 8v31l165 15l20 -5l-20 -92l105 71q37 26 72 26q53 0 74 -39.5t7 -106.5zM309 590l-23 34l173 153l52 -72z" />
    <glyph glyph-name="Ncommaaccent" unicode="&#x145;" horiz-adv-x="739" 
d="M552 241l73 410l-77 18v31h218v-31l-83 -18l-115 -651l-40 -7l-265 498l-38 79l-3 -1q-3 -44 -12 -90l-76 -432l78 -16v-31h-216v31l80 16l105 592l-20 36v25l89 4l251 -473l35 -78l4 1q4 46 12 87zM263 -306l-19 31q78 43 103 108q-13 -4 -26 -4q-20 0 -32.5 13.5
t-12.5 35.5q0 31 21 50.5t53 19.5q26 0 41 -16t15 -47q0 -54 -41.5 -107.5t-101.5 -83.5z" />
    <glyph glyph-name="ncommaaccent" unicode="&#x146;" horiz-adv-x="576" 
d="M414 51l124 81v-49l-87 -58q-47 -32 -78 -32q-25 0 -40.5 19.5t-7.5 54.5l65 306q10 47 -15.5 60.5t-58.5 -10.5l-105 -68l-76 -355h-94l97 456l-80 8v31l165 15l20 -5l-20 -92l105 71q37 26 72 26q53 0 74 -39.5t7 -106.5zM139 -306l-19 31q78 43 103 108q-13 -4 -26 -4
q-20 0 -32.5 13.5t-12.5 35.5q0 31 21 50.5t53 19.5q26 0 41 -16t15 -47q0 -54 -41.5 -107.5t-101.5 -83.5z" />
    <glyph glyph-name="Ncaron" unicode="&#x147;" horiz-adv-x="739" 
d="M552 241l73 410l-77 18v31h218v-31l-83 -18l-115 -651l-40 -7l-265 498l-38 79l-3 -1q-3 -44 -12 -90l-76 -432l78 -16v-31h-216v31l80 16l105 592l-20 36v25l89 4l251 -473l35 -78l4 1q4 46 12 87zM599 937l17 -30l-159 -119h-29l-105 124l25 24l103 -70z" />
    <glyph glyph-name="ncaron" unicode="&#x148;" horiz-adv-x="576" 
d="M414 51l124 81v-49l-87 -58q-47 -32 -78 -32q-25 0 -40.5 19.5t-7.5 54.5l65 306q10 47 -15.5 60.5t-58.5 -10.5l-105 -68l-76 -355h-94l97 456l-80 8v31l165 15l20 -5l-20 -92l105 71q37 26 72 26q53 0 74 -39.5t7 -106.5zM469 738l17 -30l-159 -119h-29l-105 124l25 24
l103 -70z" />
    <glyph glyph-name="Eng" unicode="&#x14a;" horiz-adv-x="738" 
d="M225 570l-3 -1q-3 -44 -12 -90l-76 -432l78 -16v-31h-216v31l80 16l105 592l-20 36v25l89 4l251 -473l35 -78l4 1q4 46 12 87l73 410l-77 18v31h218v-31l-83 -18l-100 -560q-11 -64 -40 -113q-20 -34 -48 -64.5t-68.5 -67.5t-53.5 -51l-34 40q12 13 53.5 53t69.5 76
t41 75l-240 452z" />
    <glyph glyph-name="eng" unicode="&#x14b;" horiz-adv-x="544" 
d="M481 364l-60 -283q-20 -98 -61.5 -155.5t-146.5 -148.5l-39 34q69 89 102.5 144t47.5 108q0 2 1 4l65 306q10 47 -15.5 60.5t-58.5 -10.5l-105 -68l-76 -355h-94l97 456l-80 8v31l165 15l20 -5l-20 -92l105 71q37 26 72 26q53 0 74 -39.5t7 -106.5z" />
    <glyph glyph-name="Omacron" unicode="&#x14c;" horiz-adv-x="698" 
d="M315 33q65 0 121.5 61t88 154.5t31.5 190.5q0 102 -38.5 165t-115.5 63q-65 0 -121.5 -61t-88 -154t-31.5 -191q0 -102 38.5 -165t115.5 -63zM306 -14q-118 0 -184.5 70t-66.5 188q0 77 23.5 158t66 151.5t112.5 115.5t154 45q118 0 184.5 -70t66.5 -188
q0 -77 -23.5 -158t-66 -151.5t-112.5 -115.5t-154 -45zM323 785v59h234v-59h-234z" />
    <glyph glyph-name="omacron" unicode="&#x14d;" horiz-adv-x="514" 
d="M289 468q-42 0 -73.5 -32.5t-47.5 -83t-24 -98.5t-8 -91q0 -131 76 -131q44 0 76.5 38t48 93.5t22 101t6.5 76.5q0 127 -76 127zM463 336q0 -58 -17 -117t-48.5 -111t-85 -85t-118.5 -33q-74 0 -116 46t-42 131q0 79 28.5 155.5t92 132t148.5 55.5q74 0 116 -46t42 -128z
M187 603v59h234v-59h-234z" />
    <glyph glyph-name="Obreve" unicode="&#x14e;" horiz-adv-x="698" 
d="M315 33q65 0 121.5 61t88 154.5t31.5 190.5q0 102 -38.5 165t-115.5 63q-65 0 -121.5 -61t-88 -154t-31.5 -191q0 -102 38.5 -165t115.5 -63zM306 -14q-118 0 -184.5 70t-66.5 188q0 77 23.5 158t66 151.5t112.5 115.5t154 45q118 0 184.5 -70t66.5 -188
q0 -77 -23.5 -158t-66 -151.5t-112.5 -115.5t-154 -45zM457 779q-57 0 -87 37.5t-21 108.5l26 6q6 -39 31.5 -61t65.5 -22q38 0 74.5 22.5t58.5 60.5l22 -6q-20 -67 -64.5 -106.5t-105.5 -39.5z" />
    <glyph glyph-name="obreve" unicode="&#x14f;" horiz-adv-x="514" 
d="M289 468q-42 0 -73.5 -32.5t-47.5 -83t-24 -98.5t-8 -91q0 -131 76 -131q44 0 76.5 38t48 93.5t22 101t6.5 76.5q0 127 -76 127zM463 336q0 -58 -17 -117t-48.5 -111t-85 -85t-118.5 -33q-74 0 -116 46t-42 131q0 79 28.5 155.5t92 132t148.5 55.5q74 0 116 -46t42 -128z
M297 590q-57 0 -87 37.5t-21 108.5l26 6q6 -39 31.5 -61t65.5 -22q38 0 74.5 22.5t58.5 60.5l22 -6q-20 -67 -64.5 -106.5t-105.5 -39.5z" />
    <glyph glyph-name="Ohungarumlaut" unicode="&#x150;" horiz-adv-x="698" 
d="M315 33q65 0 121.5 61t88 154.5t31.5 190.5q0 102 -38.5 165t-115.5 63q-65 0 -121.5 -61t-88 -154t-31.5 -191q0 -102 38.5 -165t115.5 -63zM306 -14q-118 0 -184.5 70t-66.5 188q0 77 23.5 158t66 151.5t112.5 115.5t154 45q118 0 184.5 -70t66.5 -188
q0 -77 -23.5 -158t-66 -151.5t-112.5 -115.5t-154 -45zM338 778l-25 32l164 164l56 -69zM526 778l-25 32l164 164l56 -69z" />
    <glyph glyph-name="ohungarumlaut" unicode="&#x151;" horiz-adv-x="514" 
d="M289 468q-42 0 -73.5 -32.5t-47.5 -83t-24 -98.5t-8 -91q0 -131 76 -131q44 0 76.5 38t48 93.5t22 101t6.5 76.5q0 127 -76 127zM463 336q0 -58 -17 -117t-48.5 -111t-85 -85t-118.5 -33q-74 0 -116 46t-42 131q0 79 28.5 155.5t92 132t148.5 55.5q74 0 116 -46t42 -128z
M197 589l-25 32l164 164l56 -69zM385 589l-25 32l164 164l56 -69z" />
    <glyph glyph-name="OE" unicode="&#x152;" horiz-adv-x="955" 
d="M626 333l-50 -283l220 4l53 119h41l-39 -173h-383l9 50q-80 -64 -193 -64q-116 0 -172 68t-56 190q0 78 22.5 158t65.5 151t115 116t161 45q110 0 160 -83l12 69h373l-30 -170h-41l1 114l-213 6l-47 -267h195l-11 -61zM406 667q-76 0 -133 -62t-84 -152.5t-27 -191.5
q0 -228 154 -228q56 0 103.5 33t75.5 89l57 320q-10 192 -146 192z" />
    <glyph glyph-name="oe" unicode="&#x153;" horiz-adv-x="774" 
d="M501 -10q-92 0 -131 82q-72 -82 -176 -82q-74 0 -116 46t-42 131q0 79 28.5 155.5t92 132t148.5 55.5q101 0 139 -82q77 82 175 82q61 0 94.5 -29t33.5 -70q0 -96 -149 -147l-147 -50q-1 -10 -1 -28q0 -67 21.5 -101.5t55.5 -34.5q43 0 90 36l61 47v-51l-46 -35
q-75 -58 -131 -57zM289 468q-42 0 -73.5 -32.5t-47.5 -83t-24 -98.5t-8 -91q0 -131 76 -131q41 0 72 35t46.5 78.5t24.5 97.5q0 1 1 3q9 60 9 95q0 127 -76 127zM594 464q-50 0 -87 -59.5t-51 -143.5l73 28q61 23 88 51.5t27 69.5q0 25 -14.5 39.5t-35.5 14.5z" />
    <glyph glyph-name="Racute" unicode="&#x154;" horiz-adv-x="636" 
d="M225 295l-44 -251l99 -13v-31h-282v31l85 13l109 612l-78 13v31h246q231 0 231 -180q0 -82 -57 -135.5t-141 -72.5l165 -277l35 -6v-29h-124l-169 295h-75zM234 345h72q81 0 132.5 47t51.5 126q0 132 -153 132h-48zM346 779l-23 34l173 153l52 -72z" />
    <glyph glyph-name="racute" unicode="&#x155;" horiz-adv-x="427" 
d="M223 510l20 -5l-27 -127l52 71q45 61 83 61q17 0 30 -5.5t30 -17t33 -18.5l-42 -81q-24 9 -45.5 27t-31.5 18t-18 -6.5t-25 -28.5l-87 -117l-60 -281h-94l97 456l-80 8v31zM246 589l-23 34l173 153l52 -72z" />
    <glyph glyph-name="Rcommaaccent" unicode="&#x156;" horiz-adv-x="636" 
d="M225 295l-44 -251l99 -13v-31h-282v31l85 13l109 612l-78 13v31h246q231 0 231 -180q0 -82 -57 -135.5t-141 -72.5l165 -277l35 -6v-29h-124l-169 295h-75zM234 345h72q81 0 132.5 47t51.5 126q0 132 -153 132h-48zM246 -305l-19 31q78 43 103 108q-13 -4 -26 -4
q-20 0 -32.5 13.5t-12.5 35.5q0 31 21 50.5t53 19.5q26 0 41 -16t15 -47q0 -54 -41.5 -107.5t-101.5 -83.5z" />
    <glyph glyph-name="rcommaaccent" unicode="&#x157;" horiz-adv-x="429" 
d="M223 510l20 -5l-27 -127l52 71q45 61 83 61q17 0 30 -5.5t30 -17t33 -18.5l-42 -81q-24 9 -45.5 27t-31.5 18t-18 -6.5t-25 -28.5l-87 -117l-60 -281h-94l97 456l-80 8v31zM-14 -307l-19 31q78 43 103 108q-13 -4 -26 -4q-20 0 -32.5 13.5t-12.5 35.5q0 31 21 50.5
t53 19.5q26 0 41 -16t15 -47q0 -54 -41.5 -107.5t-101.5 -83.5z" />
    <glyph glyph-name="Rcaron" unicode="&#x158;" horiz-adv-x="636" 
d="M225 295l-44 -251l99 -13v-31h-282v31l85 13l109 612l-78 13v31h246q231 0 231 -180q0 -82 -57 -135.5t-141 -72.5l165 -277l35 -6v-29h-124l-169 295h-75zM234 345h72q81 0 132.5 47t51.5 126q0 132 -153 132h-48zM545 936l17 -30l-159 -119h-29l-105 124l25 24l103 -70
z" />
    <glyph glyph-name="rcaron" unicode="&#x159;" horiz-adv-x="427" 
d="M223 510l20 -5l-27 -127l52 71q45 61 83 61q17 0 30 -5.5t30 -17t33 -18.5l-42 -81q-24 9 -45.5 27t-31.5 18t-18 -6.5t-25 -28.5l-87 -117l-60 -281h-94l97 456l-80 8v31zM423 738l17 -30l-159 -119h-29l-105 124l25 24l103 -70z" />
    <glyph glyph-name="Sacute" unicode="&#x15a;" horiz-adv-x="513" 
d="M209 38q63 0 103.5 33.5t40.5 91.5t-26 91t-91 77q-72 50 -94 73q-48 50 -48 117q0 79 66 136t175 57q52 0 93 -11t56 -21l16 -11l-37 -141h-39v108q-46 24 -97 24q-64 0 -103.5 -33t-39.5 -87q0 -46 26 -75.5t95 -76.5q28 -19 41 -29t36 -30.5t33.5 -39t19.5 -46.5
t9 -60q0 -88 -62.5 -143.5t-180.5 -55.5q-51 0 -95.5 10t-63.5 20l-20 9l37 148h38v-120q46 -15 112 -15zM317 779l-23 34l173 153l52 -72z" />
    <glyph glyph-name="sacute" unicode="&#x15b;" horiz-adv-x="394" 
d="M216 466q-52 0 -52 -66q0 -30 24 -61.5t52 -56t52 -63.5t24 -82q0 -67 -44 -105.5t-118 -38.5q-36 0 -90 10.5t-66 11.5l20 81q27 -4 77.5 -29t78.5 -25q51 0 51 60q0 32 -15.5 60t-37.5 50.5l-44 45t-37.5 53t-15.5 65.5q0 55 44 94.5t114 39.5q34 0 74.5 -10t57.5 -11
l-19 -79q-28 4 -66 30t-64 26zM207 589l-23 34l173 153l52 -72z" />
    <glyph glyph-name="Scircumflex" unicode="&#x15c;" horiz-adv-x="513" 
d="M209 38q63 0 103.5 33.5t40.5 91.5t-26 91t-91 77q-72 50 -94 73q-48 50 -48 117q0 79 66 136t175 57q52 0 93 -11t56 -21l16 -11l-37 -141h-39v108q-46 24 -97 24q-64 0 -103.5 -33t-39.5 -87q0 -46 26 -75.5t95 -76.5q28 -19 41 -29t36 -30.5t33.5 -39t19.5 -46.5
t9 -60q0 -88 -62.5 -143.5t-180.5 -55.5q-51 0 -95.5 10t-63.5 20l-20 9l37 148h38v-120q46 -15 112 -15zM197 782l-17 30l159 119h29l105 -124l-25 -24l-103 69z" />
    <glyph glyph-name="scircumflex" unicode="&#x15d;" horiz-adv-x="394" 
d="M216 466q-52 0 -52 -66q0 -30 24 -61.5t52 -56t52 -63.5t24 -82q0 -67 -44 -105.5t-118 -38.5q-36 0 -90 10.5t-66 11.5l20 81q27 -4 77.5 -29t78.5 -25q51 0 51 60q0 32 -15.5 60t-37.5 50.5l-44 45t-37.5 53t-15.5 65.5q0 55 44 94.5t114 39.5q34 0 74.5 -10t57.5 -11
l-19 -79q-28 4 -66 30t-64 26zM122 589l-17 30l159 119h29l105 -124l-25 -24l-103 69z" />
    <glyph glyph-name="Scedilla" unicode="&#x15e;" horiz-adv-x="514" 
d="M213 -210q-32 0 -58 9.5t-37 18.5l-10 10l10 20q27 -15 64 -15q28 0 42 13t14 32q0 13 -14 20.5t-35 7.5q-19 0 -39 -6l-12 13l66 73h-3q-51 0 -95.5 10t-63.5 20l-20 9l37 148h38v-120q46 -15 112 -15q63 0 103.5 33.5t40.5 91.5t-26 91t-91 77q-72 50 -94 73
q-48 50 -48 117q0 79 66 136t175 57q52 0 93 -11t56 -21l16 -11l-37 -141h-39v108q-46 24 -97 24q-64 0 -103.5 -33t-39.5 -87q0 -46 26 -75.5t95 -76.5q28 -19 41 -29t36 -30.5t33.5 -39t19.5 -46.5t9 -60q0 -78 -51 -132t-147 -64l-45 -48q39 6 73 -8t34 -50
q0 -45 -30 -69t-65 -24z" />
    <glyph glyph-name="scedilla" unicode="&#x15f;" horiz-adv-x="395" 
d="M130 -200q-32 0 -58 9.5t-36 18.5l-11 10l10 20q27 -15 64 -15q28 0 42 13t14 32q0 13 -14 20.5t-35 7.5q-20 0 -39 -6l-12 13l64 72q-24 2 -64 10t-56 10l20 81q27 -4 77.5 -29t78.5 -25q51 0 51 60q0 32 -15.5 60t-37.5 50.5l-44 45t-37.5 53t-15.5 65.5q0 55 44 94.5
t114 39.5q34 0 74.5 -10t57.5 -11l-19 -79q-28 4 -66 30t-64 26q-52 0 -52 -66q0 -25 15.5 -49.5t38 -46l45 -45t38 -55.5t15.5 -67q0 -66 -43.5 -104t-115.5 -40l-40 -42q39 6 73 -8t34 -50q0 -45 -30 -69t-65 -24z" />
    <glyph glyph-name="Scaron" unicode="&#x160;" horiz-adv-x="513" 
d="M209 38q63 0 103.5 33.5t40.5 91.5t-26 91t-91 77q-72 50 -94 73q-48 50 -48 117q0 79 66 136t175 57q52 0 93 -11t56 -21l16 -11l-37 -141h-39v108q-46 24 -97 24q-64 0 -103.5 -33t-39.5 -87q0 -46 26 -75.5t95 -76.5q28 -19 41 -29t36 -30.5t33.5 -39t19.5 -46.5
t9 -60q0 -88 -62.5 -143.5t-180.5 -55.5q-51 0 -95.5 10t-63.5 20l-20 9l37 148h38v-120q46 -15 112 -15zM497 934l17 -30l-159 -119h-29l-105 124l25 24l103 -70z" />
    <glyph glyph-name="scaron" unicode="&#x161;" horiz-adv-x="394" 
d="M216 466q-52 0 -52 -66q0 -30 24 -61.5t52 -56t52 -63.5t24 -82q0 -67 -44 -105.5t-118 -38.5q-36 0 -90 10.5t-66 11.5l20 81q27 -4 77.5 -29t78.5 -25q51 0 51 60q0 32 -15.5 60t-37.5 50.5l-44 45t-37.5 53t-15.5 65.5q0 55 44 94.5t114 39.5q34 0 74.5 -10t57.5 -11
l-19 -79q-28 4 -66 30t-64 26zM410 738l17 -30l-159 -119h-29l-105 124l25 24l103 -70z" />
    <glyph glyph-name="Tcommaaccent" unicode="&#x162;" horiz-adv-x="594" 
d="M96 700h544l-29 -170h-46v112l-157 9l-108 -607l79 -13l-1 -31h-258l1 31l81 13l108 607l-159 -9l-47 -112h-37zM141 -305l-19 31q78 43 103 108q-13 -4 -26 -4q-20 0 -32.5 13.5t-12.5 35.5q0 31 21 50.5t53 19.5q26 0 41 -16t15 -47q0 -54 -41.5 -107.5t-101.5 -83.5z
" />
    <glyph glyph-name="tcommaaccent" unicode="&#x163;" horiz-adv-x="381" 
d="M238 500h131v-45h-141l-67 -320q-11 -51 10.5 -68t71.5 14l83 54v-52l-70 -48q-63 -43 -107 -43q-57 0 -75 43.5t-4 109.5l64 310h-84v45h93l19 90l76 42h28zM26 -306l-19 31q78 43 103 108q-13 -4 -26 -4q-20 0 -32.5 13.5t-12.5 35.5q0 31 21 50.5t53 19.5q26 0 41 -16
t15 -47q0 -54 -41.5 -107.5t-101.5 -83.5z" />
    <glyph glyph-name="Tcaron" unicode="&#x164;" horiz-adv-x="592" 
d="M95 700h544l-29 -170h-46v112l-157 9l-108 -607l79 -13l-1 -31h-258l1 31l81 13l108 607l-159 -9l-47 -112h-37zM526 938l17 -30l-159 -119h-29l-105 124l25 24l103 -70z" />
    <glyph glyph-name="tcaron" unicode="&#x165;" horiz-adv-x="381" 
d="M238 500h131v-45h-141l-67 -320q-11 -51 10.5 -68t71.5 14l83 54v-52l-70 -48q-63 -43 -107 -43q-57 0 -75 43.5t-4 109.5l64 310h-84v45h93l19 90l76 42h28zM324 529l-19 28q75 40 99 100q-12 -4 -25 -4q-19 0 -31 12.5t-12 32.5q0 28 20.5 46.5t50.5 18.5
q25 0 39.5 -15t14.5 -43q0 -49 -40 -98.5t-97 -77.5z" />
    <glyph glyph-name="Tbar" unicode="&#x166;" horiz-adv-x="592" 
d="M110 327v52h151l49 272l-159 -9l-47 -112h-37l29 170h544l-29 -170h-46v112l-157 9l-49 -272h138v-52h-147l-50 -283l79 -13l-1 -31h-258l1 31l81 13l50 283h-142z" />
    <glyph glyph-name="tbar" unicode="&#x167;" horiz-adv-x="386" 
d="M242 500h131v-45h-141l-29 -139h136v-44h-146l-28 -137q-11 -51 10.5 -68t71.5 14l83 54v-52l-70 -48q-63 -43 -107 -43q-57 0 -75 43.5t-4 109.5l26 127h-70v44h79l29 139h-84v45h93l19 90l76 42h28z" />
    <glyph glyph-name="Utilde" unicode="&#x168;" horiz-adv-x="698" 
d="M652 655l-66 -371q-9 -48 -19.5 -85t-32 -79.5t-50 -69.5t-74 -45.5t-104.5 -18.5q-125 0 -174 72.5t-26 204.5l71 393l-78 13v31h258v-31l-82 -14l-72 -404q-18 -100 9.5 -156t106.5 -56q88 0 131.5 56.5t62.5 165.5l71 394l-83 14v31h233v-31zM520 778q-38 0 -76 23
t-61 23q-24 0 -39.5 -9.5t-36.5 -33.5l-36 10q39 104 113 104q36 0 77.5 -23.5t64.5 -23.5q30 0 63 46l35 -13q-18 -49 -42 -76t-62 -27z" />
    <glyph glyph-name="utilde" unicode="&#x169;" horiz-adv-x="572" 
d="M215 510l20 -5l-81 -379q-8 -41 13 -56t66 12l100 64l77 354h94l-98 -448l123 80v-49l-87 -58q-47 -32 -78 -32q-25 0 -40.5 19.5t-7.5 54.5l4 21l-103 -70q-37 -26 -75 -26q-50 0 -71 39t-8 99l67 326l-80 8v31zM405 588q-37 0 -76 23t-61 23q-24 0 -39.5 -9.5
t-36.5 -33.5l-36 10q39 104 113 104q36 0 77.5 -23.5t64.5 -23.5q30 0 63 46l35 -13q-18 -49 -42 -76t-62 -27z" />
    <glyph glyph-name="Umacron" unicode="&#x16a;" horiz-adv-x="698" 
d="M652 655l-66 -371q-9 -48 -19.5 -85t-32 -79.5t-50 -69.5t-74 -45.5t-104.5 -18.5q-125 0 -174 72.5t-26 204.5l71 393l-78 13v31h258v-31l-82 -14l-72 -404q-18 -100 9.5 -156t106.5 -56q88 0 131.5 56.5t62.5 165.5l71 394l-83 14v31h233v-31zM320 786v59h234v-59h-234
z" />
    <glyph glyph-name="umacron" unicode="&#x16b;" horiz-adv-x="572" 
d="M215 510l20 -5l-81 -379q-8 -41 13 -56t66 12l100 64l77 354h94l-98 -448l123 80v-49l-87 -58q-47 -32 -78 -32q-25 0 -40.5 19.5t-7.5 54.5l4 21l-103 -70q-37 -26 -75 -26q-50 0 -71 39t-8 99l67 326l-80 8v31zM223 603v59h234v-59h-234z" />
    <glyph glyph-name="Ubreve" unicode="&#x16c;" horiz-adv-x="698" 
d="M652 655l-66 -371q-9 -48 -19.5 -85t-32 -79.5t-50 -69.5t-74 -45.5t-104.5 -18.5q-125 0 -174 72.5t-26 204.5l71 393l-78 13v31h258v-31l-82 -14l-72 -404q-18 -100 9.5 -156t106.5 -56q88 0 131.5 56.5t62.5 165.5l71 394l-83 14v31h233v-31zM438 779q-57 0 -87 37.5
t-21 108.5l26 6q6 -39 31.5 -61t65.5 -22q38 0 74.5 22.5t58.5 60.5l22 -6q-20 -67 -64.5 -106.5t-105.5 -39.5z" />
    <glyph glyph-name="ubreve" unicode="&#x16d;" horiz-adv-x="572" 
d="M215 510l20 -5l-81 -379q-8 -41 13 -56t66 12l100 64l77 354h94l-98 -448l123 80v-49l-87 -58q-47 -32 -78 -32q-25 0 -40.5 19.5t-7.5 54.5l4 21l-103 -70q-37 -26 -75 -26q-50 0 -71 39t-8 99l67 326l-80 8v31zM333 589q-57 0 -87 37.5t-21 108.5l26 6q6 -39 31.5 -61
t65.5 -22q38 0 74.5 22.5t58.5 60.5l22 -6q-20 -67 -64.5 -106.5t-105.5 -39.5z" />
    <glyph glyph-name="Uring" unicode="&#x16e;" horiz-adv-x="698" 
d="M652 655l-66 -371q-9 -48 -19.5 -85t-32 -79.5t-50 -69.5t-74 -45.5t-104.5 -18.5q-125 0 -174 72.5t-26 204.5l71 393l-78 13v31h258v-31l-82 -14l-72 -404q-18 -100 9.5 -156t106.5 -56q88 0 131.5 56.5t62.5 165.5l71 394l-83 14v31h233v-31zM444 778
q-40 0 -65.5 20.5t-25.5 58.5q0 47 34 73t78 26q40 0 65.5 -20.5t25.5 -58.5q0 -47 -34 -73t-78 -26zM448 814q24 0 41 16.5t17 41.5q0 22 -12 35t-33 13q-24 0 -41 -16.5t-17 -41.5q0 -22 12 -35t33 -13z" />
    <glyph glyph-name="uring" unicode="&#x16f;" horiz-adv-x="572" 
d="M215 510l20 -5l-81 -379q-8 -41 13 -56t66 12l100 64l77 354h94l-98 -448l123 80v-49l-87 -58q-47 -32 -78 -32q-25 0 -40.5 19.5t-7.5 54.5l4 21l-103 -70q-37 -26 -75 -26q-50 0 -71 39t-8 99l67 326l-80 8v31zM324 589q-40 0 -65.5 20.5t-25.5 58.5q0 47 34 73t78 26
q40 0 65.5 -20.5t25.5 -58.5q0 -47 -34 -73t-78 -26zM328 625q24 0 41 16.5t17 41.5q0 22 -12 35t-33 13q-24 0 -41 -16.5t-17 -41.5q0 -22 12 -35t33 -13z" />
    <glyph glyph-name="Uhungarumlaut" unicode="&#x170;" horiz-adv-x="698" 
d="M652 655l-66 -371q-9 -48 -19.5 -85t-32 -79.5t-50 -69.5t-74 -45.5t-104.5 -18.5q-125 0 -174 72.5t-26 204.5l71 393l-78 13v31h258v-31l-82 -14l-72 -404q-18 -100 9.5 -156t106.5 -56q88 0 131.5 56.5t62.5 165.5l71 394l-83 14v31h233v-31zM333 779l-25 32l164 164
l56 -69zM521 779l-25 32l164 164l56 -69z" />
    <glyph glyph-name="uhungarumlaut" unicode="&#x171;" horiz-adv-x="572" 
d="M215 510l20 -5l-81 -379q-8 -41 13 -56t66 12l100 64l77 354h94l-98 -448l123 80v-49l-87 -58q-47 -32 -78 -32q-25 0 -40.5 19.5t-7.5 54.5l4 21l-103 -70q-37 -26 -75 -26q-50 0 -71 39t-8 99l67 326l-80 8v31zM238 588l-25 32l164 164l56 -69zM426 588l-25 32l164 164
l56 -69z" />
    <glyph glyph-name="Uogonek" unicode="&#x172;" horiz-adv-x="701" 
d="M292 -201q-38 0 -64.5 17.5t-26.5 52.5q0 52 57 94q15 12 44 23q-121 2 -169 74.5t-25 202.5l71 393l-78 13v31h258v-31l-82 -14l-72 -404q-18 -100 9.5 -156t106.5 -56q88 0 131.5 56.5t62.5 165.5l71 394l-83 14v31h233v-31l-82 -14l-66 -371q-10 -54 -23 -94.5
t-36.5 -84.5t-63 -72.5t-92.5 -39.5q-39 -19 -59 -37q-34 -27 -34 -62q0 -51 57 -51q16 0 34.5 4t29.5 8l11 4v-26q-61 -34 -120 -34z" />
    <glyph glyph-name="uogonek" unicode="&#x173;" horiz-adv-x="572" 
d="M336 -183q-38 0 -64.5 17.5t-26.5 52.5q0 52 57 94q19 14 35 19q-32 21 -21 67l4 21l-103 -70q-37 -26 -75 -26q-50 0 -71 39t-8 99l67 326l-80 8v31l165 15l20 -5l-81 -379q-8 -41 13 -56t66 12l100 64l77 354h94l-98 -448l123 80v-49l-87 -58q-31 -22 -48 -27
q-26 -14 -36 -24q-34 -27 -34 -62q0 -51 57 -51q16 0 34.5 4t29.5 8l11 4v-26q-61 -34 -120 -34z" />
    <glyph glyph-name="Wcircumflex" unicode="&#x174;" horiz-adv-x="920" 
d="M987 669l-67 -13q-60 -118 -96 -201l-197 -455l-91 -6l-36 461l-4 112h-4q-16 -58 -36 -110l-174 -457l-89 -6l-62 662l-75 13v31h259v-31l-85 -13l36 -434l4 -121h4q12 52 37 117l184 482l80 5l38 -492q2 -29 2.5 -58t0.5 -43l-1 -15h4q14 49 42 115l141 335
q11 26 20.5 53.5t13.5 41.5l4 14l-79 13v31h226v-31zM408 778l-17 30l159 119h29l105 -124l-25 -24l-103 69z" />
    <glyph glyph-name="wcircumflex" unicode="&#x175;" horiz-adv-x="735" 
d="M701 508l21 -5q-13 -154 -80.5 -277t-180.5 -201l-37 -25h-35l-7 300q-31 -77 -82.5 -153.5t-107.5 -124.5l-26 -22h-37l-10 455l-82 9v31l150 15l20 -5l9 -407q49 63 96.5 158.5t67.5 167.5l-1 31l-67 9v31l133 15l20 -5l10 -418q70 66 115 167t54 202l-71 8v31z
M300 589l-17 30l159 119h29l105 -124l-25 -24l-103 69z" />
    <glyph glyph-name="Ycircumflex" unicode="&#x176;" horiz-adv-x="609" 
d="M362 299l-46 -255l79 -13l-1 -31h-258l1 31l81 13l46 255l-146 357l-67 13v31h241v-31l-77 -13l89 -223l30 -88h4l58 90l95 141q12 18 22.5 37t14.5 29l4 10l-66 17v31h211v-31l-67 -15zM273 778l-17 30l159 119h29l105 -124l-25 -24l-103 69z" />
    <glyph glyph-name="ycircumflex" unicode="&#x177;" horiz-adv-x="513" 
d="M183 510l20 -5l77 -451q52 88 88.5 200.5t40.5 200.5l-79 9v31l128 13l21 -5q0 -123 -58.5 -268t-132.5 -246q-41 -56 -76.5 -96t-87 -90t-67.5 -67l-56 64q34 35 106.5 83.5t99.5 73.5l-91 498l-82 9v31zM182 589l-17 30l159 119h29l105 -124l-25 -24l-103 69z" />
    <glyph glyph-name="Ydieresis" unicode="&#x178;" horiz-adv-x="609" 
d="M362 299l-46 -255l79 -13l-1 -31h-258l1 31l81 13l46 255l-146 357l-67 13v31h241v-31l-77 -13l89 -223l30 -88h4l58 90l95 141q12 18 22.5 37t14.5 29l4 10l-66 17v31h211v-31l-67 -15zM294 777q-24 0 -39.5 16t-15.5 42t16.5 45.5t47.5 19.5q24 0 39.5 -16t15.5 -42
t-16.5 -45.5t-47.5 -19.5zM487 777q-24 0 -39.5 16t-15.5 42t16.5 45.5t47.5 19.5q24 0 39.5 -16t15.5 -42t-16.5 -45.5t-47.5 -19.5z" />
    <glyph glyph-name="Zacute" unicode="&#x179;" horiz-adv-x="532" 
d="M188 640l-41 -109h-41l29 169h399v-25l-422 -624l267 9l48 113h38l-36 -173h-435v25l420 623zM319 777l-23 34l173 153l52 -72z" />
    <glyph glyph-name="zacute" unicode="&#x17a;" horiz-adv-x="432" 
d="M104 366h-38l29 134h318v-21l-313 -406l194 7l22 55h38l-29 -135h-328v21l314 406l-185 -7zM220 589l-23 34l173 153l52 -72z" />
    <glyph glyph-name="Zdotaccent" unicode="&#x17b;" horiz-adv-x="532" 
d="M188 640l-41 -109h-41l29 169h399v-25l-422 -624l267 9l48 113h38l-36 -173h-435v25l420 623zM346 778q-24 0 -39.5 16t-15.5 42t16.5 45.5t47.5 19.5q24 0 39.5 -16t15.5 -42t-16.5 -45.5t-47.5 -19.5z" />
    <glyph glyph-name="zdotaccent" unicode="&#x17c;" horiz-adv-x="432" 
d="M104 366h-38l29 134h318v-21l-313 -406l194 7l22 55h38l-29 -135h-328v21l314 406l-185 -7zM272 589q-24 0 -39.5 16t-15.5 42t16.5 45.5t47.5 19.5q24 0 39.5 -16t15.5 -42t-16.5 -45.5t-47.5 -19.5z" />
    <glyph glyph-name="Zcaron" unicode="&#x17d;" horiz-adv-x="532" 
d="M188 640l-41 -109h-41l29 169h399v-25l-422 -624l267 9l48 113h38l-36 -173h-435v25l420 623zM503 937l17 -30l-159 -119h-29l-105 124l25 24l103 -70z" />
    <glyph glyph-name="zcaron" unicode="&#x17e;" horiz-adv-x="432" 
d="M104 366h-38l29 134h318v-21l-313 -406l194 7l22 55h38l-29 -135h-328v21l314 406l-185 -7zM417 738l17 -30l-159 -119h-29l-105 124l25 24l103 -70z" />
    <glyph glyph-name="florin" unicode="&#x192;" horiz-adv-x="407" 
d="M44 -76l101 520l-96 1l1 55h107l9 47q20 105 70.5 159t141.5 54q24 0 64 -9t65 -11l-22 -72q-28 2 -69 16t-63 14q-37 0 -56 -22t-28 -68l-20 -108h171v-60l-183 2l-95 -494q-39 -197 -198 -197q-31 0 -74 9t-65 11l22 72q27 -2 68.5 -15.5t63.5 -13.5q38 0 56 24t29 86z
" />
    <glyph glyph-name="Aringacute" unicode="&#x1fa;" horiz-adv-x="631" 
d="M99 44l83 -13v-31h-231v31l73 13l321 657l83 6l95 -663l71 -13v-31h-243v31l70 13l-22 164h-233l-24 -53q-24 -52 -43 -111zM392 258l-34 256l-9 89h-4q-12 -39 -34 -86l-121 -259h202zM383 761q-38 0 -62 19.5t-24 55.5q0 45 32 69.5t74 24.5q38 0 62 -19.5t24 -55.5
q0 -45 -32 -69.5t-74 -24.5zM387 795q23 0 39 15.5t16 39.5q0 46 -43 46q-23 0 -39 -15.5t-16 -39.5q0 -46 43 -46zM385 956l-21 30l159 137l47 -65z" />
    <glyph glyph-name="aringacute" unicode="&#x1fb;" horiz-adv-x="562" 
d="M396 50l124 82v-49l-87 -58q-47 -32 -78 -32q-25 0 -41 20t-8 55l5 23l-66 -49q-62 -47 -113 -47q-42 0 -70.5 36.5t-28.5 108.5q0 150 82 260t193 110q68 0 114 -37l51 33l20 -5zM134 155q0 -91 42 -91q24 0 55 22l93 67l55 256q-24 59 -73 59q-70 0 -121 -100t-51 -213
zM363 576q-44 0 -71.5 22.5t-27.5 63.5q0 51 37 79.5t85 28.5q44 0 71.5 -22.5t27.5 -63.5q0 -51 -37 -79.5t-85 -28.5zM367 615q27 0 45 18t18 46q0 24 -13 38t-35 14q-27 0 -45 -18t-18 -45q0 -25 13 -39t35 -14zM360 797l-22 31l160 138l48 -65z" />
    <glyph glyph-name="AEacute" unicode="&#x1fc;" horiz-adv-x="876" 
d="M547 333l-50 -283l220 4l53 119h41l-39 -173h-454l-1 31l80 13l28 159h-233l-34 -48q-64 -89 -71 -111l81 -13l-5 -31h-233l5 31l77 13l452 614l-63 11v31h485l-30 -170h-41l1 114l-213 6l-47 -267h195l-11 -61zM444 549l-216 -296h206l71 391q-35 -59 -61 -95zM617 777
l-23 34l173 153l52 -72z" />
    <glyph glyph-name="aeacute" unicode="&#x1fd;" horiz-adv-x="762" 
d="M675 76l-67 -44q-64 -42 -114 -42q-60 0 -95.5 34t-45.5 93l-151 -100q-39 -27 -74 -27q-96 0 -96 145q0 98 37 185t100 138.5t136 51.5q60 0 107 -33l39 33l20 -5l-6 -44q55 49 119 49q68 0 105.5 -30.5t37.5 -76.5q0 -57 -76 -94l-216 -106v-22q0 -63 24 -95t62 -32
q29 0 63 21l91 58v-57zM130 150q0 -81 37 -81q16 0 45 18l110 70l52 239q-14 29 -36 45.5t-45 16.5q-44 0 -82 -47.5t-59.5 -118t-21.5 -142.5zM564 458q-47 0 -79.5 -57t-44.5 -141l131 65q50 24 50 78q0 24 -16 39.5t-41 15.5zM392 590l-23 34l173 153l52 -72z" />
    <glyph glyph-name="Oslashacute" unicode="&#x1fe;" horiz-adv-x="697" 
d="M125 -74l-50 32l59 84q-81 69 -81 202q0 77 23.5 158t66 151.5t112.5 115.5t154 45q98 0 162 -50l49 70l50 -33l-57 -81q47 -65 47 -164q0 -77 -23.5 -158t-66 -151.5t-112.5 -115.5t-154 -45q-66 0 -120 24zM159 261q0 -86 27 -145l335 477q-40 74 -121 74
q-65 0 -121.5 -61t-88 -154t-31.5 -191zM313 33q65 0 121.5 61t88 154.5t31.5 190.5q0 43 -8 85l-323 -459q37 -32 90 -32zM420 781l-23 34l173 153l52 -72z" />
    <glyph glyph-name="oslashacute" unicode="&#x1ff;" horiz-adv-x="515" 
d="M62 -60l-50 32l56 77q-32 44 -32 118q0 79 28.5 155.5t92 132t148.5 55.5q47 0 82 -20l49 67l50 -33l-54 -74q31 -45 31 -114q0 -58 -17 -117t-48.5 -111t-85 -85t-118.5 -33q-46 0 -82 19zM289 468q-42 0 -73.5 -32.5t-47.5 -83t-24 -98.5t-8 -91v-20l211 291
q-21 34 -58 34zM365 341v16l-211 -290q18 -35 58 -35q44 0 76.5 38t48 93.5t22 101t6.5 76.5zM282 589l-23 34l173 153l52 -72z" />
    <glyph glyph-name="Scommaaccent" unicode="&#x218;" horiz-adv-x="513" 
d="M209 38q63 0 103.5 33.5t40.5 91.5t-26 91t-91 77q-72 50 -94 73q-48 50 -48 117q0 79 66 136t175 57q52 0 93 -11t56 -21l16 -11l-37 -141h-39v108q-46 24 -97 24q-64 0 -103.5 -33t-39.5 -87q0 -46 26 -75.5t95 -76.5q28 -19 41 -29t36 -30.5t33.5 -39t19.5 -46.5
t9 -60q0 -88 -62.5 -143.5t-180.5 -55.5q-51 0 -95.5 10t-63.5 20l-20 9l37 148h38v-120q46 -15 112 -15zM134 -305l-19 31q78 43 103 108q-13 -4 -26 -4q-20 0 -32.5 13.5t-12.5 35.5q0 31 21 50.5t53 19.5q26 0 41 -16t15 -47q0 -54 -41.5 -107.5t-101.5 -83.5z" />
    <glyph glyph-name="scommaaccent" unicode="&#x219;" horiz-adv-x="395" 
d="M217 466q-52 0 -52 -66q0 -25 15.5 -49.5t38 -46l45 -45t38 -55.5t15.5 -67q0 -67 -44 -105.5t-118 -38.5q-36 0 -90 10.5t-66 11.5l20 81q27 -4 77.5 -29t78.5 -25q51 0 51 60q0 32 -15.5 60t-37.5 50.5l-44 45t-37.5 53t-15.5 65.5q0 55 44 94.5t114 39.5
q34 0 74.5 -10t57.5 -11l-19 -79q-28 4 -66 30t-64 26zM65 -307l-19 31q78 43 103 108q-13 -4 -26 -4q-20 0 -32.5 13.5t-12.5 35.5q0 31 21 50.5t53 19.5q26 0 41 -16t15 -47q0 -54 -41.5 -107.5t-101.5 -83.5z" />
    <glyph glyph-name="uni021A" unicode="&#x21a;" horiz-adv-x="594" 
d="M96 700h544l-29 -170h-46v112l-157 9l-108 -607l79 -13l-1 -31h-258l1 31l81 13l108 607l-159 -9l-47 -112h-37zM141 -305l-19 31q78 43 103 108q-13 -4 -26 -4q-20 0 -32.5 13.5t-12.5 35.5q0 31 21 50.5t53 19.5q26 0 41 -16t15 -47q0 -54 -41.5 -107.5t-101.5 -83.5z
" />
    <glyph glyph-name="uni021B" unicode="&#x21b;" horiz-adv-x="381" 
d="M238 500h131v-45h-141l-67 -320q-11 -51 10.5 -68t71.5 14l83 54v-52l-70 -48q-63 -43 -107 -43q-57 0 -75 43.5t-4 109.5l64 310h-84v45h93l19 90l76 42h28zM26 -306l-19 31q78 43 103 108q-13 -4 -26 -4q-20 0 -32.5 13.5t-12.5 35.5q0 31 21 50.5t53 19.5q26 0 41 -16
t15 -47q0 -54 -41.5 -107.5t-101.5 -83.5z" />
    <glyph glyph-name="circumflex" unicode="&#x2c6;" horiz-adv-x="384" 
d="M49 562l-17 30l159 119h29l105 -124l-25 -24l-103 69z" />
    <glyph glyph-name="caron" unicode="&#x2c7;" horiz-adv-x="384" 
d="M307 711l17 -30l-159 -119h-29l-105 124l25 24l103 -70z" />
    <glyph glyph-name="breve" unicode="&#x2d8;" horiz-adv-x="398" 
d="M182 516q-57 0 -87 37.5t-21 108.5l26 6q6 -39 31.5 -61t65.5 -22q38 0 74.5 22.5t58.5 60.5l22 -6q-20 -67 -64.5 -106.5t-105.5 -39.5z" />
    <glyph glyph-name="dotaccent" unicode="&#x2d9;" horiz-adv-x="186" 
d="M92 508q-24 0 -39.5 16t-15.5 42t16.5 45.5t47.5 19.5q24 0 39.5 -16t15.5 -42t-16.5 -45.5t-47.5 -19.5z" />
    <glyph glyph-name="ring" unicode="&#x2da;" horiz-adv-x="308" 
d="M130 535q-40 0 -65.5 20.5t-25.5 58.5q0 47 34 73t78 26q40 0 65.5 -20.5t25.5 -58.5q0 -47 -34 -73t-78 -26zM134 571q24 0 41 16.5t17 41.5q0 22 -12 35t-33 13q-24 0 -41 -16.5t-17 -41.5q0 -22 12 -35t33 -13z" />
    <glyph glyph-name="ogonek" unicode="&#x2db;" horiz-adv-x="213" 
d="M97 -194q-38 0 -64.5 17.5t-26.5 52.5q0 52 57 94q13 9 29.5 16.5t27.5 10.5l10 3h49q-1 0 -9.5 -5t-17 -9.5t-18.5 -11t-15 -11.5q-34 -27 -34 -62q0 -51 57 -51q16 0 35 4t29 8l11 4v-26q-61 -34 -120 -34z" />
    <glyph glyph-name="tilde" unicode="&#x2dc;" horiz-adv-x="424" 
d="M277 541q-38 0 -76.5 23t-60.5 23q-24 0 -39.5 -9.5t-36.5 -33.5l-36 10q39 104 113 104q36 0 77.5 -23.5t64.5 -23.5q30 0 63 46l35 -13q-18 -49 -42 -76t-62 -27z" />
    <glyph glyph-name="hungarumlaut" unicode="&#x2dd;" horiz-adv-x="507" 
d="M81 507l-25 32l164 164l56 -69zM269 507l-25 32l164 164l56 -69z" />
    <glyph glyph-name="afii10023" unicode="&#x401;" horiz-adv-x="561" 
d="M232 333l-50 -283l220 4l53 119h41l-39 -173h-454l-1 31l80 13l110 612l-79 13v31h458l-30 -170h-41l1 114l-213 6l-47 -267h195l-11 -61zM279 776q-24 0 -39.5 16t-15.5 42t16.5 45.5t47.5 19.5q24 0 39.5 -16t15.5 -42t-16.5 -45.5t-47.5 -19.5zM472 776
q-24 0 -39.5 16t-15.5 42t16.5 45.5t47.5 19.5q24 0 39.5 -16t15.5 -42t-16.5 -45.5t-47.5 -19.5z" />
    <glyph glyph-name="afii10051" unicode="&#x402;" horiz-adv-x="714" 
d="M95 700h544l-29 -170h-46v112l-157 9l-43 -241q60 25 111 25q87 0 136.5 -46t49.5 -125q0 -136 -66.5 -221t-179.5 -125l-15 30q161 84 161 307q0 117 -119 117q-54 0 -86 -8l-57 -320l79 -13l-1 -31h-258l1 31l81 13l108 607l-159 -9l-47 -112h-37z" />
    <glyph glyph-name="afii10052" unicode="&#x403;" horiz-adv-x="525" 
d="M501 644l-213 6l-108 -606l90 -13v-31h-267l-1 31l80 13l110 612l-79 13v31h458l-30 -170h-41zM350 778l-23 34l173 153l52 -72z" />
    <glyph glyph-name="afii10053" unicode="&#x404;" horiz-adv-x="589" 
d="M435 667q-90 0 -164 -82t-99 -212l271 17l-13 -78l-266 12q-3 -32 -3 -63q0 -100 50 -163.5t139 -63.5q27 0 70 13l50 126h42l-32 -148q-58 -39 -151 -39q-129 0 -201.5 77.5t-72.5 194.5q0 79 27.5 159.5t76.5 147t124 108t162 41.5q46 0 86.5 -10t58.5 -20l18 -10
l-31 -144h-39l2 108q-42 29 -105 29z" />
    <glyph glyph-name="afii10054" unicode="&#x405;" horiz-adv-x="513" 
d="M209 38q63 0 103.5 33.5t40.5 91.5t-26 91t-91 77q-72 50 -94 73q-48 50 -48 117q0 79 66 136t175 57q52 0 93 -11t56 -21l16 -11l-37 -141h-39v108q-46 24 -97 24q-64 0 -103.5 -33t-39.5 -87q0 -46 26 -75.5t95 -76.5q28 -19 41 -29t36 -30.5t33.5 -39t19.5 -46.5
t9 -60q0 -88 -62.5 -143.5t-180.5 -55.5q-51 0 -95.5 10t-63.5 20l-20 9l37 148h38v-120q46 -15 112 -15z" />
    <glyph glyph-name="afii10055" unicode="&#x406;" horiz-adv-x="350" 
d="M287 656l-107 -612l75 -23l-3 -21h-257l2 21l85 23l107 612l-75 23l3 21h258l-3 -21z" />
    <glyph glyph-name="afii10056" unicode="&#x407;" horiz-adv-x="353" 
d="M290 656l-110 -612l79 -13v-31h-257v31l80 13l110 612l-79 13v31h258v-31zM159 778q-24 0 -39.5 16t-15.5 42t16.5 45.5t47.5 19.5q24 0 39.5 -16t15.5 -42t-16.5 -45.5t-47.5 -19.5zM352 778q-24 0 -39.5 16t-15.5 42t16.5 45.5t47.5 19.5q24 0 39.5 -16t15.5 -42
t-16.5 -45.5t-47.5 -19.5z" />
    <glyph glyph-name="afii10057" unicode="&#x408;" horiz-adv-x="338" 
d="M285 656l-94 -525q-13 -73 -38 -118q-6 -12 -13 -23t-16 -22.5l-15.5 -20t-18.5 -21l-17.5 -18.5t-20.5 -19.5t-19.5 -18t-22 -20.5t-21.5 -19l-26 28l51 58q33 37 46 69.5t24 92.5l103 577l-79 13v31h258v-31z" />
    <glyph glyph-name="afii10058" unicode="&#x409;" horiz-adv-x="927" 
d="M619 656l-42 -241h88q216 0 216 -164q0 -110 -82.5 -180.5t-211.5 -70.5h-256v31l83 13l105 602h-203q-79 -377 -156 -528q-64 -128 -146 -128q-16 0 -28.5 2.5t-17.5 5.5l-5 2l-1 78q26 -2 37 -2q71 0 117 91q35 68 79 229t62 260l-77 13v31h532v-31zM629 365h-61
l-55 -315h64q93 0 148 54t55 139q0 65 -35.5 93.5t-115.5 28.5z" />
    <glyph glyph-name="afii10059" unicode="&#x40a;" horiz-adv-x="998" 
d="M690 656l-42 -241h88q216 0 216 -164q0 -110 -82.5 -180.5t-211.5 -70.5h-256v31l83 13l51 291h-304l-52 -291l79 -13l-1 -31h-256v31l80 13l110 612l-79 13l1 31h258l-1 -31l-81 -13l-49 -271h303l48 271l-76 13v31h267v-31zM700 365h-61l-55 -315h64q93 0 148 54
t55 139q0 65 -35.5 93.5t-115.5 28.5z" />
    <glyph glyph-name="afii10060" unicode="&#x40b;" horiz-adv-x="752" 
d="M95 700h544l-29 -170h-46v112l-157 9l-44 -244q84 28 149 28q95 0 128.5 -55t17.5 -149l-33 -187l77 -13l-1 -31h-247l1 31l73 13l31 180q6 41 4.5 74t-24.5 53.5t-70 20.5q-36 0 -114 -12l-56 -316l79 -13l-1 -31h-258l1 31l81 13l108 607l-159 -9l-47 -112h-37z" />
    <glyph glyph-name="afii10061" unicode="&#x40c;" horiz-adv-x="643" 
d="M233 339l-53 -295l79 -13l-1 -31h-256v31l80 13l110 612l-79 13v31h253v-31l-76 -13l-48 -267h74l208 267l-62 13v31h214v-31l-75 -13l-233 -272l188 -345l47 -8v-31h-135l-182 339h-53zM421 778l-23 34l173 153l52 -72z" />
    <glyph glyph-name="afii10062" unicode="&#x40e;" horiz-adv-x="602" 
d="M377 778q-111 0 -172 70l65 61q7 -7 28 -36.5t40 -42.5t46 -13t50.5 13t55 42.5t40.5 36.5l43 -61q-33 -27 -85.5 -48.5t-110.5 -21.5zM267 141l-136 514l-70 14v31h232v-31l-71 -14l88 -342l15 -77h4q15 42 35 79l167 340l-79 14v31h222v-31l-75 -15l-271 -512
q-81 -152 -184 -152q-22 0 -39 5t-23 11l-6 5l13 70q30 -11 65 -11q65 0 113 71z" />
    <glyph glyph-name="afii10145" unicode="&#x40f;" horiz-adv-x="766" 
d="M286 0h-286v31l83 13l108 612l-78 13l1 31h257v-31l-82 -13l-107 -606h315l107 606l-78 13v31h259l-1 -31l-82 -13l-108 -612l77 -13v-31h-298l-45 -184h-43z" />
    <glyph glyph-name="afii10017" unicode="&#x410;" horiz-adv-x="631" 
d="M99 44l83 -13v-31h-231v31l73 13l321 657l83 6l95 -663l71 -13v-31h-243v31l70 13l-22 164h-233l-24 -53q-24 -52 -43 -111zM392 258l-34 256l-9 89h-4q-12 -39 -34 -86l-121 -259h202z" />
    <glyph glyph-name="afii10018" unicode="&#x411;" horiz-adv-x="604" 
d="M183 50h70q91 0 142.5 57t49.5 129q-2 129 -146 129h-61zM113 700h468l-30 -170h-41v114h-222l-41 -229h87q101 0 155.5 -45.5t55.5 -121.5q2 -106 -85 -177t-213 -71h-244l-1 31l82 13l107 612l-77 13z" />
    <glyph glyph-name="afii10019" unicode="&#x412;" horiz-adv-x="612" 
d="M182 50h80q84 0 136 44.5t52 119.5q0 59 -33 92.5t-98 33.5h-86zM458 536q0 114 -131 114h-39l-46 -260h112q49 19 76.5 57.5t27.5 88.5zM255 0h-253v31l80 13l110 612l-79 13v31h230q108 0 163 -39.5t55 -110.5q0 -66 -44.5 -115.5t-104.5 -63.5l-1 -3q61 -9 100 -48.5
t39 -95.5q0 -107 -85 -165.5t-210 -58.5z" />
    <glyph glyph-name="afii10020" unicode="&#x413;" horiz-adv-x="525" 
d="M501 644l-213 6l-108 -606l90 -13v-31h-267l-1 31l80 13l110 612l-79 13v31h458l-30 -170h-41z" />
    <glyph glyph-name="afii10021" unicode="&#x414;" horiz-adv-x="681" 
d="M261 656l-78 13v31h512l-1 -31l-82 -13l-107 -606h103l-39 -234h-41v184h-513l-60 -184h-41l41 234h53q74 65 144.5 226.5t108.5 379.5zM80 50h327l105 599h-194q-90 -444 -238 -599z" />
    <glyph glyph-name="afii10022" unicode="&#x415;" horiz-adv-x="561" 
d="M232 333l-50 -283l220 4l53 119h41l-39 -173h-454l-1 31l80 13l110 612l-79 13v31h458l-30 -170h-41l1 114l-213 6l-47 -267h195l-11 -61z" />
    <glyph glyph-name="afii10024" unicode="&#x416;" horiz-adv-x="928" 
d="M520 339l-53 -295l79 -13l-1 -31h-256v31l80 13l53 295h-51l-290 -339h-131v31l53 9l309 354l-147 262l-69 13v31h211v-31l-68 -13l128 -267h64l48 267l-74 13v31h249v-31l-77 -13l-48 -267h64l223 267l-63 13v31h215v-31l-75 -13l-247 -272l191 -345l48 -8v-31h-129
l-187 339h-49z" />
    <glyph glyph-name="afii10025" unicode="&#x417;" horiz-adv-x="503" 
d="M269 662q-53 0 -97 -21l-20 -108h-39v141l20 11t61 18t104 11q90 0 135.5 -42t45.5 -107q0 -73 -55 -125.5t-126 -67.5v-3q65 -5 101 -45.5t36 -103.5q0 -91 -81 -162.5t-202 -71.5q-44 0 -84 10t-58 20l-19 9l31 148h36v-123q40 -12 90 -12q86 0 136 48t50 122
q0 134 -142 134h-44l9 50h42q85 0 132.5 47t47.5 107q0 52 -27 84t-83 32z" />
    <glyph glyph-name="afii10026" unicode="&#x418;" horiz-adv-x="765" 
d="M701 656l-107 -612l77 -13l-1 -31h-258l1 31l83 13l86 493l13 56h-5q-18 -31 -34 -51l-382 -542h-173v31l83 13l107 612l-77 13v31h258v-31l-83 -13l-84 -468l-19 -85h6q29 48 47 71l372 526h173v-31z" />
    <glyph glyph-name="afii10027" unicode="&#x419;" horiz-adv-x="765" 
d="M472 778q-111 0 -172 70l65 61q7 -7 28 -36.5t40 -42.5t46 -13t50.5 13t55 42.5t40.5 36.5l43 -61q-33 -27 -85.5 -48.5t-110.5 -21.5zM701 656l-107 -612l77 -13l-1 -31h-258l1 31l83 13l86 493l13 56h-5q-18 -31 -34 -51l-382 -542h-173v31l83 13l107 612l-77 13v31
h258v-31l-83 -13l-84 -468l-19 -85h6q29 48 47 71l372 526h173v-31z" />
    <glyph glyph-name="afii10028" unicode="&#x41a;" horiz-adv-x="643" 
d="M233 339l-53 -295l79 -13l-1 -31h-256v31l80 13l110 612l-79 13v31h253v-31l-76 -13l-48 -267h74l208 267l-62 13v31h214v-31l-75 -13l-233 -272l188 -345l47 -8v-31h-135l-182 339h-53z" />
    <glyph glyph-name="afii10029" unicode="&#x41b;" horiz-adv-x="682" 
d="M519 646h-203q-79 -377 -156 -528q-64 -128 -146 -128q-16 0 -28.5 2.5t-17.5 5.5l-5 2l-1 78q26 -2 37 -2q71 0 117 91q35 68 79 229t62 260l-77 13v31h521v-31l-83 -13l-108 -612l78 -13v-31h-258v31l82 13z" />
    <glyph glyph-name="afii10030" unicode="&#x41c;" horiz-adv-x="878" 
d="M224 512l-83 -464l78 -17v-31h-216v31l80 17l109 608l-79 13v31h198l101 -400l12 -69h3q14 30 36 66l249 403h184v-31l-81 -13l-109 -610l78 -15v-31h-252v31l82 15l83 469l23 111h-3q-29 -60 -54 -100l-267 -426h-20l-110 428l-23 102h-3q-2 -40 -16 -118z" />
    <glyph glyph-name="afii10031" unicode="&#x41d;" horiz-adv-x="755" 
d="M582 44l79 -13l-1 -31h-258l1 31l81 13l52 291h-304l-52 -291l79 -13l-1 -31h-256v31l80 13l110 612l-79 13l1 31h258l-1 -31l-81 -13l-49 -271h304l49 271l-79 13l1 31h258l-1 -31l-81 -13z" />
    <glyph glyph-name="afii10032" unicode="&#x41e;" horiz-adv-x="698" 
d="M315 33q65 0 121.5 61t88 154.5t31.5 190.5q0 102 -38.5 165t-115.5 63q-65 0 -121.5 -61t-88 -154t-31.5 -191q0 -102 38.5 -165t115.5 -63zM306 -14q-118 0 -184.5 70t-66.5 188q0 77 23.5 158t66 151.5t112.5 115.5t154 45q118 0 184.5 -70t66.5 -188
q0 -77 -23.5 -158t-66 -151.5t-112.5 -115.5t-154 -45z" />
    <glyph glyph-name="afii10033" unicode="&#x41f;" horiz-adv-x="756" 
d="M115 700h660l-1 -31l-83 -13l-107 -612l77 -13v-31h-258v31l83 13l106 606h-304l-106 -606l77 -13v-31h-257l-1 31l83 13l107 612l-77 13z" />
    <glyph glyph-name="afii10034" unicode="&#x420;" horiz-adv-x="589" 
d="M222 277l-42 -233l100 -13v-31h-278v31l80 13l110 612l-79 13v31h246q111 0 171 -44t60 -129q0 -113 -84.5 -181.5t-211.5 -68.5h-72zM231 327h72q78 0 131.5 49.5t53.5 136.5q0 137 -152 137h-48z" />
    <glyph glyph-name="afii10035" unicode="&#x421;" horiz-adv-x="592" 
d="M435 667q-110 0 -192 -118t-82 -288q0 -100 50 -163.5t139 -63.5q27 0 70 13l50 126h42l-32 -148q-58 -39 -151 -39q-129 0 -201.5 77.5t-72.5 194.5q0 79 27.5 159.5t76.5 147t124 108t162 41.5q46 0 86.5 -10t58.5 -20l18 -10l-31 -144h-39l2 108q-42 29 -105 29z" />
    <glyph glyph-name="afii10036" unicode="&#x422;" horiz-adv-x="595" 
d="M95 700h544l-29 -170h-46v112l-157 9l-108 -607l79 -13l-1 -31h-258l1 31l81 13l108 607l-159 -9l-47 -112h-37z" />
    <glyph glyph-name="afii10037" unicode="&#x423;" horiz-adv-x="602" 
d="M267 141l-136 514l-70 14v31h232v-31l-71 -14l88 -342l15 -77h4q15 42 35 79l167 340l-79 14v31h222v-31l-75 -15l-271 -512q-81 -152 -184 -152q-22 0 -39 5t-23 11l-6 5l13 70q30 -11 65 -11q65 0 113 71z" />
    <glyph glyph-name="afii10038" unicode="&#x424;" horiz-adv-x="792" 
d="M407 94l-10 -61l68 -12v-30h-238v30l76 12l10 61q-72 1 -126.5 22t-84 55.5t-44 72t-14.5 77.5q0 65 22 122.5t65 104.5t115 75t165 29l12 65l-69 8l1 30h235v-30l-73 -8l-12 -65q72 -1 126.5 -22.5t84.5 -55.5t44.5 -71.5t14.5 -77.5q0 -65 -22 -122.5t-65 -104.5
t-115.5 -75t-165.5 -29zM676 415q0 82 -46.5 135.5t-131.5 57.5l-83 -469q116 2 188.5 74t72.5 202zM143 331q0 -82 46.5 -135.5t131.5 -57.5l82 469q-115 -2 -187.5 -74t-72.5 -202z" />
    <glyph glyph-name="afii10039" unicode="&#x425;" horiz-adv-x="658" 
d="M435 44l-121 260q-17 -29 -51 -69l-92 -108q-15 -18 -28.5 -38t-19.5 -31l-6 -11l77 -16v-31h-232v31l69 16l260 296l-146 312l-69 14v31h265v-31l-88 -13l110 -251l53 68l81 100q15 19 27.5 38.5t17.5 29.5l5 10l-74 18v31h234v-31l-71 -15l-250 -289l153 -321l70 -13
v-31h-264v31z" />
    <glyph glyph-name="afii10040" unicode="&#x426;" horiz-adv-x="770" 
d="M617 0h-617v31l83 13l108 612l-78 13v31h258v-31l-82 -13l-107 -606h314l107 606l-78 13v31h258v-31l-82 -13l-107 -606h103l-40 -234h-41z" />
    <glyph glyph-name="afii10041" unicode="&#x427;" horiz-adv-x="686" 
d="M470 348l54 308l-77 13v31h258v-31l-83 -13l-107 -612l77 -13v-31h-278v31l103 13l45 257q-77 -18 -143 -18q-117 0 -165 65.5t-29 172.5l24 135l-77 13v31h258v-31l-83 -13l-22 -125q-34 -193 129 -193q56 0 116 10z" />
    <glyph glyph-name="afii10042" unicode="&#x428;" horiz-adv-x="1025" 
d="M931 0h-929l-1 31l83 13l107 612l-77 13v31h258v-31l-83 -13l-106 -606h238l106 606l-77 13v31h258v-31l-83 -13l-106 -606h238l106 606l-77 13v31h258v-31l-83 -13l-107 -612l77 -13v-31z" />
    <glyph glyph-name="afii10043" unicode="&#x429;" horiz-adv-x="1030" 
d="M877 -184v184h-878l1 31l83 13l108 612l-78 13v31h258v-31l-82 -13l-107 -606h238l107 606l-78 13v31h258v-31l-82 -13l-107 -606h238l107 606l-78 13v31h258v-31l-82 -13l-107 -606h103l-39 -234h-41z" />
    <glyph glyph-name="afii10044" unicode="&#x42a;" horiz-adv-x="703" 
d="M395 656l-42 -241h88q216 0 216 -164q0 -110 -82.5 -180.5t-211.5 -70.5h-256v31l83 13l105 603l-143 -4l-49 -113h-37l31 170h391v-31zM405 365h-61l-55 -315h64q93 0 148 54t55 139q0 65 -35.5 93.5t-115.5 28.5z" />
    <glyph glyph-name="afii10045" unicode="&#x42b;" horiz-adv-x="906" 
d="M289 656l-42 -241h88q216 0 216 -164q0 -110 -82.5 -180.5t-211.5 -70.5h-256v31l83 13l107 612l-76 13v31h267v-31zM299 365h-61l-55 -315h64q93 0 148 54t55 139q0 65 -35.5 93.5t-115.5 28.5zM843 656l-110 -612l79 -13v-31h-257v31l80 13l110 612l-79 13v31h258v-31z
" />
    <glyph glyph-name="afii10046" unicode="&#x42c;" horiz-adv-x="597" 
d="M289 656l-42 -241h88q216 0 216 -164q0 -110 -82.5 -180.5t-211.5 -70.5h-256v31l83 13l107 612l-76 13v31h267v-31zM299 365h-61l-55 -315h64q93 0 148 54t55 139q0 65 -35.5 93.5t-115.5 28.5z" />
    <glyph glyph-name="afii10047" unicode="&#x42d;" horiz-adv-x="562" 
d="M173 33q83 0 150 78t86 212l-256 -12l12 71l249 -6q2 28 2 43q0 243 -155 243q-53 0 -97 -21l-20 -108h-39v141q7 4 21 11t58.5 18t91.5 11q127 0 186.5 -77t59.5 -203q0 -100 -30.5 -185.5t-81 -142t-115 -88.5t-132.5 -32q-44 0 -84 10t-58 20l-18 9l31 148h36v-123
q47 -17 103 -17z" />
    <glyph glyph-name="afii10048" unicode="&#x42e;" horiz-adv-x="987" 
d="M572 -14q-114 0 -169.5 68.5t-55.5 189.5q0 48 7 91h-122l-52 -291l79 -13v-31h-257v31l80 13l110 612l-79 13v31h258v-31l-81 -13l-49 -271h124q16 65 45.5 122t73 104.5t105.5 75t136 27.5q114 0 169.5 -69t55.5 -190q0 -62 -13.5 -125.5t-44 -125.5t-73.5 -110.5
t-107 -78t-140 -29.5zM607 33q73 0 128.5 61.5t82 152.5t26.5 192q0 228 -156 228q-72 0 -127 -61.5t-81.5 -153t-26.5 -191.5q0 -228 154 -228z" />
    <glyph glyph-name="afii10049" unicode="&#x42f;" horiz-adv-x="642" 
d="M114 458q0 112 82 177t221 65h246v-21l-84 -23l-108 -612l76 -23v-21h-279v21l105 23l40 229h-106l-212 -273h-117v24l38 14l208 256q-49 19 -79.5 62t-30.5 102zM422 321l58 329h-58q-104 0 -156 -48.5t-52 -126.5t40 -116t106 -38h62z" />
    <glyph glyph-name="afii10065" unicode="&#x430;" horiz-adv-x="562" 
d="M396 50l124 82v-49l-87 -58q-47 -32 -78 -32q-25 0 -41 20t-8 55l5 23l-66 -49q-62 -47 -113 -47q-42 0 -70.5 36.5t-28.5 108.5q0 150 82 260t193 110q68 0 114 -37l51 33l20 -5zM134 155q0 -91 42 -91q24 0 55 22l93 67l55 256q-24 59 -73 59q-70 0 -121 -100t-51 -213
z" />
    <glyph glyph-name="afii10066" unicode="&#x431;" horiz-adv-x="528" 
d="M474 319q0 -127 -72 -228t-179 -101q-94 0 -135 71t-24 207q24 193 103 301.5t194 133.5q10 2 52.5 9.5t62.5 12.5q16 4 26.5 11.5t14.5 13t16 25.5h29q-12 -61 -35.5 -96.5t-75.5 -47.5q-22 -5 -122 -23q-81 -14 -132.5 -76t-77.5 -180l3 -1q24 67 74 106.5t124 39.5
q73 0 113.5 -48t40.5 -130zM303 452q-39 0 -69.5 -31t-46 -79t-23 -94.5t-7.5 -87.5q0 -125 73 -125q44 0 78.5 47t51.5 113.5t17 134.5q0 122 -74 122z" />
    <glyph glyph-name="afii10067" unicode="&#x432;" horiz-adv-x="477" 
d="M305 510q59 0 89.5 -28t30.5 -78q0 -46 -30.5 -82.5t-81.5 -53.5v-4q44 -2 67.5 -28.5t23.5 -68.5q0 -75 -62 -126t-149 -51q-74 0 -116 46t-42 131q0 58 17.5 117t49.5 110.5t85.5 83.5t117.5 32zM135 163q0 -131 76 -131q43 0 71.5 38.5t28.5 90.5q0 87 -86 73l-87 -14
q-3 -32 -3 -57zM288 468q-41 0 -72.5 -33t-47.5 -76.5t-25 -98.5l134 20q26 20 42 54t16 68q0 66 -47 66z" />
    <glyph glyph-name="afii10068" unicode="&#x433;" horiz-adv-x="373" 
d="M261 304l-120 -145q-32 -43 -26.5 -71.5t40.5 -28.5q28 0 68 22.5t78 64.5v-56q-96 -102 -181 -102q-39 0 -64.5 22t-23.5 65q1 46 63 119l58 69.5l62 75.5q32 43 26.5 71.5t-40.5 28.5q-28 0 -67 -22.5t-78 -64.5v56q96 102 180 102q39 0 64.5 -22t23.5 -65
q-1 -46 -63 -119z" />
    <glyph glyph-name="afii10069" unicode="&#x434;" horiz-adv-x="530" 
d="M278 490q66 0 102 -54q-10 120 -51 191.5t-115 112.5l12 22q78 -23 134.5 -86t82.5 -141t26 -161q0 -76 -15.5 -143t-47 -122t-84.5 -87t-122 -32q-76 0 -117 47.5t-41 137.5q0 77 27 148t82 119t127 48zM369 299q0 69 -24 106t-68 37q-33 0 -60.5 -28t-43.5 -71
t-24.5 -88.5t-8.5 -86.5q0 -136 74 -136t114.5 78.5t40.5 188.5z" />
    <glyph glyph-name="afii10070" unicode="&#x435;" horiz-adv-x="461" 
d="M188 -10q-70 0 -110.5 50t-40.5 134q0 141 80.5 238.5t188.5 97.5q61 0 94.5 -29t33.5 -70q0 -96 -149 -147l-147 -50q-1 -10 -1 -28q0 -67 21.5 -101.5t55.5 -34.5q43 0 90 36l61 47v-51l-46 -35q-75 -58 -131 -57zM281 464q-50 0 -87 -59.5t-51 -143.5l73 28
q61 23 88 51.5t27 69.5q0 25 -14.5 39.5t-35.5 14.5z" />
    <glyph glyph-name="afii10072" unicode="&#x436;" horiz-adv-x="817" 
d="M493 500l-55 -259l162 180q25 31 41 47t42 29t56 13q16 0 27 -2t23.5 -5t24.5 -5l-18 -81q-18 6 -39 26t-36 20q-39 0 -74 -87t-35 -203q0 -118 45 -118q13 0 32 14l47 35v-52l-32 -24q-28 -22 -46 -30t-43 -8q-88 0 -88 144q0 47 16 105t34 95h-4l-152 -171l-34 -163
h-82l55 257l-159 -178q-25 -31 -41 -47t-42 -29t-56 -13q-16 0 -27 2t-23.5 5t-24.5 5l18 81q18 -6 39 -26t36 -20q39 0 74 87t35 203q0 118 -45 118q-13 0 -32 -14l-47 -35v52l32 24q28 22 46 30t43 8q88 0 88 -144q0 -104 -44 -190h5l142 160l36 164h80z" />
    <glyph glyph-name="afii10073" unicode="&#x437;" horiz-adv-x="413" 
d="M150 -10q-51 0 -85.5 14t-80.5 46l44 67q24 -16 47 -38.5t38.5 -33.5t35.5 -11q41 0 69 36t28 87q0 90 -95 90h-43l8 40h45q48 0 76 26.5t28 79.5q0 32 -15 52.5t-44 20.5q-24 0 -64.5 -25.5t-73.5 -30.5v72q7 1 54.5 14.5t94.5 13.5q65 0 103.5 -27t38.5 -80
q0 -47 -31 -84t-92 -49v-4q45 -4 74 -32t29 -74q0 -73 -56.5 -121.5t-132.5 -48.5z" />
    <glyph glyph-name="afii10074" unicode="&#x438;" horiz-adv-x="572" 
d="M215 510l20 -5l-81 -379q-8 -41 13 -56t66 12l100 64l77 354h94l-98 -448l123 80v-49l-87 -58q-47 -32 -78 -32q-25 0 -40.5 19.5t-7.5 54.5l4 21l-103 -70q-37 -26 -75 -26q-50 0 -71 39t-8 99l67 326l-80 8v31z" />
    <glyph glyph-name="afii10075" unicode="&#x439;" horiz-adv-x="572" 
d="M339 626q-117 0 -175 70l67 61q8 -9 21.5 -27.5l22 -29.5t26.5 -20.5t41 -9.5q24 0 44.5 13.5t45 37.5t44.5 36l43 -64q-83 -67 -180 -67zM215 510l20 -5l-81 -379q-8 -41 13 -56t66 12l100 64l77 354h94l-98 -448l123 80v-49l-87 -58q-47 -32 -78 -32q-25 0 -40.5 19.5
t-7.5 54.5l4 21l-103 -70q-37 -26 -75 -26q-50 0 -71 39t-8 99l67 326l-80 8v31z" />
    <glyph glyph-name="afii10076" unicode="&#x43a;" horiz-adv-x="532" 
d="M223 510l20 -5l-108 -505h-94l97 456l-80 8v31zM307 20l-111 230v4q115 154 170 203.5t119 49.5l-25 -96q-42 0 -81 -22.5t-106 -97.5l112 -231l111 72v-51l-73 -48q-36 -23 -50 -30t-29 -7q-25 0 -37 24z" />
    <glyph glyph-name="afii10077" unicode="&#x43b;" horiz-adv-x="537" 
d="M370 48l125 84v-49l-87 -58q-47 -32 -78 -32q-25 0 -40.5 19.5t-7.5 54.5l82 388h-129q-52 -242 -101 -353.5t-123 -111.5q-12 0 -22.5 2.5t-14.5 5.5l-4 2v74q11 -5 26 -5q34 0 63 30t52.5 88t41 121t35.5 148l-72 13v31h353z" />
    <glyph glyph-name="afii10078" unicode="&#x43c;" horiz-adv-x="732" 
d="M566 50l124 82v-49l-87 -58q-47 -32 -78 -32q-25 0 -40.5 19.5t-7.5 54.5l51 241l21 81h-4q-26 -46 -42 -69l-196 -290h-24l-68 266q-5 20 -8.5 38.5t-4.5 27.5l-1 8h-4q-4 -41 -11 -73q-35 -160 -71.5 -233.5t-91.5 -73.5q-12 0 -21 2.5t-12 5.5l-3 2v72q10 -2 24 -2
q97 0 164 384v2l-70 13v31h151l68 -273l14 -71h5q15 34 38 67l188 277h95z" />
    <glyph glyph-name="afii10079" unicode="&#x43d;" horiz-adv-x="572" 
d="M407 62l121 80v-59l-87 -58q-47 -32 -78 -32q-25 0 -40.5 19.5t-7.5 54.5l36 170l-166 -4l-50 -233h-94l97 456l-80 8v31l165 15l20 -5l-48 -226l166 4l46 217h95z" />
    <glyph glyph-name="afii10080" unicode="&#x43e;" horiz-adv-x="514" 
d="M289 468q-42 0 -73.5 -32.5t-47.5 -83t-24 -98.5t-8 -91q0 -131 76 -131q44 0 76.5 38t48 93.5t22 101t6.5 76.5q0 127 -76 127zM463 336q0 -58 -17 -117t-48.5 -111t-85 -85t-118.5 -33q-74 0 -116 46t-42 131q0 79 28.5 155.5t92 132t148.5 55.5q74 0 116 -46t42 -128z
" />
    <glyph glyph-name="afii10081" unicode="&#x43f;" horiz-adv-x="574" 
d="M414 51l124 81v-49l-87 -58q-47 -32 -78 -32q-25 0 -40.5 19.5t-7.5 54.5l65 306q10 47 -15.5 60.5t-58.5 -10.5l-105 -68l-76 -355h-94l97 456l-80 8v31l165 15l20 -5l-20 -92l105 71q37 26 72 26q53 0 74 -39.5t7 -106.5z" />
    <glyph glyph-name="afii10082" unicode="&#x440;" horiz-adv-x="550" 
d="M-84 -250v31l79 11l144 664l-80 8v31l165 15l20 -5l-21 -94l107 72q39 27 74 27q99 0 99 -145q0 -150 -82.5 -262.5t-193.5 -112.5q-48 0 -90 22l-48 -220l110 -11v-31h-283zM402 360q0 81 -37 81q-16 0 -45 -18l-109 -70l-56 -255q13 -31 36 -48.5t48 -17.5
q43 0 81.5 52.5t60 128t21.5 147.5z" />
    <glyph glyph-name="afii10083" unicode="&#x441;" horiz-adv-x="431" 
d="M282 510q36 0 76 -10.5t50 -11.5l-26 -80q-27 7 -56 32t-52 25q-39 0 -71 -44.5t-48.5 -107t-16.5 -124.5q0 -139 71 -139q43 0 90 36l61 47v-51l-46 -35q-73 -57 -131 -57q-69 0 -107 51.5t-38 143.5q0 78 30.5 152t87.5 123.5t126 49.5z" />
    <glyph glyph-name="afii10084" unicode="&#x442;" horiz-adv-x="821" 
d="M661 52l123 80v-49l-87 -58q-47 -32 -78 -32q-25 0 -40.5 19.5t-7.5 54.5l61 289q12 59 -0.5 76.5t-57.5 -9.5l-106 -68l-74 -355h-93l75 356q12 59 -0.5 76.5t-57.5 -9.5l-108 -70l-75 -353h-94l97 456l-80 8v31l165 15l20 -5l-20 -92l105 71q37 26 72 26q80 0 76 -99
l108 73q37 26 72 26q37 0 56 -22t19.5 -56t-6.5 -75z" />
    <glyph glyph-name="afii10085" unicode="&#x443;" horiz-adv-x="513" 
d="M183 510l20 -5l77 -451q52 88 88.5 200.5t40.5 200.5l-79 9v31l128 13l21 -5q0 -123 -58.5 -268t-132.5 -246q-41 -56 -76.5 -96t-87 -90t-67.5 -67l-56 64q34 35 106.5 83.5t99.5 73.5l-91 498l-82 9v31z" />
    <glyph glyph-name="afii10086" unicode="&#x444;" horiz-adv-x="800" 
d="M179 -250v31l75 11l62 303l-71 -53q-62 -47 -113 -47q-42 0 -70.5 36.5t-28.5 108.5q0 150 82 260t193 110q50 0 88 -20l10 47q21 101 78.5 163.5t133.5 62.5q29 0 71 -8.5t58 -10.5l-19 -81q-29 4 -67.5 29.5t-59.5 25.5q-39 0 -62 -37t-37 -107l-34 -166l72 54
q62 47 113 47q42 0 70.5 -36.5t28.5 -108.5q0 -150 -82 -260t-193 -110q-49 0 -89 20l-45 -222l75 -11v-31h-239zM653 349q0 91 -44 91q-24 0 -55 -22l-98 -71l-51 -252q24 -59 74 -59q47 0 88 48.5t63.5 120.5t22.5 144zM132 155q0 -91 44 -91q24 0 55 22l97 70l52 253
q-26 59 -74 59q-47 0 -88 -48.5t-63.5 -120.5t-22.5 -144z" />
    <glyph glyph-name="afii10087" unicode="&#x445;" horiz-adv-x="528" 
d="M185 510l20 -5l78 -193q66 104 114.5 149.5t100.5 45.5l-21 -102q-70 0 -175 -140l88 -218l82 -9v-31l-139 -15l-20 5l-83 204q-72 -114 -122.5 -162.5t-103.5 -48.5l21 102q74 0 186 155l-84 208l-82 9v31z" />
    <glyph glyph-name="afii10088" unicode="&#x446;" horiz-adv-x="593" 
d="M416 -184l-17 20q32 23 41 65t19 94t43 91l-6 -5l-25 -21.5t-26 -21.5l-22.5 -17t-24.5 -15.5t-23 -8.5t-25 -4q-25 0 -37.5 20.5t-5.5 53.5l4 21l-103 -70q-37 -26 -72 -26q-37 0 -56 22t-19.5 56t6.5 75l64 311l-80 8v31l165 15l20 -5l-79 -371q-9 -44 8.5 -60t66.5 13
l92 59l77 354h94l-96 -438l156 104l15 -19l-11 -19q-13 -22 -18 -55t-7 -64.5t-10 -64.5t-35 -66.5t-73 -61.5z" />
    <glyph glyph-name="afii10089" unicode="&#x447;" horiz-adv-x="552" 
d="M205 510l20 -5l-43 -204q-9 -45 7 -62t62 9l98 63l41 189h94l-99 -451l124 83v-49l-87 -58q-47 -32 -78 -32q-25 0 -40.5 19.5t-7.5 54.5l40 186l-103 -70q-37 -26 -72 -26q-37 0 -56 22t-19.5 56t6.5 75l29 146l-81 8v31z" />
    <glyph glyph-name="afii10090" unicode="&#x448;" horiz-adv-x="807" 
d="M216 510l20 -5l-79 -371q-9 -44 8.5 -60t66.5 13l83 54q1 1 1 2v2l73 355h95l-76 -359q-11 -51 6 -67.5t64 11.5l89 57l78 358h94l-98 -451l123 83v-49l-87 -58q-47 -32 -78 -32q-25 0 -40.5 19.5t-7.5 54.5l3 17l-97 -66q-37 -26 -72 -26q-78 0 -76 94l-101 -68
q-37 -26 -72 -26q-37 0 -56 22t-19.5 56t6.5 75l64 311l-80 8v31z" />
    <glyph glyph-name="afii10091" unicode="&#x449;" horiz-adv-x="837" 
d="M739 500l-95 -437l155 103l15 -19l-11 -19q-13 -22 -18 -55t-7 -64.5t-10 -64.5t-35 -66.5t-73 -61.5l-17 20q32 23 41 65t19 94t43 91l-6 -5l-25 -21.5t-26 -21.5l-22.5 -17t-24.5 -15.5t-23 -8.5t-25 -4q-25 0 -38 19t-5 55l3 17l-97 -66q-37 -26 -72 -26q-78 0 -76 94
l-101 -68q-37 -26 -72 -26q-37 0 -56 22t-19.5 56t6.5 75l64 311l-80 8v31l165 15l20 -5l-79 -371q-9 -44 8.5 -60t66.5 13l83 54q1 1 1 2v2l73 355h95l-76 -359q-11 -51 6 -67.5t64 11.5l89 57l78 358h94z" />
    <glyph glyph-name="afii10092" unicode="&#x44a;" horiz-adv-x="504" 
d="M71 369h-29l24 131h288v-27q-87 -77 -130 -182l50 22q37 16 71 16q45 0 74.5 -27.5t29.5 -82.5q0 -96 -65.5 -162.5t-154.5 -66.5q-63 0 -97 37t-34 105q0 149 169 314l-163 -10zM188 105q0 -71 54 -71q50 0 82 48t32 114q0 36 -16 56.5t-43 20.5q-18 0 -39 -9l-51 -23
q-19 -67 -19 -136z" />
    <glyph glyph-name="afii10093" unicode="&#x44b;" horiz-adv-x="725" 
d="M215 510l20 -5l-43 -205l52 23q30 13 61 13.5t56.5 -11t41.5 -39.5t16 -67q0 -96 -65.5 -162.5t-154.5 -66.5q-80 0 -115.5 40.5t-19.5 116.5l66 309l-80 8v31zM212 34q50 0 82 48t32 114q0 49 -28 73t-70 5l-46 -21l-24 -116q-22 -103 54 -103zM559 51l123 81v-49
l-87 -58q-47 -32 -78 -32q-25 0 -41 20t-8 55l84 388l-81 8v31l165 15l20 -5z" />
    <glyph glyph-name="afii10094" unicode="&#x44c;" horiz-adv-x="474" 
d="M215 510l20 -5l-43 -205l52 23q30 13 61 13.5t56.5 -11t41.5 -39.5t16 -67q0 -96 -65.5 -162.5t-154.5 -66.5q-80 0 -115.5 40.5t-19.5 116.5l66 309l-80 8v31zM212 34q50 0 82 48t32 114q0 49 -28 73t-70 5l-46 -21l-24 -116q-22 -103 54 -103z" />
    <glyph glyph-name="afii10095" unicode="&#x44d;" horiz-adv-x="430" 
d="M110 -10q-43 0 -123 31l26 75q17 -11 38.5 -26.5t30.5 -21t21.5 -10.5t24.5 -5q56 0 90.5 57t49.5 138l-164 -21v77l172 -6q5 43 5 63q0 127 -76 127q-21 0 -60 -26.5t-73 -31.5v77q1 0 51.5 11.5t97.5 11.5q74 0 116 -46t42 -128q0 -58 -17 -117t-48.5 -111t-85 -85
t-118.5 -33z" />
    <glyph glyph-name="afii10096" unicode="&#x44e;" horiz-adv-x="753" 
d="M699 323q0 -58 -15 -114.5t-44 -106.5t-79 -81t-113 -31q-78 0 -126.5 52t-48.5 144q0 22 3 46h-91l-49 -232h-94l97 456l-80 8v31l165 15l20 -5l-49 -227h88q22 98 83 165t158 67q78 0 126.5 -50.5t48.5 -136.5zM373 196q0 -80 23.5 -122t65.5 -42q38 0 66.5 31t43 78
t21 90.5t6.5 80.5q0 156 -87 156q-38 0 -66.5 -28.5t-43.5 -72.5t-22 -87.5t-7 -83.5z" />
    <glyph glyph-name="afii10097" unicode="&#x44f;" horiz-adv-x="519" 
d="M286 500h165l-99 -450l124 82v-49l-87 -58q-47 -32 -78 -32q-25 0 -40.5 19.5t-7.5 54.5l26 120h-82q-25 -47 -42.5 -76t-40.5 -60t-46.5 -46t-48.5 -15q-12 0 -22.5 2.5t-14.5 5.5l-4 2v71q11 -4 26 -4q36 0 71.5 35t79.5 104q-41 10 -66 40t-25 73q0 80 58.5 130.5
t153.5 50.5zM168 316q0 -39 25.5 -62.5t61.5 -23.5h43l49 227h-43q-70 0 -103 -39.5t-33 -101.5z" />
    <glyph glyph-name="afii10071" unicode="&#x451;" horiz-adv-x="461" 
d="M188 -10q-70 0 -110.5 50t-40.5 134q0 141 80.5 238.5t188.5 97.5q61 0 94.5 -29t33.5 -70q0 -96 -149 -147l-147 -50q-1 -10 -1 -28q0 -67 21.5 -101.5t55.5 -34.5q43 0 90 36l61 47v-51l-46 -35q-75 -58 -131 -57zM281 464q-50 0 -87 -59.5t-51 -143.5l73 28
q61 23 88 51.5t27 69.5q0 25 -14.5 39.5t-35.5 14.5zM211 589q-24 0 -39.5 16t-15.5 42t16.5 45.5t47.5 19.5q24 0 39.5 -16t15.5 -42t-16.5 -45.5t-47.5 -19.5zM404 589q-24 0 -39.5 16t-15.5 42t16.5 45.5t47.5 19.5q24 0 39.5 -16t15.5 -42t-16.5 -45.5t-47.5 -19.5z" />
    <glyph glyph-name="afii10099" unicode="&#x452;" horiz-adv-x="529" 
d="M464 357l-76 -356q-21 -96 -64 -135t-115 -39q-28 0 -79 11l14 65q17 -3 41.5 -17t40.5 -14q24 0 38.5 28t27.5 89l83 388q8 40 -15 55t-60 -9l-106 -69l-75 -354h-94l124 579h-79v54h90l18 81l-81 8v31l165 15l20 -5l-28 -130h130v-54h-142l-35 -166l105 71q37 26 72 26
q56 0 75.5 -42t4.5 -111z" />
    <glyph glyph-name="afii10100" unicode="&#x453;" horiz-adv-x="373" 
d="M261 304l-120 -145q-32 -43 -26.5 -71.5t40.5 -28.5q28 0 68 22.5t78 64.5v-56q-96 -102 -181 -102q-39 0 -64.5 22t-23.5 65q1 46 63 119l58 69.5l62 75.5q32 43 26.5 71.5t-40.5 28.5q-28 0 -67 -22.5t-78 -64.5v56q96 102 180 102q39 0 64.5 -22t23.5 -65
q-1 -46 -63 -119zM211 590l-23 34l173 153l52 -72z" />
    <glyph glyph-name="afii10101" unicode="&#x454;" horiz-adv-x="431" 
d="M282 510q36 0 76 -10.5t50 -11.5l-26 -80q-27 7 -56 32t-52 25q-45 0 -79 -55.5t-49 -134.5l172 23v-73l-178 3q-2 -26 -2 -39q0 -139 71 -139q43 0 90 36l61 47v-51l-46 -35q-73 -57 -131 -57q-69 0 -107 51.5t-38 143.5q0 78 30.5 152t87.5 123.5t126 49.5z" />
    <glyph glyph-name="afii10102" unicode="&#x455;" horiz-adv-x="394" 
d="M216 466q-52 0 -52 -66q0 -30 24 -61.5t52 -56t52 -63.5t24 -82q0 -67 -44 -105.5t-118 -38.5q-36 0 -90 10.5t-66 11.5l20 81q27 -4 77.5 -29t78.5 -25q51 0 51 60q0 32 -15.5 60t-37.5 50.5l-44 45t-37.5 53t-15.5 65.5q0 55 44 94.5t114 39.5q34 0 74.5 -10t57.5 -11
l-19 -79q-28 4 -66 30t-64 26z" />
    <glyph glyph-name="afii10103" unicode="&#x456;" horiz-adv-x="326" 
d="M144 49l123 83v-49l-87 -58q-47 -32 -78 -32q-25 0 -41 20t-8 55l84 388l-81 8v31l165 15l20 -5zM209 601q-24 0 -39.5 16t-15.5 42t16.5 45.5t47.5 19.5q24 0 39.5 -16t15.5 -42t-16.5 -45.5t-47.5 -19.5z" />
    <glyph glyph-name="afii10104" unicode="&#x457;" horiz-adv-x="326" 
d="M144 51l123 81v-49l-87 -58q-47 -32 -78 -32q-25 0 -41 20t-8 55l84 388l-81 8v31l165 15l20 -5zM89 589q-24 0 -39.5 16t-15.5 42t16.5 45.5t47.5 19.5q24 0 39.5 -16t15.5 -42t-16.5 -45.5t-47.5 -19.5zM282 589q-24 0 -39.5 16t-15.5 42t16.5 45.5t47.5 19.5
q24 0 39.5 -16t15.5 -42t-16.5 -45.5t-47.5 -19.5z" />
    <glyph glyph-name="afii10105" unicode="&#x458;" horiz-adv-x="281" 
d="M138 456l-81 8v31l165 15l20 -5l-109 -505q-23 -107 -81 -182t-144 -75q-29 0 -71 8.5t-58 10.5l20 81q29 -4 67.5 -28.5t59.5 -24.5q42 0 65 42.5t42 129.5zM210 601q-24 0 -39.5 16t-15.5 42t16.5 45.5t47.5 19.5q24 0 39.5 -16t15.5 -42t-16.5 -45.5t-47.5 -19.5z" />
    <glyph glyph-name="afii10106" unicode="&#x459;" horiz-adv-x="711" 
d="M186 456l-72 13v31h356l-42 -200l52 23q42 15 81 13t67 -33.5t28 -83.5q0 -95 -66 -162t-155 -67q-80 0 -115.5 40.5t-19.5 116.5l65 308h-129q-52 -242 -101 -353.5t-123 -111.5q-12 0 -22.5 2.5t-14.5 5.5l-4 2v74q11 -5 26 -5q34 0 62.5 30t51.5 88.5t40 120t35 148.5
zM448 34q50 0 82 49t32 113q0 49 -28 73t-70 5l-46 -21l-24 -116q-10 -46 3 -74.5t51 -28.5z" />
    <glyph glyph-name="afii10107" unicode="&#x45a;" horiz-adv-x="743" 
d="M407 500h95l-42 -200l52 23q42 15 81 13t67 -33.5t28 -83.5q0 -95 -66 -162t-155 -67q-80 0 -115.5 40.5t-19.5 116.5l17 81h-164l-49 -228h-94l97 456l-80 8v31l165 15l20 -5l-49 -227h164zM480 34q50 0 82 49t32 113q0 49 -28 73t-70 5l-46 -21l-24 -116
q-10 -46 3 -74.5t51 -28.5z" />
    <glyph glyph-name="afii10108" unicode="&#x45b;" horiz-adv-x="580" 
d="M70 579v54h90l18 81l-81 8v31l165 15l20 -5l-28 -130h130v-54h-142l-35 -166l105 71q37 26 72 26q54 0 74 -41t7 -105l-67 -313l124 81v-49l-87 -58q-47 -32 -78 -32q-25 0 -40.5 19.5t-7.5 54.5l65 306q9 43 -11.5 59.5t-62.5 -9.5l-105 -68l-76 -355h-94l124 579h-79z
" />
    <glyph glyph-name="afii10109" unicode="&#x45c;" horiz-adv-x="532" 
d="M286 589l-23 34l173 153l52 -72zM223 510l20 -5l-108 -505h-94l97 456l-80 8v31zM307 20l-111 230v4q115 154 170 203.5t119 49.5l-25 -96q-42 0 -81 -22.5t-106 -97.5l112 -231l111 72v-51l-73 -48q-36 -23 -50 -30t-29 -7q-25 0 -37 24z" />
    <glyph glyph-name="afii10110" unicode="&#x45e;" horiz-adv-x="513" 
d="M303 626q-112 0 -170 70l67 61q7 -8 22 -27t24 -28t26.5 -18t38.5 -9t43.5 9.5t34.5 17.5t38.5 29l32.5 26l41 -61q-34 -27 -87 -48.5t-111 -21.5zM183 510l20 -5l77 -451q52 88 88.5 200.5t40.5 200.5l-79 9v31l128 13l21 -5q0 -123 -58.5 -268t-132.5 -246
q-41 -56 -76.5 -96t-87 -90t-67.5 -67l-56 64q34 35 106.5 83.5t99.5 73.5l-91 498l-82 9v31z" />
    <glyph glyph-name="afii10193" unicode="&#x45f;" horiz-adv-x="572" 
d="M138 -284l-17 19q27 22 37 54.5t10 61.5t17.5 68.5t57.5 73.5l17 -11q-15 -18 -19 -44.5t-4.5 -53t-6 -55t-28 -58.5t-64.5 -55zM215 510l20 -5l-81 -379q-8 -41 13 -56t66 12l100 64l77 354h94l-98 -448l123 80v-49l-87 -58q-47 -32 -78 -32q-25 0 -40.5 19.5t-7.5 54.5
l4 21l-103 -70q-37 -26 -75 -26q-50 0 -71 39t-8 99l67 326l-80 8v31z" />
    <glyph glyph-name="afii10050" unicode="&#x490;" horiz-adv-x="512" 
d="M287 644l-105 -600l87 -13l-1 -31h-266v31l82 13l107 612l-77 13v31h379l52 145h40l-38 -220z" />
    <glyph glyph-name="afii10098" unicode="&#x491;" horiz-adv-x="433" 
d="M470 635l-46 -201l-179 12l-85 -402l97 -13l-7 -31h-271l7 31l80 13l88 412l-76 13l6 31h292l58 135h36z" />
    <glyph glyph-name="Wgrave" unicode="&#x1e80;" horiz-adv-x="920" 
d="M987 669l-67 -13q-60 -118 -96 -201l-197 -455l-91 -6l-36 461l-4 112h-4q-16 -58 -36 -110l-174 -457l-89 -6l-62 662l-75 13v31h259v-31l-85 -13l36 -434l4 -121h4q12 52 37 117l184 482l80 5l38 -492q2 -29 2.5 -58t0.5 -43l-1 -15h4q14 49 42 115l141 335
q11 26 20.5 53.5t13.5 41.5l4 14l-79 13v31h226v-31zM547 802l-34 -23l-148 179l74 49z" />
    <glyph glyph-name="wgrave" unicode="&#x1e81;" horiz-adv-x="735" 
d="M701 508l21 -5q-13 -154 -80.5 -277t-180.5 -201l-37 -25h-35l-7 300q-31 -77 -82.5 -153.5t-107.5 -124.5l-26 -22h-37l-10 455l-82 9v31l150 15l20 -5l9 -407q49 63 96.5 158.5t67.5 167.5l-1 31l-67 9v31l133 15l20 -5l10 -418q70 66 115 167t54 202l-71 8v31z
M452 612l-34 -23l-148 179l74 49z" />
    <glyph glyph-name="Wacute" unicode="&#x1e82;" horiz-adv-x="920" 
d="M987 669l-67 -13q-60 -118 -96 -201l-197 -455l-91 -6l-36 461l-4 112h-4q-16 -58 -36 -110l-174 -457l-89 -6l-62 662l-75 13v31h259v-31l-85 -13l36 -434l4 -121h4q12 52 37 117l184 482l80 5l38 -492q2 -29 2.5 -58t0.5 -43l-1 -15h4q14 49 42 115l141 335
q11 26 20.5 53.5t13.5 41.5l4 14l-79 13v31h226v-31zM519 778l-23 34l173 153l52 -72z" />
    <glyph glyph-name="wacute" unicode="&#x1e83;" horiz-adv-x="735" 
d="M701 508l21 -5q-13 -154 -80.5 -277t-180.5 -201l-37 -25h-35l-7 300q-31 -77 -82.5 -153.5t-107.5 -124.5l-26 -22h-37l-10 455l-82 9v31l150 15l20 -5l9 -407q49 63 96.5 158.5t67.5 167.5l-1 31l-67 9v31l133 15l20 -5l10 -418q70 66 115 167t54 202l-71 8v31z
M387 589l-23 34l173 153l52 -72z" />
    <glyph glyph-name="Wdieresis" unicode="&#x1e84;" horiz-adv-x="920" 
d="M987 669l-67 -13q-60 -118 -96 -201l-197 -455l-91 -6l-36 461l-4 112h-4q-16 -58 -36 -110l-174 -457l-89 -6l-62 662l-75 13v31h259v-31l-85 -13l36 -434l4 -121h4q12 52 37 117l184 482l80 5l38 -492q2 -29 2.5 -58t0.5 -43l-1 -15h4q14 49 42 115l141 335
q11 26 20.5 53.5t13.5 41.5l4 14l-79 13v31h226v-31zM442 777q-24 0 -39.5 16t-15.5 42t16.5 45.5t47.5 19.5q24 0 39.5 -16t15.5 -42t-16.5 -45.5t-47.5 -19.5zM635 777q-24 0 -39.5 16t-15.5 42t16.5 45.5t47.5 19.5q24 0 39.5 -16t15.5 -42t-16.5 -45.5t-47.5 -19.5z" />
    <glyph glyph-name="wdieresis" unicode="&#x1e85;" horiz-adv-x="735" 
d="M701 508l21 -5q-13 -154 -80.5 -277t-180.5 -201l-37 -25h-35l-7 300q-31 -77 -82.5 -153.5t-107.5 -124.5l-26 -22h-37l-10 455l-82 9v31l150 15l20 -5l9 -407q49 63 96.5 158.5t67.5 167.5l-1 31l-67 9v31l133 15l20 -5l10 -418q70 66 115 167t54 202l-71 8v31z
M327 588q-24 0 -39.5 16t-15.5 42t16.5 45.5t47.5 19.5q24 0 39.5 -16t15.5 -42t-16.5 -45.5t-47.5 -19.5zM520 588q-24 0 -39.5 16t-15.5 42t16.5 45.5t47.5 19.5q24 0 39.5 -16t15.5 -42t-16.5 -45.5t-47.5 -19.5z" />
    <glyph glyph-name="Ygrave" unicode="&#x1ef2;" horiz-adv-x="609" 
d="M362 299l-46 -255l79 -13l-1 -31h-258l1 31l81 13l46 255l-146 357l-67 13v31h241v-31l-77 -13l89 -223l30 -88h4l58 90l95 141q12 18 22.5 37t14.5 29l4 10l-66 17v31h211v-31l-67 -15zM409 802l-34 -23l-148 179l74 49z" />
    <glyph glyph-name="ygrave" unicode="&#x1ef3;" horiz-adv-x="513" 
d="M183 510l20 -5l77 -451q52 88 88.5 200.5t40.5 200.5l-79 9v31l128 13l21 -5q0 -123 -58.5 -268t-132.5 -246q-41 -56 -76.5 -96t-87 -90t-67.5 -67l-56 64q34 35 106.5 83.5t99.5 73.5l-91 498l-82 9v31zM348 612l-34 -23l-148 179l74 49z" />
    <glyph glyph-name="thinspace" unicode="&#x2009;" horiz-adv-x="40" 
 />
    <glyph glyph-name="endash" unicode="&#x2013;" horiz-adv-x="597" 
d="M81 259v64h431v-64h-431z" />
    <glyph glyph-name="emdash" unicode="&#x2014;" horiz-adv-x="828" 
d="M82 262v64h661v-64h-661z" />
    <glyph glyph-name="quoteleft" unicode="&#x2018;" horiz-adv-x="230" 
d="M226 712l22 -27q-81 -61 -106 -137q26 5 44.5 -10t18.5 -47q0 -27 -17.5 -45t-46.5 -18q-23 0 -39 16t-16 44q0 63 39.5 122t100.5 102z" />
    <glyph glyph-name="quoteright" unicode="&#x2019;" horiz-adv-x="229" 
d="M102 428l-22 27q81 61 106 137q-26 -5 -44.5 10t-18.5 47q0 27 17.5 45t46.5 18q23 0 39 -16t16 -44q0 -63 -39.5 -122t-100.5 -102z" />
    <glyph glyph-name="quotesinglbase" unicode="&#x201a;" horiz-adv-x="243" 
d="M0 -176l-22 27q81 61 106 137q-26 -5 -44.5 10t-18.5 47q0 27 17.5 45t46.5 18q23 0 39 -16t16 -44q0 -63 -39.5 -122t-100.5 -102z" />
    <glyph glyph-name="quotereversed" unicode="&#x201b;" horiz-adv-x="257" 
d="M243 461l-18 -24q-56 29 -92 87t-36 118q0 35 18.5 53.5t46.5 18.5t46 -16.5t18 -43.5q0 -28 -20.5 -46t-54.5 -10q4 -38 30.5 -77t61.5 -60z" />
    <glyph glyph-name="quotedblleft" unicode="&#x201c;" horiz-adv-x="424" 
d="M226 712l22 -27q-81 -61 -106 -137q26 5 44.5 -10t18.5 -47q0 -27 -17.5 -45t-46.5 -18q-23 0 -39 16t-16 44q0 63 39.5 122t100.5 102zM420 712l22 -27q-81 -61 -106 -137q26 5 44.5 -10t18.5 -47q0 -27 -17.5 -45t-46.5 -18q-23 0 -39 16t-16 44q0 63 39.5 122
t100.5 102z" />
    <glyph glyph-name="quotedblright" unicode="&#x201d;" horiz-adv-x="423" 
d="M296 428l-22 27q81 61 106 137q-26 -5 -44.5 10t-18.5 47q0 27 17.5 45t46.5 18q23 0 39 -16t16 -44q0 -63 -39.5 -122t-100.5 -102zM102 428l-22 27q81 61 106 137q-26 -5 -44.5 10t-18.5 47q0 27 17.5 45t46.5 18q23 0 39 -16t16 -44q0 -63 -39.5 -122t-100.5 -102z
" />
    <glyph glyph-name="quotedblbase" unicode="&#x201e;" horiz-adv-x="435" 
d="M0 -176l-22 27q81 61 106 137q-26 -5 -44.5 10t-18.5 47q0 27 17.5 45t46.5 18q23 0 39 -16t16 -44q0 -63 -39.5 -122t-100.5 -102zM192 -176l-22 27q81 61 106 137q-26 -5 -44.5 10t-18.5 47q0 27 17.5 45t46.5 18q23 0 39 -16t16 -44q0 -63 -39.5 -122t-100.5 -102z
" />
    <glyph glyph-name="uni201F" unicode="&#x201f;" horiz-adv-x="461" 
d="M243 461l-18 -24q-56 29 -92 87t-36 118q0 35 18.5 53.5t46.5 18.5t46 -16.5t18 -43.5q0 -28 -20.5 -46t-54.5 -10q4 -38 30.5 -77t61.5 -60zM447 461l-18 -24q-56 29 -92 87t-36 118q0 35 18.5 53.5t46.5 18.5t46 -16.5t18 -43.5q0 -28 -20.5 -46t-54.5 -10
q4 -38 30.5 -77t61.5 -60z" />
    <glyph glyph-name="dagger" unicode="&#x2020;" horiz-adv-x="552" 
d="M74 510l213 -26l23 231h98l-76 -231l205 26v-94l-214 26l-112 -645l-56 -47l-42 47l165 645l-204 -26v94z" />
    <glyph glyph-name="daggerdbl" unicode="&#x2021;" horiz-adv-x="582" 
d="M468 -35l-213 14l-29 -229h-78l58 229l-215 -14l14 74l210 -14l20 200l61 214l-217 -13l14 74l212 -13l30 228h78l-58 -228l216 13l-14 -74l-211 13l-23 -214l-59 -200l218 14z" />
    <glyph glyph-name="bullet" unicode="&#x2022;" horiz-adv-x="273" 
d="M120 228q-22 0 -38.5 16t-16.5 39q0 39 24.5 63.5t63.5 24.5q24 0 39.5 -15.5t15.5 -39.5q0 -39 -24.5 -63.5t-63.5 -24.5z" />
    <glyph glyph-name="onedotenleader" unicode="&#x2024;" horiz-adv-x="259" 
d="M87 -15q-29 0 -47 17.5t-18 45.5q0 29 19.5 45.5t51.5 16.5q30 0 47 -16t17 -44q0 -30 -19 -47.5t-51 -17.5z" />
    <glyph glyph-name="twodotenleader" unicode="&#x2025;" horiz-adv-x="514" 
d="M87 -15q-29 0 -47 17.5t-18 45.5q0 29 19.5 45.5t51.5 16.5q30 0 47 -16t17 -44q0 -30 -19 -47.5t-51 -17.5zM342 -15q-29 0 -47 17.5t-18 45.5q0 29 19.5 45.5t51.5 16.5q30 0 47 -16t17 -44q0 -30 -19 -47.5t-51 -17.5z" />
    <glyph glyph-name="ellipsis" unicode="&#x2026;" horiz-adv-x="749" 
d="M75 -15q-24 0 -39.5 16t-15.5 42t16.5 45.5t47.5 19.5q24 0 39.5 -16t15.5 -42t-16.5 -45.5t-47.5 -19.5zM329 -15q-24 0 -39.5 16t-15.5 42t16.5 45.5t47.5 19.5q24 0 39.5 -16t15.5 -42t-16.5 -45.5t-47.5 -19.5zM584 -15q-24 0 -39.5 16t-15.5 42t16.5 45.5t47.5 19.5
q24 0 39.5 -16t15.5 -42t-16.5 -45.5t-47.5 -19.5z" />
    <glyph glyph-name="perthousand" unicode="&#x2030;" horiz-adv-x="1381" 
d="M254 394q52 0 82.5 47t30.5 113q0 44 -19.5 75.5t-58.5 31.5q-55 0 -84 -46t-29 -119q0 -43 19 -72.5t59 -29.5zM245 341q-73 0 -118.5 39.5t-45.5 116.5q0 86 58.5 151.5t161.5 65.5q79 0 121 -44t42 -115q0 -91 -61 -152.5t-158 -61.5zM280 0h-98l502 700h97zM680 43
q52 0 82.5 47t30.5 113q0 44 -19.5 75.5t-58.5 31.5q-55 0 -84 -46t-29 -119q0 -43 19 -72.5t59 -29.5zM671 -10q-73 0 -118.5 39.5t-45.5 116.5q0 86 58.5 151.5t161.5 65.5q79 0 121 -44t42 -115q0 -91 -61 -152.5t-158 -61.5zM1110 43q52 0 82.5 47t30.5 113
q0 44 -19.5 75.5t-58.5 31.5q-55 0 -84 -46t-29 -119q0 -43 19 -72.5t59 -29.5zM1101 -10q-73 0 -118.5 39.5t-45.5 116.5q0 86 58.5 151.5t161.5 65.5q79 0 121 -44t42 -115q0 -91 -61 -152.5t-158 -61.5z" />
    <glyph glyph-name="guilsinglleft" unicode="&#x2039;" horiz-adv-x="346" 
d="M19 283l275 226l41 -55l-246 -183l163 -232l-57 -39l-177 272z" />
    <glyph glyph-name="guilsinglright" unicode="&#x203a;" horiz-adv-x="347" 
d="M313 225l-275 -226l-41 55l246 183l-163 232l57 39l177 -272z" />
    <glyph glyph-name="fraction" unicode="&#x2044;" horiz-adv-x="376" 
d="M43 0h-83l396 701h82z" />
    <glyph glyph-name="Euro" unicode="&#x20ac;" horiz-adv-x="695" 
d="M564 386h-293q-10 -48 -11 -90h280l-21 -60h-260q5 -98 47.5 -150t119.5 -52q48 0 92 14l50 125h42l-32 -148q-7 -4 -21 -10.5t-58.5 -17.5t-92.5 -11q-126 0 -188.5 66.5t-64.5 183.5h-100v60h102q5 48 16 90h-118v60h137q45 119 137 193.5t221 74.5q47 0 86.5 -10
t55.5 -20l16 -10l-31 -144h-39l2 108q-42 29 -105 29q-89 0 -152 -61t-94 -160h298z" />
    <glyph glyph-name="afii61352" unicode="&#x2116;" horiz-adv-x="1103" 
d="M882 267q39 0 71.5 59.5t32.5 132.5q0 92 -56 92q-42 0 -73.5 -59t-31.5 -129q0 -96 57 -96zM863 221q-62 0 -95 37.5t-33 99.5q0 100 61 169.5t147 69.5q66 0 100.5 -37.5t34.5 -99.5q0 -96 -64 -167.5t-151 -71.5zM719 110v64h286v-64h-286zM555 241l73 410l-77 18v31
h218v-31l-83 -18l-115 -651l-40 -7l-265 498l-38 79l-3 -1q-3 -44 -12 -90l-76 -432l78 -16v-31h-216v31l80 16l105 592l-20 36v25l89 4l251 -473l35 -78l4 1q4 46 12 87z" />
    <glyph glyph-name="trademark" unicode="&#x2122;" horiz-adv-x="952" 
d="M905 379h-186v26l59 14l21 110l15 71l-2 1q-16 -27 -48 -63l-106 -123h-11l-57 122q-7 15 -13 31t-8 25l-2 9l-2 -1q-2 -33 -10 -71l-21 -111l47 -14v-26h-162v26l64 14l46 240l-56 19v24h124l67 -143l17 -51h3q18 26 37 49l112 146h125v-25l-58 -19l-46 -240l51 -14v-26
zM323 379h-186v26l57 14l46 236h-87l-28 -72h-27l18 118h329l-17 -118h-28v72h-83l-46 -236l52 -14v-26z" />
    <glyph glyph-name="estimated" unicode="&#x212e;" horiz-adv-x="819" 
d="M411 -53q-150 0 -255.5 95t-105.5 230q0 134 105.5 229.5t255.5 95.5q149 0 255 -95.5t106 -229.5v-9h-585q-5 0 -5 -4v-177q0 -12 8 -20q91 -96 222 -96q138 0 232 107h53q-51 -58 -126 -92t-160 -34zM187 281h448q5 0 5 5v178q0 11 -10 21q-90 92 -218 92
q-129 0 -221 -95q-9 -9 -9 -22v-174q0 -5 5 -5z" />
    <glyph glyph-name="uni2139" unicode="&#x2139;" horiz-adv-x="416" 
d="M60 397l228 26l-1 -343q0 -46 71 -52v-28l-299 -1v27q35 0 54 13.5t19 36.5v232q0 45 -72 54v35zM210 634q33 0 56 -23t23 -56t-22.5 -57t-54.5 -24q-33 0 -56.5 21t-23.5 55q0 37 22 60.5t56 23.5z" />
    <glyph glyph-name="uni2150" unicode="&#x2150;" horiz-adv-x="715" 
d="M90 0l-49 40l568 669l50 -38zM449 317l5 62h242v-20l-31 -52l-31 -56.5l-25.5 -49t-26.5 -56l-22.5 -49.5l-25.5 -57.5l-24 -54.5l-68 22q80 163 189 320zM92 661l147 45h18l-74 -382h-69l62 321l-79 -7z" />
    <glyph glyph-name="uni2151" unicode="&#x2151;" horiz-adv-x="750" 
d="M444 9q63 11 111.5 52t67.5 114q-35 -35 -87 -35q-49 0 -79 28t-30 74q0 60 41.5 101.5t101.5 41.5q61 0 95.5 -35.5t34.5 -97.5q0 -122 -73 -188.5t-180 -79.5zM90 0l-49 40l568 669l50 -38zM92 661l147 45h18l-74 -382h-69l62 321l-79 -7zM557 185q44 0 74 36
q2 24 2 37q0 92 -63 92q-36 0 -55.5 -26t-19.5 -69q0 -70 62 -70z" />
    <glyph glyph-name="uni2152" unicode="&#x2152;" horiz-adv-x="978" 
d="M746 -10q-55 0 -83.5 37.5t-28.5 99.5q0 98 49.5 175.5t132.5 77.5q55 0 83.5 -37.5t28.5 -99.5q0 -98 -49.5 -175.5t-132.5 -77.5zM90 0l-49 40l568 669l50 -38zM753 36q47 0 74 66t27 136q0 96 -45 96q-47 0 -74 -66t-27 -136q0 -96 45 -96zM450 337l147 45h18
l-74 -382h-69l62 321l-79 -7zM92 661l147 45h18l-74 -382h-69l62 321l-79 -7z" />
    <glyph glyph-name="onethird" unicode="&#x2153;" horiz-adv-x="726" 
d="M102 0l-49 40l568 669l50 -38zM475 184v28q50 0 81 21.5t31 53.5q0 51 -58 51q-20 0 -38.5 -3.5t-26.5 -6.5l-9 -4v25q41 32 107 32q48 0 73.5 -21.5t25.5 -54.5q0 -37 -27.5 -65.5t-73.5 -38.5q35 -5 57.5 -25.5t22.5 -52.5q0 -58 -42.5 -95.5t-107.5 -37.5
q-31 0 -58.5 9t-39.5 18l-12 9l10 21q33 -16 83 -16q41 0 68 25.5t27 66.5q0 32 -22.5 46.5t-70.5 14.5zM104 661l147 45h18l-74 -382h-69l62 321l-79 -7z" />
    <glyph glyph-name="twothirds" unicode="&#x2154;" horiz-adv-x="803" 
d="M178 0l-49 40l568 669l50 -38zM54 324v26q120 93 165 150t45 108q0 58 -69 58q-19 0 -40 -5t-32 -11l-11 -5v26q4 5 13 12t38 19t61 12q48 0 77.5 -25t29.5 -66q0 -59 -42 -114.5t-150 -137.5l183 11l-3 -58h-265zM559 184v28q50 0 81 21.5t31 53.5q0 51 -58 51
q-20 0 -38.5 -3.5t-26.5 -6.5l-9 -4v25q41 32 107 32q48 0 73.5 -21.5t25.5 -54.5q0 -37 -27.5 -65.5t-73.5 -38.5q35 -5 57.5 -25.5t22.5 -52.5q0 -58 -42.5 -95.5t-107.5 -37.5q-31 0 -58.5 9t-39.5 18l-12 9l10 21q33 -16 83 -16q41 0 68 25.5t27 66.5q0 32 -22.5 46.5
t-70.5 14.5z" />
    <glyph glyph-name="uni2155" unicode="&#x2155;" horiz-adv-x="750" 
d="M90 0l-49 40l568 669l50 -38zM709 379l-4 -53l-172 5l-24 -92q83 -4 121 -33t38 -85q0 -57 -42 -95t-111 -38q-29 0 -56 9t-39 19l-12 9l6 17q31 -14 75 -14q50 0 79 23t29 62q0 84 -136 84l47 182h201zM92 661l147 45h18l-74 -382h-69l62 321l-79 -7z" />
    <glyph glyph-name="uni2156" unicode="&#x2156;" horiz-adv-x="827" 
d="M171 0l-49 40l568 669l50 -38zM47 324v26q120 93 165 150t45 108q0 58 -69 58q-19 0 -40 -5t-32 -11l-11 -5v26q4 5 13 12t38 19t61 12q48 0 77.5 -25t29.5 -66q0 -59 -42 -114.5t-150 -137.5l183 11l-3 -58h-265zM789 379l-4 -53l-172 5l-24 -92q83 -4 121 -33t38 -85
q0 -57 -42 -95t-111 -38q-29 0 -56 9t-39 19l-12 9l6 17q31 -14 75 -14q50 0 79 23t29 62q0 84 -136 84l47 182h201z" />
    <glyph glyph-name="uni2157" unicode="&#x2157;" horiz-adv-x="773" 
d="M117 0l-49 40l568 669l50 -38zM735 379l-4 -53l-172 5l-24 -92q83 -4 121 -33t38 -85q0 -57 -42 -95t-111 -38q-29 0 -56 9t-39 19l-12 9l6 17q31 -14 75 -14q50 0 79 23t29 62q0 84 -136 84l47 182h201zM139 513v28q50 0 81 21.5t31 53.5q0 51 -58 51q-20 0 -38.5 -3.5
t-26.5 -7.5l-9 -3v25q41 32 107 32q48 0 73.5 -21.5t25.5 -54.5q0 -37 -27.5 -65.5t-73.5 -38.5q35 -5 57.5 -25.5t22.5 -52.5q0 -58 -42.5 -95.5t-107.5 -37.5q-31 0 -58.5 9t-39.5 18l-12 9l10 21q33 -16 83 -16q41 0 68 25.5t27 66.5q0 32 -22.5 46.5t-70.5 14.5z" />
    <glyph glyph-name="uni2158" unicode="&#x2158;" horiz-adv-x="853" 
d="M364 455l-6 -42h-78l-9 -45l-8 -52h-69l18 97h-159v30l227 272l57 -8l-49 -253zM195 0l-49 40l568 669l50 -38zM811 379l-4 -53l-172 5l-24 -92q83 -4 121 -33t38 -85q0 -57 -42 -95t-111 -38q-29 0 -56 9t-39 19l-12 9l6 17q31 -14 75 -14q50 0 79 23t29 62
q0 84 -136 84l47 182h201zM217 577l-106 -123h109l22 115l15 61h-2q-19 -30 -38 -53z" />
    <glyph glyph-name="uni2159" unicode="&#x2159;" horiz-adv-x="731" 
d="M650 368q-63 -11 -112 -52.5t-67 -113.5q35 35 87 35q49 0 79 -28t30 -74q0 -60 -41.5 -101.5t-101.5 -41.5q-61 0 -95.5 35.5t-34.5 97.5q0 122 73 188.5t180 79.5zM90 0l-49 40l568 669l50 -38zM92 661l147 45h18l-74 -382h-69l62 321l-79 -7zM537 192q-46 0 -75 -37
q-1 -11 -1 -36q0 -92 63 -92q36 0 55.5 26t19.5 69q0 70 -62 70z" />
    <glyph glyph-name="uni215A" unicode="&#x215a;" horiz-adv-x="803" 
d="M725 368q-63 -11 -112 -52.5t-67 -113.5q35 35 87 35q49 0 79 -28t30 -74q0 -60 -41.5 -101.5t-101.5 -41.5q-61 0 -95.5 35.5t-34.5 97.5q0 122 73 188.5t180 79.5zM142 0l-49 40l568 669l50 -38zM347 700l-4 -53l-172 5l-24 -92q83 -4 121 -33t38 -85q0 -57 -42 -95
t-111 -38q-29 0 -56 9.5t-39 18.5l-12 9l6 17q31 -14 75 -14q50 0 79 23t29 62q0 84 -136 84l47 182h201zM612 192q-46 0 -75 -37q-1 -11 -1 -36q0 -92 63 -92q36 0 55.5 26t19.5 69q0 70 -62 70z" />
    <glyph glyph-name="oneeighth" unicode="&#x215b;" horiz-adv-x="763" 
d="M420 73q0 73 104 118q-56 37 -56 80q0 51 40 82t101 31q42 0 69.5 -19.5t27.5 -51.5q0 -65 -93 -107q31 -20 48 -40t17 -49q0 -54 -46.5 -91t-102.5 -37q-48 0 -78.5 22t-30.5 62zM102 0l-49 40l568 669l50 -38zM104 661l147 45h18l-74 -382h-69l62 321l-79 -7zM612 100
q0 17 -11.5 32.5t-22.5 23.5t-35 23q-29 -20 -46.5 -46.5t-17.5 -48.5q0 -25 15 -40.5t41 -15.5q32 0 54.5 19t22.5 53zM535 288q0 -15 9 -28t19.5 -21t28.5 -20q53 35 53 84q0 21 -13 32.5t-33 11.5q-29 0 -46.5 -16t-17.5 -43z" />
    <glyph glyph-name="threeeighths" unicode="&#x215c;" horiz-adv-x="794" 
d="M456 73q0 73 104 118q-56 37 -56 80q0 51 40 82t101 31q42 0 69.5 -19.5t27.5 -51.5q0 -65 -93 -107q31 -20 48 -40t17 -49q0 -54 -46.5 -91t-102.5 -37q-48 0 -78.5 22t-30.5 62zM127 0l-49 40l568 669l50 -38zM149 513v28q50 0 81 21.5t31 53.5q0 51 -58 51
q-20 0 -38.5 -3.5t-26.5 -7.5l-9 -3v25q41 32 107 32q48 0 73.5 -21.5t25.5 -54.5q0 -37 -27.5 -65.5t-73.5 -38.5q35 -5 57.5 -25.5t22.5 -52.5q0 -58 -42.5 -95.5t-107.5 -37.5q-31 0 -58.5 9t-39.5 18l-12 9l10 21q33 -16 83 -16q41 0 68 25.5t27 66.5q0 32 -22.5 46.5
t-70.5 14.5zM648 100q0 17 -11.5 32.5t-22.5 23.5t-35 23q-29 -20 -46.5 -46.5t-17.5 -48.5q0 -25 15 -40.5t41 -15.5q32 0 54.5 19t22.5 53zM571 288q0 -15 9 -28t19.5 -21t28.5 -20q53 35 53 84q0 21 -13 32.5t-33 11.5q-29 0 -46.5 -16t-17.5 -43z" />
    <glyph glyph-name="fiveeighths" unicode="&#x215d;" horiz-adv-x="829" 
d="M491 73q0 73 104 118q-56 37 -56 80q0 51 40 82t101 31q42 0 69.5 -19.5t27.5 -51.5q0 -65 -93 -107q31 -20 48 -40t17 -49q0 -54 -46.5 -91t-102.5 -37q-48 0 -78.5 22t-30.5 62zM163 0l-49 40l568 669l50 -38zM355 700l-4 -53l-172 5l-24 -92q83 -4 121 -33t38 -85
q0 -57 -42 -95t-111 -38q-29 0 -56 9.5t-39 18.5l-12 9l6 17q31 -14 75 -14q50 0 79 23t29 62q0 84 -136 84l47 182h201zM683 100q0 17 -11.5 32.5t-22.5 23.5t-35 23q-29 -20 -46.5 -46.5t-17.5 -48.5q0 -25 15 -40.5t41 -15.5q32 0 54.5 19t22.5 53zM606 288q0 -15 9 -28
t19.5 -21t28.5 -20q53 35 53 84q0 21 -13 32.5t-33 11.5q-29 0 -46.5 -16t-17.5 -43z" />
    <glyph glyph-name="seveneighths" unicode="&#x215e;" horiz-adv-x="786" 
d="M444 73q0 73 104 118q-56 37 -56 80q0 51 40 82t101 31q42 0 69.5 -19.5t27.5 -51.5q0 -65 -93 -107q31 -20 48 -40t17 -49q0 -54 -46.5 -91t-102.5 -37q-48 0 -78.5 22t-30.5 62zM116 0l-49 40l568 669l50 -38zM107 637l5 62h242v-20l-31 -52l-31 -56.5l-25.5 -49
t-26.5 -56l-22.5 -49.5l-25.5 -57.5l-24 -54.5l-68 22q80 163 189 320zM636 100q0 17 -11.5 32.5t-22.5 23.5t-35 23q-29 -20 -46.5 -46.5t-17.5 -48.5q0 -25 15 -40.5t41 -15.5q32 0 54.5 19t22.5 53zM559 288q0 -15 9 -28t19.5 -21t28.5 -20q53 35 53 84q0 21 -13 32.5
t-33 11.5q-29 0 -46.5 -16t-17.5 -43z" />
    <glyph glyph-name="uni215F" unicode="&#x215f;" horiz-adv-x="621" 
d="M96 0l-49 40l568 669l50 -38zM98 661l147 45h18l-74 -382h-69l62 321l-79 -7z" />
    <glyph glyph-name="arrowright" unicode="&#x2192;" horiz-adv-x="783" 
d="M594 280l-4 3q-39 35 -74 83.5t-50 81.5l64 34q49 -90 143 -176l50 -46v-29l-50 -46q-94 -86 -143 -176l-64 34q15 33 49.5 80.5t72.5 82.5h-529v74h535z" />
    <glyph glyph-name="arrowboth" unicode="&#x2194;" horiz-adv-x="966" 
d="M176 283l-4 -3h605l-4 3q-39 35 -74 83.5t-50 81.5l64 34q49 -90 143 -176l50 -46v-29l-50 -46q-94 -86 -143 -176l-64 34q15 33 49.5 80.5t72.5 82.5h-593q38 -35 72.5 -82.5t49.5 -80.5l-64 -34q-49 90 -143 176l-50 46v29l50 46q94 86 143 176l64 -34
q-15 -33 -50 -81.5t-74 -83.5z" />
    <glyph glyph-name="arrowupdn" unicode="&#x2195;" horiz-adv-x="647" 
d="M116 425l-34 59q84 46 173 143l46 50h29l46 -50q83 -90 179 -143l-34 -59q-29 13 -80 51t-87 77v-615q36 38 86.5 76t80.5 52l34 -59q-96 -53 -179 -143l-46 -50h-29l-46 50q-89 97 -173 143l34 59q31 -15 79.5 -50.5t85.5 -76.5v613q-38 -41 -86.5 -77.5t-78.5 -49.5z
" />
    <glyph glyph-name="Delta" unicode="&#x2206;" horiz-adv-x="653" 
d="M1 0l-12 29l415 671h52l114 -673l-21 -27h-548zM339 475l-253 -413h384l-69 412l-8 102h-4q-22 -55 -50 -101z" />
    <glyph glyph-name="minus" unicode="&#x2212;" horiz-adv-x="536" 
d="M80 253v64h371v-64h-371z" />
    <glyph glyph-name="radical" unicode="&#x221a;" horiz-adv-x="637" 
d="M720 751l-410 -751l-87 -5l-72 453h-100v52h186l45 -312q4 -28 6 -57.5t2 -45.5v-16h4q23 56 55 117l292 565h79z" />
    <glyph glyph-name="infinity" unicode="&#x221e;" horiz-adv-x="732" 
d="M372 324q95 106 183 106q50 0 83.5 -31t33.5 -85q0 -69 -45 -119.5t-117 -50.5q-29 0 -52.5 9t-43 27.5t-30 32t-27.5 37.5q-95 -106 -183 -106q-50 0 -83.5 31t-33.5 85q0 69 45 119.5t117 50.5q29 0 52.5 -9t43 -27.5t30 -32t27.5 -37.5zM214 359q-41 0 -64.5 -24
t-23.5 -57q0 -63 64 -63q74 0 148 72q-30 36 -56.5 54t-67.5 18zM515 215q41 0 64.5 24t23.5 57q0 63 -64 63q-74 0 -148 -72q30 -36 56.5 -54t67.5 -18z" />
    <glyph glyph-name="approxequal" unicode="&#x2248;" horiz-adv-x="548" 
d="M340 199q72 0 98 67l30 -11q1 -56 -32 -94t-85 -38q-36 0 -88.5 32.5t-86.5 32.5q-72 0 -98 -67l-30 11q-1 56 32 94t85 38q43 0 92.5 -32.5t82.5 -32.5zM366 369q72 0 98 67l30 -11q1 -56 -32 -94t-85 -38q-36 0 -88.5 32.5t-86.5 32.5q-72 0 -98 -67l-30 11
q-1 56 32 94t85 38q43 0 92.5 -32.5t82.5 -32.5z" />
    <glyph glyph-name="notequal" unicode="&#x2260;" horiz-adv-x="535" 
d="M78 342v69h233l102 155l58 -40l-76 -115h94v-69h-140l-79 -121h181v-69h-227l-106 -161l-58 39l80 122h-100v69h146l79 121h-187z" />
    <glyph glyph-name="lessequal" unicode="&#x2264;" horiz-adv-x="548" 
d="M83 349l306 170h136l-318 -178l249 -171h-124l-250 170zM32 64v65h410v-65h-410z" />
    <glyph glyph-name="greaterequal" unicode="&#x2265;" horiz-adv-x="538" 
d="M227 519l252 -170l-1 -9l-311 -170h-129l323 179l-248 170h114zM441 129v-65h-410v65h410z" />
    <glyph glyph-name="filledbox" unicode="&#x25a0;" horiz-adv-x="635" 
d="M83 86l-22 22q30 210 -1 489l23 23q279 -31 489 -1l22 -22q-30 -210 1 -490l-22 -22q-280 31 -490 1z" />
    <glyph glyph-name="triagup" unicode="&#x25b2;" horiz-adv-x="723" 
d="M644 92h-623v25l300 486h24l299 -486v-25z" />
    <glyph glyph-name="triagdn" unicode="&#x25bc;" horiz-adv-x="723" 
d="M97 603h623v-25l-299 -486h-24l-300 486v25z" />
    <glyph glyph-name="uni25C6" unicode="&#x25c6;" horiz-adv-x="534" 
d="M60 343v19q104 77 207 208h20q103 -131 207 -208v-19q-105 -78 -207 -209h-20q-102 131 -207 209z" />
    <glyph glyph-name="lozenge" unicode="&#x25ca;" horiz-adv-x="616" 
d="M42 328l2 11l295 361h12l242 -323l-2 -11l-299 -381h-12zM128 359l185 -270l195 256l-190 254z" />
    <glyph glyph-name="H18533" unicode="&#x25cf;" horiz-adv-x="637" 
d="M59 351q0 111 78.5 190t189.5 79t190 -79t79 -190t-79 -189.5t-190 -78.5t-189.5 78.5t-78.5 189.5z" />
    <glyph glyph-name="uni2715" unicode="&#x2715;" horiz-adv-x="845" 
d="M662 -7l-114 116l29 29l-145 148l-146 -146l25 -24l-126 -126l-116 116l126 126l29 -29l146 144l-149 148l-29 -29l-116 116l126 126l116 -116l-29 -29l148 -149l144 145l-29 30l126 126l116 -116l-126 -126l-25 25l-145 -146l147 -146l29 29l115 -114z" />
    <glyph glyph-name="uni271A" unicode="&#x271a;" horiz-adv-x="799" 
d="M59 256v186h251v257h196v-257h252v-186h-252v-256h-196v256h-251z" />
    <glyph glyph-name="uni271B" unicode="&#x271b;" horiz-adv-x="799" 
d="M59 286v126h281v287h136v-287h282v-126h-282v-286h-136v286h-281zM350 402v-106h116v106h-116z" />
    <glyph glyph-name="uni271C" unicode="&#x271c;" horiz-adv-x="799" 
d="M59 256v186h251v257h196v-257h252v-186h-252v-256h-196v256h-251zM320 432v-166h176v166h-176z" />
    <glyph glyph-name="uni2722" unicode="&#x2722;" horiz-adv-x="795" 
d="M755 424l-1 -151h-146v39l-162 1v-168h39v-145h-154v145h44v167h-170v-39h-145v151h145v-36h170v168h-44v145h154v-145h-39v-168h162v36h147z" />
    <glyph glyph-name="uni2723" unicode="&#x2723;" horiz-adv-x="921" 
d="M332 629q0 56 39.5 96t95.5 40t96 -40t40 -96q0 -46 -27 -81.5t-70 -47.5v-112h109q13 42 48.5 69t80.5 27q56 0 96 -40t40 -96t-40 -95.5t-96 -39.5q-47 0 -83 27.5t-47 71.5l-108 1v-109q43 -13 70 -49t27 -81q0 -56 -40 -95.5t-96 -39.5t-95.5 39.5t-39.5 95.5
q0 48 29 84.5t74 47.5v106h-110q-12 -44 -48.5 -71.5t-82.5 -27.5q-56 0 -95.5 39.5t-39.5 95.5t39.5 96t95.5 40q45 0 81 -27t49 -69h111v110q-45 11 -74 47t-29 84zM686 348q0 -24 17 -41t41 -17t41.5 17t17.5 41t-17.5 41.5t-41.5 17.5t-41 -17.5t-17 -41.5zM136 348
q0 -24 17 -41t41 -17t41.5 17t17.5 41t-17.5 41.5t-41.5 17.5t-41 -17.5t-17 -41.5zM409 74q0 -24 17 -41t41 -17t41.5 17t17.5 41t-17.5 41.5t-41.5 17.5t-41 -17.5t-17 -41.5zM409 629q0 -24 17 -41t41 -17t41.5 17t17.5 41t-17.5 41.5t-41.5 17.5t-41 -17.5t-17 -41.5z
" />
    <glyph glyph-name="uni2724" unicode="&#x2724;" horiz-adv-x="865" 
d="M333 629q0 44 31 75.5t75 31.5t75.5 -31.5t31.5 -75.5q0 -33 -19 -60.5t-49 -38.5v-142h140q12 30 39 48.5t60 18.5q44 0 75.5 -31.5t31.5 -75.5t-31.5 -75t-75.5 -31q-35 0 -62 19.5t-38 50.5l-139 1v-141q30 -11 49 -38.5t19 -60.5q0 -44 -31.5 -75t-75.5 -31t-75 31
t-31 75q0 35 20.5 63t53.5 39v137h-142q-11 -31 -38.5 -50.5t-61.5 -19.5q-44 0 -75 31t-31 75t31 75.5t75 31.5q33 0 60 -18.5t39 -48.5h143v140q-33 10 -53.5 37.5t-20.5 63.5z" />
    <glyph glyph-name="uni2725" unicode="&#x2725;" horiz-adv-x="865" 
d="M59 348q0 22 42 64.5t64 42.5q14 0 40 -21t46 -46l163 -10l-10 157q-25 20 -46.5 46.5t-21.5 40.5q0 22 42 64.5t64 42.5t64.5 -42.5t42.5 -64.5q0 -14 -21.5 -40.5t-46.5 -46.5l-10 -157l160 10q20 25 46 46t40 21q22 0 64.5 -42.5t42.5 -64.5t-42.5 -64t-64.5 -42
q-15 0 -42.5 22.5t-46.5 48.5l-157 10l10 -162q25 -20 46.5 -46.5t21.5 -40.5q0 -22 -42.5 -64t-64.5 -42t-64 42t-42 64q0 14 21.5 40.5t46.5 46.5l10 162l-159 -10q-20 -26 -48 -48.5t-42 -22.5q-22 0 -64 42t-42 64z" />
    <glyph glyph-name="uni2726" unicode="&#x2726;" horiz-adv-x="825" 
d="M60 351q0 47 69 135.5t157 158.5t135 70t135.5 -70t158.5 -158.5t70 -135.5t-70 -135t-158.5 -157t-135.5 -69t-135 69t-157 157t-69 135z" />
    <glyph glyph-name="uni2727" unicode="&#x2727;" horiz-adv-x="822" 
d="M60 337v31q172 129 345 347h32q173 -218 345 -347v-31q-172 -129 -345 -347h-32q-173 218 -345 347z" />
    <glyph glyph-name="uni2756" unicode="&#x2756;" horiz-adv-x="826" 
d="M253 536v15q82 61 163 164h16q79 -100 163 -164v-15q-86 -65 -163 -165h-16q-79 103 -163 165zM60 345v15q84 64 163 164h16q79 -100 163 -164v-15q-82 -60 -163 -164h-16q-81 104 -163 164zM444 345v15q84 64 163 164h16q81 -103 163 -164v-15q-80 -58 -163 -164h-16
q-81 104 -163 164zM252 155v15q80 58 163 164h16q81 -104 163 -164v-15q-86 -65 -163 -165h-16q-79 103 -163 165z" />
    <glyph glyph-name="uni2766" unicode="&#x2766;" horiz-adv-x="885" 
d="M754 137l36 -33q-100 -116 -267 -113q-117 2 -196.5 81t-79.5 213q0 63 17.5 110t45.5 71.5t62 35t67 6t61 -20.5q-3 47 -18 84q-52 -15 -89 -15q-128 0 -166 138q-85 -36 -85 -151h-50q0 102 60 157t146 55q63 0 120 -32t92 -92l63 24t73 25.5t68 17t82 7.5t81 -13
l-10 -50q-19 5 -38 7.5t-39.5 2t-36 -1.5t-39 -6.5t-35.5 -8t-38.5 -11l-35.5 -11.5l-38.5 -13.5t-36.5 -13.5q17 -47 20 -101q30 21 69.5 23t74 -13t58.5 -51t24 -85q0 -55 -23.5 -98.5t-57.5 -68.5t-68 -43t-57.5 -32t-23.5 -26q0 -27 39 -27q98 0 169 73z" />
    <glyph glyph-name="uni2776" unicode="&#x2776;" horiz-adv-x="815" 
d="M418 -8q-152 0 -255 104.5t-103 257.5q0 152 103 257.5t255 105.5q151 0 254 -105.5t103 -257.5q0 -150 -104 -256t-253 -106zM481 593l-166 -59l7 -20l100 20l-80 -413h65l92 472h-18z" />
    <glyph glyph-name="uni2777" unicode="&#x2777;" horiz-adv-x="815" 
d="M418 -8q-152 0 -255 104.5t-103 257.5q0 152 103 257.5t255 105.5q151 0 254 -105.5t103 -257.5q0 -150 -104 -256t-253 -106zM256 141v-20h284l3 59l-218 -14q68 61 105.5 97.5t71.5 78t47.5 76.5t13.5 73q0 47 -30.5 74.5t-82.5 27.5q-29 0 -60 -10.5t-48 -21.5
l-16 -11v-25q36 23 95 23q35 0 54.5 -16.5t19.5 -46.5q0 -60 -49 -131.5t-190 -212.5z" />
    <glyph glyph-name="uni2778" unicode="&#x2778;" horiz-adv-x="815" 
d="M418 -8q-152 0 -255 104.5t-103 257.5q0 152 103 257.5t255 105.5q151 0 254 -105.5t103 -257.5q0 -150 -104 -256t-253 -106zM362 381l-7 -26q119 0 119 -87q0 -49 -34.5 -80t-95.5 -31q-20 0 -42 5.5t-34 11.5l-12 5l-9 -22q4 -5 12.5 -12.5t40 -19.5t68.5 -12
q75 0 123.5 46.5t48.5 106.5q0 90 -101 105q59 13 93 48t34 80q0 43 -29 68t-80 25q-31 0 -62 -11t-46 -21l-15 -11v-25q34 24 86 24q79 0 79 -63q0 -44 -37 -72.5t-100 -31.5z" />
    <glyph glyph-name="uni2779" unicode="&#x2779;" horiz-adv-x="815" 
d="M418 -8q-152 0 -255 104.5t-103 257.5q0 152 103 257.5t255 105.5q151 0 254 -105.5t103 -257.5q0 -150 -104 -256t-253 -106zM405 240l-23 -119h64q3 31 9 61l11 58h64l5 45l-60 -1l59 309l-50 10l-271 -333l11 -30h181zM271 281l153 191q11 13 20.5 27t13.5 21l4 8h2
q-9 -29 -15 -62l-36 -183z" />
    <glyph glyph-name="uni277A" unicode="&#x277a;" horiz-adv-x="815" 
d="M418 -8q-152 0 -255 104.5t-103 257.5q0 152 103 257.5t255 105.5q151 0 254 -105.5t103 -257.5q0 -150 -104 -256t-253 -106zM578 528l6 59h-220l-50 -219q161 0 161 -109q0 -49 -32.5 -76t-90.5 -27q-27 0 -50.5 5t-33.5 10l-11 5l-8 -16q16 -18 48 -32.5t73 -14.5
q82 0 127.5 45.5t45.5 113.5q0 135 -179 142l30 126z" />
    <glyph glyph-name="uni277B" unicode="&#x277b;" horiz-adv-x="815" 
d="M418 -8q-152 0 -255 104.5t-103 257.5q0 152 103 257.5t255 105.5q151 0 254 -105.5t103 -257.5q0 -150 -104 -256t-253 -106zM577 572v27q-157 -6 -236 -94.5t-86 -229.5q-3 -71 29 -116.5t93 -45.5q75 0 119.5 49t47.5 118q3 62 -30.5 96t-87.5 34q-60 0 -89 -33
q47 183 240 195zM402 368q37 0 56 -25.5t17 -70.5q-2 -50 -25.5 -87t-60.5 -37t-53 39.5t-13 91.5q1 33 6 63q29 26 73 26z" />
    <glyph glyph-name="uni277C" unicode="&#x277c;" horiz-adv-x="815" 
d="M417 716q152 0 255 -104.5t103 -257.5q0 -152 -103 -257.5t-255 -105.5q-151 0 -254 105.5t-103 257.5q0 150 104 256t253 106zM322 587l-5 -57l219 15q-136 -178 -253 -432l61 -17q130 291 251 474v17h-273z" />
    <glyph glyph-name="uni277D" unicode="&#x277d;" horiz-adv-x="815" 
d="M417 716q152 0 255 -104.5t103 -257.5q0 -152 -103 -257.5t-255 -105.5q-151 0 -254 105.5t-103 257.5q0 150 104 256t253 106zM254 226q0 -53 35 -83t96 -30q68 0 111.5 39t43.5 96q0 42 -20 70.5t-56 55.5q106 51 106 124q0 44 -32 70t-86 26q-63 0 -104 -33t-41 -89
q0 -58 61 -108q-114 -54 -114 -138zM476 237q0 -41 -24.5 -65.5t-62.5 -24.5q-71 0 -71 88q0 71 74 112q23 -16 32 -23.5t24.5 -22.5t21.5 -30t6 -34zM372 489q0 33 17.5 52t49.5 19q65 0 65 -70q0 -57 -64 -98q-34 24 -51 45.5t-17 51.5z" />
    <glyph glyph-name="uni277E" unicode="&#x277e;" horiz-adv-x="815" 
d="M417 716q152 0 255 -104.5t103 -257.5q0 -152 -103 -257.5t-255 -105.5q-151 0 -254 105.5t-103 257.5q0 150 104 256t253 106zM269 140v-27q155 6 233 93.5t85 227.5q3 70 -29 114.5t-91 44.5q-74 0 -118 -48t-47 -116q-3 -61 30 -95t86 -34q55 0 88 33
q-47 -182 -237 -193zM442 341q-37 0 -56 25.5t-17 69.5q2 50 25.5 86.5t60.5 36.5q36 0 52 -38.5t13 -90.5q-4 -41 -7 -63q-29 -26 -71 -26z" />
    <glyph glyph-name="uni277F" unicode="&#x277f;" horiz-adv-x="815" 
d="M417 716q152 0 255 -104.5t103 -257.5q0 -152 -103 -257.5t-255 -105.5q-151 0 -254 105.5t-103 257.5q0 150 104 256t253 106zM384 147q-36 0 -49.5 30t-13.5 95q0 113 39.5 200.5t96.5 87.5q35 0 49 -31.5t14 -96.5q0 -114 -40 -199.5t-96 -85.5zM375 113q52 0 94.5 32
t67.5 81.5t38.5 103t13.5 102.5q0 72 -29 116.5t-93 44.5q-52 0 -94.5 -32t-67.5 -81.5t-38.5 -103t-13.5 -102.5q0 -72 29.5 -116.5t92.5 -44.5z" />
    <glyph glyph-name="uni2780" unicode="&#x2780;" horiz-adv-x="815" 
d="M418 -8q-152 0 -255 104.5t-103 257.5q0 152 103 257.5t255 105.5q151 0 254 -105.5t103 -257.5q0 -150 -104 -256t-253 -106zM418 26q135 0 229 96t94 232q0 138 -93 233.5t-230 95.5t-231 -95.5t-94 -233.5t93.5 -233t231.5 -95zM315 534l166 59h18l-92 -472h-65
l80 413l-100 -20z" />
    <glyph glyph-name="uni2781" unicode="&#x2781;" horiz-adv-x="815" 
d="M418 -8q-152 0 -255 104.5t-103 257.5q0 152 103 257.5t255 105.5q151 0 254 -105.5t103 -257.5q0 -150 -104 -256t-253 -106zM418 26q135 0 229 96t94 232q0 138 -93 233.5t-230 95.5t-231 -95.5t-94 -233.5t93.5 -233t231.5 -95zM256 121v20q141 141 190 212.5
t49 131.5q0 30 -19.5 46.5t-54.5 16.5q-26 0 -50 -6t-35 -12l-10 -5v25q58 43 124 43q52 0 82.5 -27.5t30.5 -74.5q0 -38 -13.5 -73t-47.5 -76.5t-71.5 -78t-105.5 -97.5l218 14l-3 -59h-284z" />
    <glyph glyph-name="uni2782" unicode="&#x2782;" horiz-adv-x="815" 
d="M418 -8q-152 0 -255 104.5t-103 257.5q0 152 103 257.5t255 105.5q151 0 254 -105.5t103 -257.5q0 -150 -104 -256t-253 -106zM418 26q135 0 229 96t94 232q0 138 -93 233.5t-230 95.5t-231 -95.5t-94 -233.5t93.5 -233t231.5 -95zM355 355l7 26q63 3 100 31.5t37 72.5
q0 63 -79 63q-23 0 -44.5 -6t-31.5 -12l-10 -6v25q53 43 123 43q51 0 80 -25t29 -68q0 -45 -34 -80t-93 -48q101 -15 101 -105q0 -60 -48.5 -106.5t-123.5 -46.5q-37 0 -67.5 11t-42.5 22l-11 11l9 22q42 -22 88 -22q61 0 95.5 31t34.5 80q0 87 -119 87z" />
    <glyph glyph-name="uni2783" unicode="&#x2783;" horiz-adv-x="815" 
d="M418 -8q-152 0 -255 104.5t-103 257.5q0 152 103 257.5t255 105.5q151 0 254 -105.5t103 -257.5q0 -150 -104 -256t-253 -106zM418 26q135 0 229 96t94 232q0 138 -93 233.5t-230 95.5t-231 -95.5t-94 -233.5t93.5 -233t231.5 -95zM382 121l23 119h-181l-11 30l271 333
l50 -10l-59 -309l60 1l-5 -45h-64l-11 -58l-9 -61h-64zM424 472l-153 -191l142 2l36 183l15 62h-2q-14 -26 -38 -56z" />
    <glyph glyph-name="uni2784" unicode="&#x2784;" horiz-adv-x="815" 
d="M418 -8q-152 0 -255 104.5t-103 257.5q0 152 103 257.5t255 105.5q151 0 254 -105.5t103 -257.5q0 -150 -104 -256t-253 -106zM418 26q135 0 229 96t94 232q0 138 -93 233.5t-230 95.5t-231 -95.5t-94 -233.5t93.5 -233t231.5 -95zM584 587l-6 -59l-184 12l-30 -126
q179 -7 179 -142q0 -68 -45.5 -113.5t-127.5 -45.5q-41 0 -73 14.5t-48 32.5l8 16q35 -20 95 -20q58 0 90.5 27t32.5 76q0 109 -161 109l50 219h220z" />
    <glyph glyph-name="uni2785" unicode="&#x2785;" horiz-adv-x="815" 
d="M418 -8q-152 0 -255 104.5t-103 257.5q0 152 103 257.5t255 105.5q151 0 254 -105.5t103 -257.5q0 -150 -104 -256t-253 -106zM418 26q135 0 229 96t94 232q0 138 -93 233.5t-230 95.5t-231 -95.5t-94 -233.5t93.5 -233t231.5 -95zM577 599v-27q-193 -12 -240 -195
q29 33 89 33q54 0 87.5 -34t30.5 -96q-3 -69 -47.5 -118t-119.5 -49q-61 0 -93 45.5t-29 116.5q7 141 86 229.5t236 94.5zM402 368q-44 0 -73 -26q-5 -30 -6 -63q-3 -52 13 -91.5t53 -39.5t60.5 37t25.5 87q2 45 -17 70.5t-56 25.5z" />
    <glyph glyph-name="uni2786" unicode="&#x2786;" horiz-adv-x="815" 
d="M418 -8q-152 0 -255 104.5t-103 257.5q0 152 103 257.5t255 105.5q151 0 254 -105.5t103 -257.5q0 -150 -104 -256t-253 -106zM418 26q135 0 229 96t94 232q0 138 -93 233.5t-230 95.5t-231 -95.5t-94 -233.5t93.5 -233t231.5 -95zM317 530l5 57h273v-17
q-121 -183 -251 -474l-61 17q117 254 253 432z" />
    <glyph glyph-name="uni2787" unicode="&#x2787;" horiz-adv-x="815" 
d="M418 -8q-152 0 -255 104.5t-103 257.5q0 152 103 257.5t255 105.5q151 0 254 -105.5t103 -257.5q0 -150 -104 -256t-253 -106zM418 26q135 0 229 96t94 232q0 138 -93 233.5t-230 95.5t-231 -95.5t-94 -233.5t93.5 -233t231.5 -95zM254 226q0 84 114 138q-61 50 -61 108
q0 56 41 89t104 33q54 0 86 -26t32 -70q0 -73 -106 -124q36 -27 56 -55.5t20 -70.5q0 -57 -43.5 -96t-111.5 -39q-61 0 -96 30t-35 83zM476 237q0 19 -6 34t-21.5 30t-24.5 22.5t-32 23.5q-74 -41 -74 -112q0 -88 71 -88q38 0 62.5 24.5t24.5 65.5zM372 489q0 -30 17 -51.5
t51 -45.5q64 41 64 98q0 70 -65 70q-32 0 -49.5 -19t-17.5 -52z" />
    <glyph glyph-name="uni2788" unicode="&#x2788;" horiz-adv-x="815" 
d="M418 -8q-152 0 -255 104.5t-103 257.5q0 152 103 257.5t255 105.5q151 0 254 -105.5t103 -257.5q0 -150 -104 -256t-253 -106zM418 26q135 0 229 96t94 232q0 138 -93 233.5t-230 95.5t-231 -95.5t-94 -233.5t93.5 -233t231.5 -95zM269 113v27q190 11 237 193
q-33 -33 -88 -33q-53 0 -86 34t-30 95q3 68 47 116t118 48q59 0 91 -44.5t29 -114.5q-7 -140 -85 -227.5t-233 -93.5zM442 341q42 0 71 26q3 22 7 63q3 52 -13 90.5t-52 38.5q-37 0 -60.5 -36.5t-25.5 -86.5q-2 -44 17 -69.5t56 -25.5z" />
    <glyph glyph-name="uni2789" unicode="&#x2789;" horiz-adv-x="815" 
d="M418 -8q-152 0 -255 104.5t-103 257.5q0 152 103 257.5t255 105.5q151 0 254 -105.5t103 -257.5q0 -150 -104 -256t-253 -106zM418 26q135 0 229 96t94 232q0 138 -93 233.5t-230 95.5t-231 -95.5t-94 -233.5t93.5 -233t231.5 -95zM384 147q56 0 96 85.5t40 199.5
q0 65 -14 96.5t-49 31.5q-57 0 -96.5 -87.5t-39.5 -200.5q0 -65 13.5 -95t49.5 -30zM375 113q-63 0 -92.5 44.5t-29.5 116.5q0 49 13.5 102.5t38.5 103t67.5 81.5t94.5 32q64 0 93 -44.5t29 -116.5q0 -49 -13.5 -102.5t-38.5 -103t-67.5 -81.5t-94.5 -32z" />
    <glyph glyph-name="uni278A" unicode="&#x278a;" horiz-adv-x="815" 
d="M96 0l-30 29v642l30 29h643l29 -29v-643l-29 -28h-643zM481 593l-166 -59l7 -20l100 20l-80 -413h65l92 472h-18z" />
    <glyph glyph-name="uni278B" unicode="&#x278b;" horiz-adv-x="815" 
d="M96 0l-30 29v642l30 29h643l29 -29v-643l-29 -28h-643zM256 141v-20h284l3 59l-218 -14q68 61 105.5 97.5t71.5 78t47.5 76.5t13.5 73q0 47 -30.5 74.5t-82.5 27.5q-29 0 -60 -10.5t-48 -21.5l-16 -11v-25q36 23 95 23q35 0 54.5 -16.5t19.5 -46.5q0 -60 -49 -131.5
t-190 -212.5z" />
    <glyph glyph-name="uni278C" unicode="&#x278c;" horiz-adv-x="815" 
d="M96 0l-30 29v642l30 29h643l29 -29v-643l-29 -28h-643zM362 381l-7 -26q119 0 119 -87q0 -49 -34.5 -80t-95.5 -31q-20 0 -42 5.5t-34 11.5l-12 5l-9 -22q4 -5 12.5 -12.5t40 -19.5t68.5 -12q75 0 123.5 46.5t48.5 106.5q0 90 -101 105q59 13 93 48t34 80q0 43 -29 68
t-80 25q-31 0 -62 -11t-46 -21l-15 -11v-25q34 24 86 24q79 0 79 -63q0 -44 -37 -72.5t-100 -31.5z" />
    <glyph glyph-name="uni278D" unicode="&#x278d;" horiz-adv-x="815" 
d="M96 0l-30 29v642l30 29h643l29 -29v-643l-29 -28h-643zM405 240l-23 -119h64q3 31 9 61l11 58h64l5 45l-60 -1l59 309l-50 10l-271 -333l11 -30h181zM271 281l153 191q11 13 20.5 27t13.5 21l4 8h2q-9 -29 -15 -62l-36 -183z" />
    <glyph glyph-name="uni278E" unicode="&#x278e;" horiz-adv-x="815" 
d="M96 0l-30 29v642l30 29h643l29 -29v-643l-29 -28h-643zM578 528l6 59h-220l-50 -219q161 0 161 -109q0 -49 -32.5 -76t-90.5 -27q-27 0 -50.5 5t-33.5 10l-11 5l-8 -16q16 -18 48 -32.5t73 -14.5q82 0 127.5 45.5t45.5 113.5q0 135 -179 142l30 126z" />
    <glyph glyph-name="uni278F" unicode="&#x278f;" horiz-adv-x="815" 
d="M96 0l-30 29v642l30 29h643l29 -29v-643l-29 -28h-643zM577 572v27q-157 -6 -236 -94.5t-86 -229.5q-3 -71 29 -116.5t93 -45.5q75 0 119.5 49t47.5 118q3 62 -30.5 96t-87.5 34q-60 0 -89 -33q47 183 240 195zM402 368q37 0 56 -25.5t17 -70.5q-2 -50 -25.5 -87
t-60.5 -37t-53 39.5t-13 91.5q1 33 6 63q29 26 73 26z" />
    <glyph glyph-name="uni2790" unicode="&#x2790;" horiz-adv-x="815" 
d="M96 0l-30 29v642l30 29h643l29 -29v-643l-29 -28h-643zM322 587l-5 -57l219 15q-136 -178 -253 -432l61 -17q130 291 251 474v17h-273z" />
    <glyph glyph-name="uni2791" unicode="&#x2791;" horiz-adv-x="815" 
d="M96 0l-30 29v642l30 29h643l29 -29v-643l-29 -28h-643zM254 226q0 -53 35 -83t96 -30q68 0 111.5 39t43.5 96q0 42 -20 70.5t-56 55.5q106 51 106 124q0 44 -32 70t-86 26q-63 0 -104 -33t-41 -89q0 -58 61 -108q-114 -54 -114 -138zM476 237q0 -41 -24.5 -65.5
t-62.5 -24.5q-71 0 -71 88q0 71 74 112q23 -16 32 -23.5t24.5 -22.5t21.5 -30t6 -34zM372 489q0 33 17.5 52t49.5 19q65 0 65 -70q0 -57 -64 -98q-34 24 -51 45.5t-17 51.5z" />
    <glyph glyph-name="uni2792" unicode="&#x2792;" horiz-adv-x="815" 
d="M96 0l-30 29v642l30 29h643l29 -29v-643l-29 -28h-643zM269 140v-27q155 6 233 93.5t85 227.5q3 70 -29 114.5t-91 44.5q-74 0 -118 -48t-47 -116q-3 -61 30 -95t86 -34q55 0 88 33q-47 -182 -237 -193zM442 341q-37 0 -56 25.5t-17 69.5q2 50 25.5 86.5t60.5 36.5
q36 0 52 -38.5t13 -90.5q-4 -41 -7 -63q-29 -26 -71 -26z" />
    <glyph glyph-name="uni2793" unicode="&#x2793;" horiz-adv-x="815" 
d="M96 0l-30 29v642l30 29h643l29 -29v-643l-29 -28h-643zM384 147q-36 0 -49.5 30t-13.5 95q0 113 39.5 200.5t96.5 87.5q35 0 49 -31.5t14 -96.5q0 -114 -40 -199.5t-96 -85.5zM375 113q52 0 94.5 32t67.5 81.5t38.5 103t13.5 102.5q0 72 -29 116.5t-93 44.5
q-52 0 -94.5 -32t-67.5 -81.5t-38.5 -103t-13.5 -102.5q0 -72 29.5 -116.5t92.5 -44.5z" />
    <glyph glyph-name="uni2794" unicode="&#x2794;" horiz-adv-x="768" 
d="M597 280l-4 3q-43 39 -85 88.5t-55 76.5h90q50 -76 123 -142l50 -46v-29l-50 -46q-72 -67 -123 -142h-90q12 26 54.5 74.5t86.5 88.5h-542v74h545z" />
    <glyph glyph-name="uni2799" unicode="&#x2799;" horiz-adv-x="759" 
d="M481 280v202h37q49 -90 143 -176l50 -46v-29l-50 -46q-94 -86 -143 -176h-37v197h-434v74h434z" />
    <glyph glyph-name="uni279B" unicode="&#x279b;" horiz-adv-x="756" 
d="M44 211v69l475 1q-75 20 -140 70t-87 97l70 46q26 -47 137.5 -125t208.5 -109v-29q-97 -31 -208.5 -109t-137.5 -125l-70 46q22 47 87 97t140 70z" />
    <glyph glyph-name="uni27B3" unicode="&#x27b3;" horiz-adv-x="1165" 
d="M801 61h-10v145h-295l-23 -21q-94 -86 -143 -176l-64 34q15 33 50 81.5t74 83.5l42 37l-42 38q-39 35 -74 83.5t-50 81.5l64 34q49 -90 143 -176l29 -26h289v153h10q21 -7 56 -21t120 -61.5t142 -100.5v-9q-57 -52 -136.5 -97t-130.5 -64zM222 245l-42 38
q-66 60 -116 150l65 34q46 -79 134 -161l50 -46v-29l-50 -46q-84 -77 -133 -159l-65 35q48 86 115 147z" />
    <glyph glyph-name="uni27B4" unicode="&#x27b4;" horiz-adv-x="1061" 
d="M603 -34l-7 7l103 103l-209 209l-31 1q-125 6 -225 -23l-22 69q35 13 93.5 22.5t111.5 6.5l56 -4l-3 57q-3 52 6.5 110.5t22.5 93.5l69 -21q-29 -102 -23 -225l2 -39l204 -205l108 109l7 -8q10 -20 25 -54.5t41.5 -128t29.5 -171.5l-6 -6q-77 3 -165.5 27.5t-138.5 47.5z
M324 506l-3 56q-4 87 24 189l70 -22q-23 -93 -19 -209l3 -68l-20 -20l-68 3q-115 4 -207 -19l-21 71q93 28 185 22z" />
    <glyph glyph-name="uni27B5" unicode="&#x27b5;" horiz-adv-x="1162" 
d="M357 61h-10q-8 3 -21.5 7.5t-53 21.5t-76.5 36.5t-84 50.5t-83 64v9q57 53 136.5 98.5t130.5 65.5l51 19h10v-153h289l29 26q94 86 143 176l64 -34q-15 -33 -50 -81.5t-74 -83.5l-42 -38l42 -37q39 -35 74 -83.5t50 -81.5l-64 -34q-49 90 -143 176l-23 21h-295v-145z
M968 283l-42 -38l42 -37q67 -61 115 -147l-65 -35q-49 82 -133 159l-50 46v29l50 46q88 82 134 161l65 -34q-50 -90 -116 -150z" />
    <glyph glyph-name="uni27B6" unicode="&#x27b6;" horiz-adv-x="865" 
d="M520 647l7 7q20 10 54.5 25t128 42t170.5 30l6 -6q-3 -78 -27 -166.5t-47 -138.5l-22 -49l-7 -8l-108 109l-204 -205l-2 -39q-6 -123 23 -225l-69 -21q-13 35 -22.5 93.5t-6.5 110.5l3 57l-56 -4q-53 -3 -111.5 6.5t-93.5 22.5l22 69q100 -29 225 -23l31 1l209 209z
M245 58l3 56l-56 -3q-92 -6 -185 22l21 71q92 -23 207 -19l68 3l20 -20l-3 -68q-4 -116 19 -209l-70 -22q-28 102 -24 189z" />
    <glyph glyph-name="uni27BB" unicode="&#x27bb;" horiz-adv-x="845" 
d="M668 280l-4 3q-39 35 -74 83.5t-50 81.5l64 34q49 -90 143 -176l50 -46v-29l-50 -46q-94 -86 -143 -176l-64 34q15 33 49.5 80.5t72.5 82.5h-163q-112 0 -233.5 -21.5t-205.5 -46.5v216q11 -2 75 -18t111.5 -26t120.5 -20t133 -10h168z" />
    <glyph glyph-name="uni27BC" unicode="&#x27bc;" horiz-adv-x="870" 
d="M693 280l-4 3q-39 35 -74 83.5t-50 81.5l64 34q49 -90 143 -176l50 -46v-29l-50 -46q-94 -86 -143 -176l-64 34q15 33 49.5 80.5t72.5 82.5h-284q-15 -29 -61.5 -48t-101.5 -19h-192q6 2 16 7.5t23.5 16.5t23 29.5t9.5 40.5v24q0 31 -16.5 54.5t-29.5 31t-21 9.5h40h47.5
t44.5 0.5t35 0.5h13q57 0 105.5 -20.5t64.5 -52.5h290z" />
    <glyph glyph-name="uni27BD" unicode="&#x27bd;" horiz-adv-x="877" 
d="M700 280l-4 3q-39 35 -74 83.5t-50 81.5l64 34q49 -90 143 -176l50 -46v-29l-50 -46q-94 -86 -143 -176l-64 34q15 33 49.5 80.5t72.5 82.5h-284l-54 -67h-301l72 84v44l-72 85l301 1l54 -73h290z" />
    <glyph glyph-name="uni27BE" unicode="&#x27be;" horiz-adv-x="761" 
d="M47 190v105h477q-63 69 -99 145l94 48q51 -92 139 -174l53 -48v-43l-53 -48q-87 -80 -139 -173l-94 48q13 28 40.5 69t54.5 71h-473zM567 279l4 -2h-505v-69h499q-36 -32 -68 -76t-47 -74l60 -31q47 82 135 162l47 42v27l-47 43q-90 81 -135 162l-60 -31q14 -31 47 -76
t70 -77z" />
    <glyph glyph-name="commaaccent" unicode="&#xf6c3;" horiz-adv-x="170" 
d="M37 -299l-19 31q78 43 103 108q-13 -4 -26 -4q-20 0 -32.5 13.5t-12.5 35.5q0 31 21 50.5t53 19.5q26 0 41 -16t15 -47q0 -54 -41.5 -107.5t-101.5 -83.5z" />
    <glyph glyph-name="uniFFFD" unicode="&#xfffd;" horiz-adv-x="1022" 
d="M30 267l481 482l481 -482l-481 -480zM496 480q41 0 64 -16.5t23 -44.5q0 -30 -23 -57.5t-50 -46t-50 -48t-23 -63.5q0 -31 22 -51.5t52 -20.5q35 0 71 30l-33 42q-11 -9 -21 -9q-7 0 -12 6.5t-5 13.5q0 14 15.5 30.5t37.5 33t44.5 36t38 48t15.5 60.5q0 49 -37.5 84
t-117.5 35q-38 0 -69.5 -9.5t-43.5 -18.5l-13 -10v-62q46 38 115 38zM501 -35q25 0 40 14t15 38q0 22 -13.5 34.5t-36.5 12.5q-25 0 -40.5 -13t-15.5 -36q0 -22 14 -36t37 -14z" />
    <glyph glyph-name="H.sc" horiz-adv-x="737" 
d="M227 326h294l45 231l-77 13v31h253v-31l-83 -13l-99 -513l77 -13v-31h-253v31l83 13l45 232h-294l-45 -232l77 -13v-31h-253v31l83 13l99 513l-77 13v31h253v-31l-83 -13z" />
    <glyph glyph-name="I.sc" horiz-adv-x="350" 
d="M272 557l-99 -513l77 -13v-31h-253v31l83 13l99 513l-77 13v31h253v-31z" />
    <glyph glyph-name="J.sc" horiz-adv-x="339" 
d="M271 557l-93 -475q-15 -75 -40 -118q-19 -34 -50 -69t-50 -52.5l-68 -60.5l-27 24l52 58q34 37 48.5 71.5t26.5 94.5l103 527l-78 13l1 31h258l-1 -31z" />
    <glyph glyph-name="L.sc" horiz-adv-x="534" 
d="M-3 31l83 13l99 513l-77 13v31h263v-31l-93 -13l-98 -507l227 4l45 106h37l-33 -160h-453v31z" />
    <glyph glyph-name="O.sc" horiz-adv-x="674" 
d="M299 34q59 0 105 33.5t70.5 86t37 105.5t12.5 102q0 90 -35.5 145.5t-113.5 55.5q-58 0 -103.5 -33.5t-70.5 -85.5t-37.5 -105.5t-12.5 -101.5q0 -91 35 -146.5t113 -55.5zM267 -14q-107 0 -163 62.5t-56 169.5q0 53 13 106.5t42 105t70 91.5t102 64.5t133 24.5
q107 0 163.5 -63t56.5 -169q0 -53 -13 -107t-42 -105.5t-70.5 -91t-102.5 -64t-133 -24.5z" />
    <glyph glyph-name="E.sc" horiz-adv-x="564" 
d="M396 260l-179 10l-43 -220l229 4l45 106h37l-33 -160h-455v31l83 13l99 513l-77 13v31h456l-35 -164h-37v108l-215 6l-45 -231l179 1z" />
    <glyph glyph-name="F.sc" horiz-adv-x="538" 
d="M102 601h458l-37 -164h-37v108l-215 6l-47 -237l186 2l-12 -61l-183 9l-42 -220l97 -13v-31h-273v31l83 13l99 513l-77 13v31z" />
    <glyph glyph-name="T.sc" horiz-adv-x="581" 
d="M194 44l99 509l-149 -9l-52 -117h-37l35 174h518l-40 -174h-37l1 117l-146 9l-99 -509l77 -13v-31h-253v31z" />
    <glyph glyph-name="D.sc" horiz-adv-x="656" 
d="M338 551h-62l-97 -501h62q82 0 144 49t91.5 118.5t29.5 143.5q0 190 -168 190zM240 0h-243v31l83 13l99 513l-77 13v31h258q111 0 180.5 -60.5t69.5 -162.5q0 -67 -23.5 -132t-67 -121t-116.5 -90.5t-163 -34.5z" />
    <glyph glyph-name="C.sc" horiz-adv-x="579" 
d="M408 610q49 0 89 -9.5t55 -18.5l16 -10l-30 -153h-39v123q-42 20 -99 20q-120 0 -184.5 -93.5t-64.5 -232.5q0 -95 43 -148t129 -53q45 0 86 16l49 122h38l-31 -147q-72 -40 -164 -40q-125 0 -189 64.5t-64 167.5q0 100 40.5 187.5t124.5 146t195 58.5z" />
    <glyph glyph-name="N.sc" horiz-adv-x="684" 
d="M616 557l-108 -557l-39 -9l-261 462l-79 -409l78 -13v-31h-215l-1 31l82 13l95 476l-34 53v28h98l250 -459l81 415l-78 13v31h213v-31z" />
    <glyph glyph-name="U.sc" horiz-adv-x="684" 
d="M623 557l-62 -321q-48 -246 -275 -246q-110 0 -159 68.5t-28 175.5l62 323l-77 13v31h258v-31l-83 -13l-65 -336q-16 -82 9.5 -131t101.5 -49q148 0 183 180l65 336l-77 13v31h230v-31z" />
    <glyph glyph-name="Q.sc" horiz-adv-x="674" 
d="M267 -14q-107 0 -163 62.5t-56 169.5q0 53 13 106.5t42 105t70 91.5t102 64.5t133 24.5q107 0 163.5 -63t56.5 -169t-51.5 -206t-148.5 -150q27 -21 54 -62l60 -93q17 -27 27.5 -34.5t29.5 -9.5v-29h-44q-45 0 -66.5 10t-42.5 43l-96 148q-39 -9 -83 -9zM299 34
q59 0 105 33.5t70.5 86t37 105.5t12.5 102q0 90 -35.5 145.5t-113.5 55.5q-58 0 -103.5 -33.5t-70.5 -85.5t-37.5 -105.5t-12.5 -101.5q0 -91 35 -146.5t113 -55.5z" />
    <glyph glyph-name="P.sc" horiz-adv-x="566" 
d="M173 44l77 -13v-31h-253v31l83 13l99 513l-77 13v31h254q92 0 143 -41.5t51 -119.5q0 -92 -72 -153.5t-197 -61.5h-73zM217 275h62q80 0 127.5 44t47.5 118q0 51 -31.5 82.5t-89.5 31.5h-62z" />
    <glyph glyph-name="Z.sc" horiz-adv-x="526" 
d="M121 451h-38l30 150h406v-20l-407 -510l270 7l29 66h40l-32 -144h-419v18l405 511l-255 -7z" />
    <glyph glyph-name="V.sc" horiz-adv-x="603" 
d="M574 555l-291 -555l-82 -6l-87 561l-65 16l1 30h235v-30l-76 -15l51 -355l11 -124h4q22 58 54 120l135 261q12 23 22.5 47.5l15.5 36.5l4 13l-71 16v30h214l1 -30z" />
    <glyph glyph-name="A.sc" horiz-adv-x="603" 
d="M31 46l291 555l82 6l87 -561l65 -16l-1 -30h-235v30l76 15l-17 120h-227l-11 -22q-12 -23 -22.5 -47.5t-14.5 -37.5l-5 -12l71 -16v-30h-215v30zM334 524h-4q-22 -58 -54 -120l-99 -191h195l-27 187z" />
    <glyph glyph-name="G.sc" horiz-adv-x="646" 
d="M325 35q37 0 79 8l35 182l-97 14v31h268v-31l-83 -14l-40 -207q-88 -32 -188 -32q-122 0 -187 62.5t-65 169.5q0 53 13 106.5t42 105t70 91.5t102 64.5t133 24.5q49 0 94 -9.5t65 -18.5l21 -10l-30 -153h-39v120q-59 23 -119 23q-82 0 -140 -47.5t-83.5 -119.5
t-25.5 -159q0 -90 43 -145.5t132 -55.5z" />
    <glyph glyph-name="R.sc" horiz-adv-x="609" 
d="M497 40l48 -9v-31h-129l-117 235h-89l-37 -191l77 -13v-31h-253v31l83 13l99 513l-77 13v31h252q94 0 146.5 -39.5t52.5 -119.5q0 -63 -43.5 -116t-119.5 -76zM219 285h62q78 0 125.5 42t47.5 114q0 52 -32 81t-91 29h-60z" />
    <glyph glyph-name="S.sc" horiz-adv-x="510" 
d="M196 38q58 0 97.5 26.5t39.5 78.5q0 37 -24.5 65.5t-60 48.5l-71 41.5t-60 57t-24.5 84.5q0 78 63.5 123.5t169.5 45.5q49 0 88.5 -10t55.5 -20l15 -10l-31 -160h-39v129q-42 21 -106 21q-57 0 -89 -26.5t-32 -71.5q0 -31 18 -56.5t44.5 -41l57.5 -35t57.5 -38.5
t44.5 -52.5t18 -75.5q0 -79 -68 -127.5t-166 -48.5q-52 0 -96.5 10t-63.5 20l-19 10l27 147h38v-116q48 -19 116 -19z" />
    <glyph glyph-name="M.sc" horiz-adv-x="868" 
d="M604 44l61 377l15 63l-5 1q-14 -28 -36 -58l-265 -393h-14l-118 388l-17 60l-6 -2q-1 -29 -10 -67l-73 -363l78 -19v-31h-218v31l82 19l104 506l-76 14v31h175l109 -368l17 -71h3q19 36 42 71l247 368h166v-31l-82 -13l-85 -513l77 -13v-31h-254v31z" />
    <glyph glyph-name="B.sc" horiz-adv-x="580" 
d="M174 50h93q61 0 102 38.5t41 98.5q0 47 -27.5 70.5t-76.5 23.5h-87zM436 455q0 96 -118 96h-47l-43 -220h130q36 16 57 50.5t21 73.5zM266 0h-269v31l83 13l99 513l-77 13v31h244q90 0 138.5 -35t48.5 -102q0 -57 -38 -98t-96 -55l-1 -4q51 -10 80 -39t29 -73
q0 -90 -70 -142.5t-171 -52.5z" />
    <glyph glyph-name="K.sc" horiz-adv-x="637" 
d="M218 279l-45 -235l77 -13v-31h-253v31l83 13l99 513l-77 13v31h248v-31l-78 -13l-44 -228h62l214 229l-62 12v31h224v-31l-82 -16l-239 -228l186 -291l45 -4v-31h-127l-179 279h-52z" />
    <glyph glyph-name="W.sc" horiz-adv-x="890" 
d="M576 80h3q22 55 42 98l165 375l-75 17v31h225v-31l-80 -16l-270 -554l-86 -6l-36 415l-4 76h-3q-12 -44 -26 -76l-165 -409l-89 -6l-52 559l-75 17v31h245v-31l-77 -17l25 -365l6 -100h3q19 55 40 100l163 413l80 4l36 -425z" />
    <glyph glyph-name="X.sc" horiz-adv-x="633" 
d="M268 297l-134 259l-71 14v31h261v-31l-86 -12l108 -209l161 209l-78 12v31h228v-31l-70 -13l-219 -251l136 -263l71 -12v-31h-261v31l87 12l-110 210l-169 -208l78 -14v-31h-227v31l69 15z" />
    </font>
</defs>
</svg>
